<?xml version="1.0" encoding="UTF-8" standalone="no"?>
<!-- Generator: Adobe Illustrator 24.2.1, SVG Export Plug-In . SVG Version: 6.00 Build 0)  -->

<svg
   xmlns:dc="http://purl.org/dc/elements/1.1/"
   xmlns:cc="http://creativecommons.org/ns#"
   xmlns:rdf="http://www.w3.org/1999/02/22-rdf-syntax-ns#"
   xmlns:svg="http://www.w3.org/2000/svg"
   xmlns="http://www.w3.org/2000/svg"
   xmlns:sodipodi="http://sodipodi.sourceforge.net/DTD/sodipodi-0.dtd"
   xmlns:inkscape="http://www.inkscape.org/namespaces/inkscape"
   version="1.1"
   id="Calque_1"
   x="0px"
   y="0px"
   viewBox="0 0 674.341 1002"
   enable-background="new 0 0 1000 1000"
   xml:space="preserve"
   sodipodi:docname="Logo Sporting Union Agen Lot-et-Garonne 2020.svg"
   width="674.341"
   height="1002"
   inkscape:version="0.92.4 (5da689c313, 2019-01-14)"><metadata
   id="metadata903"><rdf:RDF><cc:Work
       rdf:about=""><dc:format>image/svg+xml</dc:format><dc:type
         rdf:resource="http://purl.org/dc/dcmitype/StillImage" /><dc:title></dc:title></cc:Work></rdf:RDF></metadata><defs
   id="defs901" /><sodipodi:namedview
   pagecolor="#ffffff"
   bordercolor="#666666"
   borderopacity="1"
   objecttolerance="10"
   gridtolerance="10"
   guidetolerance="10"
   inkscape:pageopacity="0"
   inkscape:pageshadow="2"
   inkscape:window-width="1366"
   inkscape:window-height="705"
   id="namedview899"
   showgrid="false"
   fit-margin-top="1"
   fit-margin-left="1"
   fit-margin-right="1"
   fit-margin-bottom="1"
   inkscape:zoom="0.536"
   inkscape:cx="337.17"
   inkscape:cy="501"
   inkscape:window-x="-8"
   inkscape:window-y="-8"
   inkscape:window-maximized="1"
   inkscape:current-layer="Calque_1" />
<polygon
   points="164.652,792.499 164.652,317.064 291.703,317.064 291.703,871.034 "
   id="polygon860"
   style="fill:#213662"
   transform="translate(-162.83,1)" />
<polygon
   points="709.1,871.014 709.1,317.064 836.171,317.064 836.171,792.499 "
   id="polygon862"
   style="fill:#213662"
   transform="translate(-162.83,1)" />
<path
   d="m 156.68,82.496 h -52.245 c 0.351,-3.831 0.351,-5.572 0.351,-7.662 0,-17.065 -9.056,-26.818 -25.425,-26.818 -13.929,0 -23.684,8.708 -23.684,20.898 0,7.314 3.136,12.537 10.45,17.065 3.136,2.089 9.751,5.225 16.37,8.011 3.132,1.045 13.234,4.875 26.468,10.1 39.007,15.323 50.5,30.299 50.5,67.565 0,43.884 -30.647,71.397 -79.057,71.397 -28.213,0 -53.986,-8.706 -79.408,-26.818 v -58.161 h 53.983 v 8.009 c 0,20.55 8.009,29.953 25.773,29.953 14.976,0 25.074,-9.753 25.074,-24.031 0,-14.976 -6.615,-20.898 -38.659,-33.784 C 43.143,128.817 40.703,127.772 32.693,123.594 11.797,112.449 2.043,95.035 2.043,68.565 2.042,25.727 31.298,1 82.146,1 108.965,1 136.48,11.099 156.68,27.816 Z"
   id="path864"
   inkscape:connector-curvature="0"
   style="fill:#213662" />
<path
   d="m 410.073,162.426 c 0,26.47 -1.742,35.873 -8.013,47.018 -11.84,19.154 -35.524,30.299 -66.522,30.299 -30.994,0 -54.678,-10.796 -66.869,-30.299 -5.92,-9.403 -8.357,-19.504 -8.357,-35.524 V 160.684 65.256 c 0,-16.717 -2.089,-20.896 -12.191,-23.334 V 4.309 h 77.667 V 41.922 C 316.037,44.361 313.6,48.888 313.6,65.256 v 96.822 c 0,11.145 0.695,16.02 3.831,20.896 3.831,6.269 12.188,10.1 21.591,10.1 17.416,0 24.382,-9.056 24.382,-31.345 V 65.256 c 0,-16.717 -2.093,-20.896 -12.191,-23.334 V 4.309 h 71.048 v 37.613 c -10.099,2.439 -12.188,6.617 -12.188,23.334 z"
   id="path866"
   inkscape:connector-curvature="0"
   style="fill:#213662" />
<path
   d="m 659.18,178.099 c 2.785,13.931 5.221,17.762 13.582,20.896 v 37.615 h -79.408 v -37.615 c 8.009,-0.695 11.84,-4.178 11.84,-10.448 0,-2.089 -0.348,-4.875 -1.043,-7.662 l -1.742,-10.1 h -44.927 l -2.089,10.1 c -0.351,2.089 -0.699,4.18 -0.699,6.269 0,8.009 3.483,11.145 12.539,11.84 v 37.615 h -70.7 v -37.615 c 8.009,-3.482 10.45,-7.662 13.234,-22.637 L 543.201,4.309 h 80.451 z M 578.378,61.078 563.75,137.003 h 31.345 z"
   id="path868"
   inkscape:connector-curvature="0"
   style="fill:#213662" />
<polygon
   points="427.743,522.975 573.078,522.975 573.078,955.061 500.411,999.94 500.351,1000 500.351,999.94 427.743,955.061 "
   id="polygon870"
   style="fill:#213662"
   transform="translate(-162.83,1)" />
<path
   d="M 313.319,387.967 H 265.9 v -11.33 c 3.04,-0.839 3.674,-1.996 3.674,-7.031 v -33.254 c 0,-5.036 -0.634,-6.295 -3.674,-7.031 v -11.33 h 23.397 v 11.33 c -3.045,0.737 -3.674,1.996 -3.674,7.031 v 38.504 h 4.299 c 5.25,0 6.402,-0.215 7.661,-1.474 1.049,-1.044 1.469,-2.62 1.469,-5.558 v -11.33 h 14.268 v 31.473 z"
   id="path872"
   inkscape:connector-curvature="0"
   style="fill:#213662" />
<path
   d="m 409.25,340.443 h -15.317 c 0.107,-0.737 0.107,-1.474 0.107,-1.786 0,-5.036 -2.625,-7.866 -7.241,-7.866 -5.348,0 -7.763,2.937 -7.763,9.232 v 26.017 c 0,2.723 0.21,4.196 0.839,5.558 0.942,2.201 3.674,3.674 6.817,3.674 4.933,0 7.241,-2.733 7.241,-8.71 v -3.987 h -6.294 v -11.223 h 21.611 v 31.575 c -6.504,4.406 -14.058,6.504 -23.182,6.504 -9.969,0 -17.522,-3.045 -20.879,-8.603 -1.576,-2.518 -2.201,-5.353 -2.201,-10.071 V 335.61 c 0,-5.875 0.942,-9.125 3.562,-12.169 4.304,-4.718 10.808,-6.919 20.562,-6.919 7.553,0 15.424,1.883 22.138,5.241 z"
   id="path874"
   inkscape:connector-curvature="0"
   style="fill:#213662" />
<g
   id="g884"
   transform="translate(-162.83,1)">
	<path
   d="m 459.319,460.424 c 0,2.231 0.326,2.79 1.675,3.115 v 5.025 h -10.421 v -5.025 c 1.349,-0.418 1.628,-0.884 1.628,-3.115 v -14.747 c 0,-2.231 -0.278,-2.744 -1.628,-3.115 v -5.025 h 8.746 z"
   id="path876"
   inkscape:connector-curvature="0"
   style="fill:#213662" />
	<path
   d="m 478.382,459.586 v 0.418 c 0,2.001 1.304,3.257 3.257,3.257 2.233,0 3.443,-1.397 3.443,-4.001 v -3.768 c -2.188,1.209 -3.768,1.63 -5.954,1.63 -3.164,0 -5.721,-1.164 -6.978,-3.257 -0.931,-1.488 -1.209,-2.884 -1.209,-5.954 0,-4.885 0.466,-6.653 2.141,-8.326 1.766,-1.815 4.743,-2.699 9.07,-2.699 3.628,0 6.234,0.791 8.002,2.419 1.488,1.395 2.046,3.117 2.046,6.187 v 14.886 c 0,3.255 -0.791,5.256 -2.652,6.745 -1.86,1.488 -4.094,2.093 -7.675,2.093 -3.816,0 -6.745,-0.698 -10.421,-2.419 v -7.211 z m 0.095,-12.653 c 0,2.884 1.069,4.279 3.348,4.279 1.024,0 1.953,-0.418 2.559,-1.117 0.558,-0.651 0.791,-1.58 0.791,-3.163 0,-2.699 -1.117,-4.001 -3.35,-4.001 -2.233,0 -3.348,1.351 -3.348,4.002 z"
   id="path878"
   inkscape:connector-curvature="0"
   style="fill:#213662" />
	<path
   d="m 520.806,460.935 c 0,2.977 -0.744,4.745 -2.606,6.187 -1.906,1.488 -4.232,2.093 -8,2.093 -3.395,0 -6.047,-0.744 -8,-2.279 -1.675,-1.349 -2.281,-2.839 -2.281,-5.583 v -15.91 c 0,-3.208 0.744,-5.07 2.699,-6.465 1.953,-1.442 4.372,-2.093 7.907,-2.093 3.395,0 6.047,0.744 7.908,2.233 1.768,1.442 2.373,3.07 2.373,6.325 z m -13.769,-2.001 c 0,1.675 0.185,2.373 0.837,3.024 0.606,0.604 1.535,0.977 2.512,0.977 0.931,0 1.908,-0.418 2.513,-1.164 0.604,-0.697 0.789,-1.348 0.789,-3.07 v -11.628 c 0,-1.442 -0.185,-2.141 -0.789,-2.792 -0.606,-0.698 -1.582,-1.117 -2.559,-1.117 -2.141,0 -3.303,1.442 -3.303,4.187 z"
   id="path880"
   inkscape:connector-curvature="0"
   style="fill:#213662" />
	<path
   d="m 550.248,460.191 c 0,6.092 -3.675,9.024 -11.397,9.024 -7.304,0 -10.792,-2.932 -10.792,-9.024 0,-4.327 1.349,-6.653 4.559,-7.722 -3.07,-1.349 -4.047,-3.07 -4.047,-7.118 0,-2.79 0.837,-4.838 2.512,-6.14 1.953,-1.582 4.557,-2.326 8.093,-2.326 3.303,0 6.047,0.744 8.002,2.233 1.813,1.395 2.604,3.303 2.604,6.513 0,3.814 -1.069,5.581 -4.046,6.791 3.162,1.349 4.512,3.628 4.512,7.769 z m -14.653,-1.117 c 0,2.79 1.255,4.279 3.628,4.279 2.186,0 3.488,-1.628 3.488,-4.372 0,-2.606 -1.255,-4.094 -3.488,-4.094 -2.419,10e-4 -3.628,1.396 -3.628,4.187 z m 0.325,-12.421 c 0,2.233 1.209,3.49 3.303,3.49 1.953,0 3.21,-1.442 3.21,-3.676 0,-1.953 -1.302,-3.303 -3.164,-3.303 -2.139,0.001 -3.349,1.258 -3.349,3.489 z"
   id="path882"
   inkscape:connector-curvature="0"
   style="fill:#213662" />
</g>
<g
   id="g886"
   transform="translate(-162.83,1)">
</g>
<g
   id="g888"
   transform="translate(-162.83,1)">
</g>
<g
   id="g890"
   transform="translate(-162.83,1)">
</g>
<g
   id="g892"
   transform="translate(-162.83,1)">
</g>
<g
   id="g894"
   transform="translate(-162.83,1)">
</g>
<g
   id="g896"
   transform="translate(-162.83,1)">
</g>
</svg>