<?xml version="1.0" encoding="UTF-8"?>
<svg version="1.1" xmlns="http://www.w3.org/2000/svg" width="768" height="1024">
<path d="M0 0 C3.6429494 1.72090248 7.12774545 3.64858201 10.640625 5.6171875 C15.49106501 8.31713066 20.48078146 10.69504626 25.5 13.0625 C26.40250488 13.48901855 27.30500977 13.91553711 28.23486328 14.35498047 C30.82139835 15.57396538 33.41006342 16.78826121 36 18 C36.69125977 18.32355469 37.38251953 18.64710937 38.09472656 18.98046875 C41.13401243 20.40159476 44.17544125 21.81797654 47.21875 23.23046875 C49.95716556 24.50592504 52.68369669 25.80431618 55.40625 27.11328125 C63.93013025 31.20449414 72.4968223 35.14910797 81.1875 38.875 C82.04811035 39.24415527 82.9087207 39.61331055 83.79541016 39.99365234 C88.82056273 42.12848256 93.87841111 44.10878361 99 46 C100.46101367 46.57658733 101.91976315 47.15898427 103.375 47.75 C104.23738281 48.09417969 105.09976562 48.43835937 105.98828125 48.79296875 C108.15591692 49.66170989 110.31951777 50.54054319 112.48046875 51.42578125 C138.98914688 62.13539269 166.54176591 70.14206279 194 78 C195.20672363 78.34627441 196.41344727 78.69254883 197.65673828 79.04931641 C206.36584545 81.54430612 215.08771807 83.99195974 223.81469727 86.42358398 C229.20278142 87.92737515 234.57691409 89.4630243 239.9375 91.0625 C247.57696985 93.2613142 255.33313221 94.9651734 263.08422852 96.72119141 C268.78793347 98.01573561 274.46700115 99.35597958 280.12255859 100.84643555 C302.6447111 106.75648662 325.91377144 111.01943308 349 114 C349.77859375 114.10151367 350.5571875 114.20302734 351.359375 114.30761719 C355.9034373 114.89604356 360.44990923 115.45983559 365 116 C370.90833531 144.82551471 373.78764285 174.13817159 376.125 203.4375 C376.20057129 204.36900879 376.27614258 205.30051758 376.35400391 206.26025391 C377.82877291 225.76515588 378.15256797 245.27200939 378.1328125 264.82421875 C378.13348891 267.23208119 378.13446172 269.63994357 378.13571167 272.04780579 C378.13717196 277.05214092 378.13508794 282.05645801 378.13037109 287.06079102 C378.12466551 293.41762314 378.12796881 299.7744131 378.13394356 306.13124371 C378.13758669 311.08944507 378.13639365 316.04763671 378.13381577 321.00583839 C378.13315732 323.34777647 378.13393619 325.68971547 378.13629532 328.03165245 C378.15154968 347.41400879 377.46856212 366.63424783 375.6875 385.9375 C375.62375183 386.63244568 375.56000366 387.32739136 375.49432373 388.043396 C374.13158477 402.76388954 372.21802268 417.38369912 370 432 C369.71769531 433.88283691 369.71769531 433.88283691 369.4296875 435.80371094 C366.57657641 454.67704082 363.07346824 473.35337196 359 492 C358.78875488 492.97727051 358.57750977 493.95454102 358.35986328 494.96142578 C353.98209644 515.13584043 348.94210117 535.22714612 343 555 C342.74702148 555.85158691 342.49404297 556.70317383 342.23339844 557.58056641 C334.45435533 583.69341967 325.57483715 609.30537626 315.6875 634.6875 C315.34920166 635.55827179 315.01090332 636.42904358 314.66235352 637.32620239 C311.12574682 646.40708283 307.48004043 655.37292711 303.31567383 664.1862793 C301.41154784 668.25847302 299.70649984 672.40469168 298 676.5625 C294.95587801 683.87548222 291.64138701 690.9630196 288 698 C286.65911912 700.66290562 285.33009024 703.33169206 284 706 C283.3139352 707.37116036 282.6277393 708.74225514 281.94140625 710.11328125 C280.75622703 712.48306071 279.57695258 714.85540395 278.40234375 717.23046875 C273.45451978 727.21847606 268.26497358 737.03433749 262.45703125 746.55078125 C260.93885682 749.10277955 259.52643231 751.69473021 258.125 754.3125 C253.01240207 763.77681314 247.16109868 772.81086469 241.34765625 781.85546875 C239.99049216 783.93797407 239.99049216 783.93797407 239 786 C238.34 786 237.68 786 237 786 C237 786.99 237 787.98 237 789 C236.34 789 235.68 789 235 789 C234.773125 789.66 234.54625 790.32 234.3125 791 C232.6121185 794.88658628 230.60376916 798.63679817 228 802 C227.34 802 226.68 802 226 802 C225.773125 802.67417969 225.54625 803.34835937 225.3125 804.04296875 C223.6363107 807.81938334 221.40895459 810.97093585 219 814.3125 C218.54882812 814.95767578 218.09765625 815.60285156 217.6328125 816.26757812 C216.47579063 817.88501255 215.24333423 819.44793244 214 821 C213.34 821 212.68 821 212 821 C211.75894531 821.71414063 211.51789062 822.42828125 211.26953125 823.1640625 C209.81592469 826.41119593 207.99316598 828.67020192 205.6875 831.375 C202.99901823 834.56919297 200.41088193 837.73523794 198.0625 841.1875 C197.381875 842.115625 196.70125 843.04375 196 844 C195.34 844 194.68 844 194 844 C193.773125 844.515625 193.54625 845.03125 193.3125 845.5625 C191.51782382 848.89547005 189.50034985 852.14703671 187 855 C186.34 855 185.68 855 185 855 C185 855.66 185 856.32 185 857 C184.34 857 183.68 857 183 857 C182.731875 857.57234375 182.46375 858.1446875 182.1875 858.734375 C180.95867364 861.07884634 179.57477824 863.12404938 178 865.25 C177.2265625 866.30960938 177.2265625 866.30960938 176.4375 867.390625 C175.963125 867.92171875 175.48875 868.4528125 175 869 C174.34 869 173.68 869 173 869 C173 869.66 173 870.32 173 871 C172.34 871 171.68 871 171 871 C170.76410156 871.55429687 170.52820313 872.10859375 170.28515625 872.6796875 C168.6873545 875.56447242 166.68148991 877.71172032 164.4375 880.125 C161.36280814 883.31507509 161.36280814 883.31507509 159 887 C158.34 887 157.68 887 157 887 C157 887.66 157 888.32 157 889 C156.34 889 155.68 889 155 889 C155 889.66 155 890.32 155 891 C154.34 891 153.68 891 153 891 C152.773125 891.55558594 152.54625 892.11117187 152.3125 892.68359375 C150.62302816 895.66531043 148.46497875 897.6870917 146 900.0625 C143.31789712 902.65493955 141.07210825 904.89183762 139 908 C138.34 908 137.68 908 137 908 C137 908.66 137 909.32 137 910 C136.34 910 135.68 910 135 910 C134.731875 910.598125 134.46375 911.19625 134.1875 911.8125 C133.00082594 913.99847854 131.90400887 915.41332594 130 917 C129.34 917 128.68 917 128 917 C127.70222656 917.804375 127.70222656 917.804375 127.3984375 918.625 C125.38094043 922.05136374 122.57731632 924.37282865 119.625 927 C118.47069479 928.04093595 117.31703421 929.08258722 116.1640625 930.125 C115.34470215 930.85976562 115.34470215 930.85976562 114.50878906 931.609375 C113.19791167 932.81758821 111.94809141 934.09140003 110.7109375 935.375 C109 937 109 937 107 937 C107 937.66 107 938.32 107 939 C105.6015625 940.41015625 105.6015625 940.41015625 103.625 942.0625 C100.37058933 944.82817409 97.16586167 947.63308192 94 950.5 C89.70249992 954.37565958 85.3771817 958.2145832 81 962 C80.41992188 962.50917969 79.83984375 963.01835938 79.2421875 963.54296875 C75.23319328 967 75.23319328 967 73 967 C73 967.66 73 968.32 73 969 C71.35644531 970.46948242 71.35644531 970.46948242 69.078125 972.16796875 C67.84352539 973.10068604 67.84352539 973.10068604 66.58398438 974.05224609 C65.73126953 974.69500488 64.87855469 975.33776367 64 976 C62.44959906 977.22079575 60.90263727 978.44597357 59.359375 979.67578125 C57.82291667 980.88802083 56.28645833 982.10026042 54.75 983.3125 C53.58597656 984.2415918 53.58597656 984.2415918 52.3984375 985.18945312 C51.64304687 985.78306641 50.88765625 986.37667969 50.109375 986.98828125 C49.43874023 987.51977783 48.76810547 988.05127441 48.07714844 988.59887695 C45.80880358 990.12896994 43.56670388 991.07114819 41 992 C41 992.66 41 993.32 41 994 C36.61538462 997 36.61538462 997 34 997 C34 997.66 34 998.32 34 999 C32.078125 1000.48828125 32.078125 1000.48828125 29.25 1002.3125 C28.17105469 1003.01375 27.09210938 1003.715 25.98046875 1004.4375 C25.36091309 1004.83582031 24.74135742 1005.23414063 24.10302734 1005.64453125 C21.70412624 1007.19070015 19.31472608 1008.75099354 16.92578125 1010.3125 C7.45367598 1016.49630332 7.45367598 1016.49630332 4.07080078 1018.66259766 C2.45320594 1019.70730227 0.86008462 1020.78992701 -0.72265625 1021.88671875 C-3.71525294 1023.34965195 -5.68463815 1023.26649435 -9 1023 C-11.7097168 1021.75 -11.7097168 1021.75 -14.44921875 1020 C-15.46306641 1019.35933594 -16.47691406 1018.71867188 -17.52148438 1018.05859375 C-19.08866211 1017.03958984 -19.08866211 1017.03958984 -20.6875 1016 C-21.71294922 1015.35160156 -22.73839844 1014.70320312 -23.79492188 1014.03515625 C-29.97346142 1010.09306848 -35.94849605 1005.93694651 -41.83129883 1001.56640625 C-43.90331344 999.98118978 -43.90331344 999.98118978 -46 999 C-46 998.34 -46 997.68 -46 997 C-46.78375 996.690625 -47.5675 996.38125 -48.375 996.0625 C-51 995 -51 995 -53 994 C-53 993.34 -53 992.68 -53 992 C-53.67933594 991.78472656 -54.35867188 991.56945312 -55.05859375 991.34765625 C-58.90524415 989.5852467 -61.82297536 987.12869475 -65.0625 984.4375 C-70.88105681 979.67522618 -76.79905214 975.13269767 -82.90234375 970.7421875 C-83.59457031 970.16726563 -84.28679687 969.59234375 -85 969 C-85 968.34 -85 967.68 -85 967 C-85.56847656 966.73832031 -86.13695312 966.47664062 -86.72265625 966.20703125 C-89.18238334 964.9033337 -91.24484579 963.40134237 -93.4375 961.6875 C-94.54931641 960.82705078 -94.54931641 960.82705078 -95.68359375 959.94921875 C-98 958 -98 958 -100.44140625 955.55078125 C-103.00426299 952.99575002 -105.67234876 950.75576672 -108.5 948.5 C-112.23089904 945.52366481 -115.76399416 942.51739765 -119 939 C-119 938.34 -119 937.68 -119 937 C-119.56074219 936.76796875 -120.12148438 936.5359375 -120.69921875 936.296875 C-123.58681955 934.66922905 -125.5155302 932.63740168 -127.8125 930.25 C-130.81384727 927.17306324 -133.80565861 924.23118925 -137.125 921.5 C-138.07375 920.675 -139.0225 919.85 -140 919 C-140 918.34 -140 917.68 -140 917 C-140.598125 916.731875 -141.19625 916.46375 -141.8125 916.1875 C-143.99847854 915.00082594 -145.41332594 913.90400887 -147 912 C-147 911.34 -147 910.68 -147 910 C-147.66 910 -148.32 910 -149 910 C-149 909.34 -149 908.68 -149 908 C-149.58910156 907.74863281 -150.17820313 907.49726562 -150.78515625 907.23828125 C-153.27644202 905.84544599 -154.62300414 904.3791428 -156.4375 902.1875 C-158.51905325 899.71565552 -160.59655844 897.35288472 -162.9375 895.125 C-165 893 -165 893 -165 891 C-165.66 891 -166.32 891 -167 891 C-167 890.34 -167 889.68 -167 889 C-167.66 889 -168.32 889 -169 889 C-169 888.34 -169 887.68 -169 887 C-169.66 887 -170.32 887 -171 887 C-172.55078125 885.4609375 -172.55078125 885.4609375 -174.3125 883.375 C-175.23675781 882.28445313 -175.23675781 882.28445313 -176.1796875 881.171875 C-176.78039062 880.45515625 -177.38109375 879.7384375 -178 879 C-178.51820313 878.40703125 -179.03640625 877.8140625 -179.5703125 877.203125 C-183 873.24428571 -183 873.24428571 -183 871 C-183.66 871 -184.32 871 -185 871 C-185 870.34 -185 869.68 -185 869 C-185.99 868.67 -186.98 868.34 -188 868 C-189.82421875 866.00390625 -189.82421875 866.00390625 -191.6875 863.5625 C-192.31011719 862.75941406 -192.93273437 861.95632813 -193.57421875 861.12890625 C-195 859 -195 859 -195 857 C-195.66 857 -196.32 857 -197 857 C-197 856.34 -197 855.68 -197 855 C-197.66 855 -198.32 855 -199 855 C-200.7265625 853.1015625 -200.7265625 853.1015625 -202.625 850.625 C-203.57246094 849.40683594 -203.57246094 849.40683594 -204.5390625 848.1640625 C-206 846 -206 846 -206 844 C-206.66 844 -207.32 844 -208 844 C-209.41015625 842.453125 -209.41015625 842.453125 -211.0625 840.25 C-211.97902344 839.03376953 -211.97902344 839.03376953 -212.9140625 837.79296875 C-213.60242188 836.87128906 -214.29078125 835.94960938 -215 835 C-215.81902992 833.93260838 -216.63938966 832.8662361 -217.4609375 831.80078125 C-218.28681243 830.72162506 -219.1123374 829.64220096 -219.9375 828.5625 C-220.70964844 827.55316406 -221.48179687 826.54382813 -222.27734375 825.50390625 C-224 823 -224 823 -224 821 C-224.66 821 -225.32 821 -226 821 C-227.36003823 819.3455812 -228.63901205 817.62403955 -229.875 815.875 C-230.93847656 814.37259766 -230.93847656 814.37259766 -232.0234375 812.83984375 C-232.67570313 811.90269531 -233.32796875 810.96554687 -234 810 C-234.69996094 809.01193359 -234.69996094 809.01193359 -235.4140625 808.00390625 C-238 804.27383094 -238 804.27383094 -238 802 C-238.66 802 -239.32 802 -240 802 C-241.7265625 799.6640625 -241.7265625 799.6640625 -243.625 796.625 C-244.25664062 795.62726562 -244.88828125 794.62953125 -245.5390625 793.6015625 C-247 791 -247 791 -247 789 C-247.66 789 -248.32 789 -249 789 C-250.2265625 787.26953125 -250.2265625 787.26953125 -251.625 784.8125 C-252.42357422 783.43771484 -252.42357422 783.43771484 -253.23828125 782.03515625 C-254.11033203 780.53275391 -254.11033203 780.53275391 -255 779 C-256.26336225 776.91212765 -257.53451665 774.82895495 -258.8125 772.75 C-259.48667969 771.65300781 -260.16085937 770.55601562 -260.85546875 769.42578125 C-262.30635761 767.08946784 -263.79010389 764.77855255 -265.30078125 762.48046875 C-269.51057573 756.07126423 -273.28573016 749.70984952 -276.61328125 742.78125 C-277.91485441 740.17077088 -279.33582151 737.72589033 -280.875 735.25 C-284.66002944 729.07961347 -287.77661842 722.5930677 -290.96337891 716.10107422 C-291.97915199 714.04225577 -293.008144 711.99070667 -294.04296875 709.94140625 C-300.46970359 697.21191506 -306.48282076 684.33660023 -312.12890625 671.2421875 C-313.13201324 668.93176181 -314.16775204 666.64623631 -315.24707031 664.37011719 C-320.1851808 653.93696647 -324.41665685 643.24402508 -328.625 632.5 C-329.01851654 631.4976532 -329.41203308 630.4953064 -329.81747437 629.46258545 C-337.09461649 610.86833244 -343.50991614 592.08372696 -349.37948608 573.00375366 C-350.01325083 570.95721062 -350.65792908 568.91439855 -351.3059082 566.87231445 C-353.92382365 558.61062986 -356.35185597 550.31861223 -358.5625 541.9375 C-358.8620459 540.81118164 -359.1615918 539.68486328 -359.47021484 538.52441406 C-360.05665268 536.31915352 -360.64199624 534.11360159 -361.22607422 531.90771484 C-361.8602158 529.52518292 -362.50431187 527.14614956 -363.16015625 524.76953125 C-370.10401485 499.43990938 -375.63665134 473.42183786 -379.62158203 447.46484375 C-380.07254143 444.52749791 -380.53467946 441.59197132 -380.99609375 438.65625 C-381.3521934 436.3750984 -381.7076634 434.09384841 -382.0625 431.8125 C-382.22508301 430.76747314 -382.38766602 429.72244629 -382.55517578 428.64575195 C-384.55670882 415.60931727 -386.24152516 402.57950347 -387.37768555 389.44067383 C-387.56094688 387.33038448 -387.751805 385.22087894 -387.94335938 383.11132812 C-389.67996817 363.59901044 -390.15254046 344.15838661 -390.1328125 324.57421875 C-390.13348867 322.16925548 -390.13446127 319.76429227 -390.13571167 317.35932922 C-390.1371748 312.34965354 -390.13507966 307.33999584 -390.13037109 302.33032227 C-390.12468403 295.97706253 -390.12795528 289.62384515 -390.13394356 283.27058697 C-390.13759483 278.31225783 -390.1363897 273.35393837 -390.13381577 268.3956089 C-390.13315857 266.05615038 -390.13393154 263.71669092 -390.13629532 261.37723351 C-390.15289336 240.33738105 -389.43895556 219.35799922 -387.875 198.375 C-387.81708282 197.59180389 -387.75916565 196.80860779 -387.69949341 196.00167847 C-386.49222787 180.12137236 -384.52814009 164.3478164 -382.4375 148.5625 C-382.20700958 146.81280914 -382.20700958 146.81280914 -381.97186279 145.027771 C-381.52852789 141.68550369 -381.07692446 138.34449033 -380.62109375 135.00390625 C-380.48780167 134.00965134 -380.35450958 133.01539642 -380.21717834 131.99101257 C-379.45831128 126.54379639 -378.44041971 121.30893078 -377 116 C-376.41025391 115.94054199 -375.82050781 115.88108398 -375.21289062 115.81982422 C-345.7383536 112.76316387 -316.86033587 106.55519199 -288 100 C-286.95650391 99.76394043 -285.91300781 99.52788086 -284.83789062 99.28466797 C-275.18417433 97.08784941 -265.64761988 94.68724675 -256.17480469 91.80639648 C-251.2583668 90.32480233 -246.31807539 89.07955695 -241.3125 87.9375 C-231.70323961 85.73445403 -222.29131382 83.02204834 -212.875 80.109375 C-211.19748657 79.59068848 -211.19748657 79.59068848 -209.48608398 79.06152344 C-207.273588 78.37551242 -205.06208651 77.68628201 -202.85180664 76.99316406 C-197.13441309 75.21405009 -191.40869507 73.56197767 -185.61328125 72.0546875 C-178.00589863 70.05287319 -170.57264467 67.65050391 -163.125 65.125 C-161.80045211 64.67904957 -160.4758255 64.23333289 -159.15112305 63.7878418 C-150.42890628 60.84863929 -141.71754706 57.87952644 -133.06298828 54.74609375 C-131.55720201 54.2015159 -130.05019434 53.6603119 -128.54248047 53.12109375 C-125.94281793 52.19080089 -123.34609444 51.25269917 -120.75 50.3125 C-119.95053955 50.02673096 -119.1510791 49.74096191 -118.32739258 49.4465332 C-114.24342985 47.95434128 -110.72592819 46.25959516 -107 44 C-104.50707665 43.01551589 -102.02388787 42.08254514 -99.5 41.1875 C-92.13826702 38.49958997 -85.07290683 35.38012274 -78 32 C-76.17314486 31.14680927 -74.3462586 30.29368133 -72.51806641 29.44335938 C-70.61634385 28.55847222 -68.71625667 27.67014853 -66.81640625 26.78125 C-64.30641838 25.60791553 -61.79337031 24.44157601 -59.27734375 23.28125 C-52.21710723 20.01874797 -45.23111572 16.64004499 -38.28833008 13.13452148 C-30.57547344 9.25510752 -22.76078109 5.59128055 -14.94433594 1.92626953 C-13.60567267 1.28853869 -12.28743817 0.6066894 -10.98925781 -0.10986328 C-7.24308568 -1.78616956 -3.79964167 -1.0741603 0 0 Z " fill="#FBFBFC" transform="translate(390,1)"/>
<path d="M0 0 C5.90509088 -0.10181191 11.14724377 1.58763096 16.75390625 3.29296875 C25.54587819 5.91834223 34.39577182 8.21567223 43.3125 10.375 C44.09836487 10.56598267 44.88422974 10.75696533 45.69390869 10.95373535 C68.95893961 16.58270047 92.44160903 21.02878427 116.0625 24.875 C117.31015137 25.07834961 118.55780273 25.28169922 119.84326172 25.49121094 C126.20826908 26.49671655 132.44278052 27.26403583 138.88842773 27.46533203 C141 28 141 28 142.22314453 29.62402344 C143.20078392 32.61408833 143.71189233 35.52038585 144.18359375 38.6328125 C144.28372269 39.29007828 144.38385162 39.94734406 144.48701477 40.62452698 C144.81267774 42.79014549 145.12603692 44.95729643 145.4375 47.125 C145.5463855 47.86755035 145.655271 48.61010071 145.76745605 49.37515259 C147.68906789 62.5516428 149.03701952 75.74679452 150.09936523 89.01806641 C150.15424606 89.70343979 150.20912689 90.38881317 150.26567078 91.09495544 C150.41109284 92.93759803 150.55098304 94.78067488 150.69042969 96.6237793 C150.89666948 98.87306172 151.1676104 101.11734842 151.50268555 103.35107422 C152.09167539 107.67264624 152.33746885 111.95416076 152.53515625 116.30859375 C152.5784053 117.23323425 152.62165436 118.15787476 152.66621399 119.11053467 C155.8348396 189.39798551 156.78198305 261.41673161 145 331 C144.85953247 331.83466797 144.71906494 332.66933594 144.57434082 333.52929688 C142.82674782 343.89019675 141.01204966 354.23793573 139.13389587 364.57592773 C138.31603823 369.11377878 137.58588854 373.65582375 136.91796875 378.21875 C136.25733049 382.62438142 135.2931048 386.73040305 134 391 C132.8965388 395.57378899 131.8619955 400.16356457 130.8125 404.75 C128.41652249 415.13754078 125.9181981 425.49095676 123.25 435.8125 C122.82811401 437.45460449 122.82811401 437.45460449 122.39770508 439.12988281 C120.81934541 445.17626508 119.02963787 451.09171516 117 457 C116.40821452 458.89321202 115.82419104 460.78887775 115.25 462.6875 C110.63455791 477.74472173 105.82952571 492.71570209 100.5625 507.55859375 C99.2544631 511.2503558 98.01854986 514.96099437 96.8125 518.6875 C95.46816894 522.77176005 93.87616224 526.62323306 92.06640625 530.51953125 C90.72016365 533.65090141 89.61874924 536.84310234 88.5 540.0625 C86.66577104 545.29992915 84.58450643 550.09834987 82 555 C81.30959426 556.65697379 80.63028587 558.31923769 80 560 C73.59730918 558.70025376 67.62821024 556.93183859 61.5 554.6875 C53.20657972 551.72184398 44.8787166 549.09261474 36.40820312 546.6875 C32.64364285 545.61278368 28.8866705 544.51226552 25.12890625 543.4140625 C23.03816949 542.80328547 20.94702085 542.19391662 18.85546875 541.5859375 C14.45470994 540.30632369 10.05551201 539.02473913 5.671875 537.6875 C-14.46299915 531.56705466 -35.00028197 526.85513743 -55.58251953 522.51391602 C-60.64733865 521.43721997 -65.69880836 520.31168712 -70.734375 519.10546875 C-83.66758743 516.09789682 -96.77002445 514.43486755 -109.92675781 512.75073242 C-110.71173141 512.64932449 -111.49670502 512.54791656 -112.3054657 512.44343567 C-113.77363062 512.25448717 -115.24220007 512.0686402 -116.71125793 511.88676453 C-120.47921801 511.4031556 -124.16632696 510.77207619 -127.88232422 509.97924805 C-133.00818156 508.92772405 -138.06800926 508.49192747 -143.28515625 508.18359375 C-144.22628769 508.12220718 -145.16741913 508.06082062 -146.1370697 507.99757385 C-149.11184987 507.80457937 -152.08709447 507.62057583 -155.0625 507.4375 C-158.0413458 507.24922244 -161.02005238 507.05900264 -163.99864197 506.86671448 C-165.84170228 506.74825156 -167.68492702 506.63230835 -169.52833557 506.51939392 C-173.47191833 506.27043622 -177.38039542 505.96934846 -181.30078125 505.47216797 C-187.2997448 504.77846666 -193.3072456 504.79911574 -199.33984375 504.76171875 C-200.63590546 504.75224213 -201.93196716 504.7427655 -203.26730347 504.73300171 C-207.49068894 504.70625713 -211.71404509 504.69608638 -215.9375 504.6875 C-216.6548016 504.68531841 -217.3721032 504.68313683 -218.1111412 504.68088913 C-240.92018899 504.6144058 -263.44338855 505.48742445 -286.16577148 507.66479492 C-287.14861115 507.75846344 -288.13145081 507.85213196 -289.14407349 507.94863892 C-290.9580273 508.12534075 -292.7712572 508.30972411 -294.58346558 508.50350952 C-295.37681305 508.58364288 -296.17016052 508.66377625 -296.98754883 508.74633789 C-297.6708577 508.81961807 -298.35416656 508.89289825 -299.05818176 508.96839905 C-301.19943049 509.00324551 -302.9531481 508.60362642 -305 508 C-304.66379639 507.30253662 -304.32759277 506.60507324 -303.98120117 505.88647461 C-302.38294665 502.57032029 -300.78522569 499.25390914 -299.1875 495.9375 C-298.65962891 494.84244141 -298.13175781 493.74738281 -297.58789062 492.61914062 C-294.87550706 486.9881689 -292.16799023 481.35502016 -289.47631836 475.71411133 C-283.11339419 462.38056959 -276.68509124 449.08093055 -270.1875 435.8125 C-269.70254059 434.82173462 -269.21758118 433.83096924 -268.71792603 432.81018066 C-261.26667047 417.59405663 -253.75647835 402.40789892 -246.1875 387.25 C-245.74377045 386.3599527 -245.30004089 385.4699054 -244.84286499 384.55288696 C-233.07665453 360.96587474 -233.07665453 360.96587474 -227.29524231 350.51205444 C-225.90466835 347.90542373 -225.90466835 347.90542373 -224.64457703 344.68447876 C-220.76750226 335.94691626 -220.76750226 335.94691626 -215.99345398 333.38928223 C-212.26386845 332.30257251 -208.5601526 331.58763062 -204.73046875 330.9921875 C-203.32536675 330.73135694 -201.9211793 330.46555658 -200.51789856 330.19509888 C-196.83191356 329.49855819 -193.13746471 328.87022288 -189.43701172 328.25592041 C-185.73229913 327.62858399 -182.03983339 326.93643802 -178.34570312 326.25 C-166.0689911 323.9881778 -153.75630028 321.93585129 -141.43719482 319.91894531 C-136.23264714 319.06055665 -131.08235734 318.03479652 -125.9375 316.875 C-120.57574009 315.66710568 -115.32998834 314.73216551 -109.84985352 314.25048828 C-107.90896894 314.0891304 -107.90896894 314.0891304 -106 313 C-102.48197043 312.28649881 -98.92312341 311.79104868 -95.375 311.25 C-93.68745605 310.99210693 -93.68745605 310.99210693 -91.96582031 310.72900391 C-56.4181171 305.41809207 -20.87046831 302.03237669 15 300 C11.79806097 299.18102992 8.58762005 298.40091095 5.375 297.625 C4.51003906 297.40328125 3.64507813 297.1815625 2.75390625 296.953125 C-15.10225966 292.70760304 -33.67811906 292.67065502 -51.93041992 292.73925781 C-55.29950076 292.74995871 -58.66804471 292.73929721 -62.03710938 292.7265625 C-83.82070279 292.71041116 -105.28241155 294.4242725 -126.8125 297.6875 C-128.09640625 297.87866898 -128.09640625 297.87866898 -129.40625 298.07369995 C-142.15269569 299.97761241 -154.8429523 302.13514653 -167.5 304.5625 C-168.21805817 304.69812347 -168.93611633 304.83374695 -169.67593384 304.97348022 C-178.40283761 306.63529734 -186.88749471 308.69453907 -195.3560791 311.39686584 C-199.0112829 312.5389926 -202.16276501 313.27216082 -206 313 C-203.93853326 307.66534216 -201.33588486 302.68753011 -198.6875 297.625 C-198.15552002 296.60768799 -197.62354004 295.59037598 -197.07543945 294.54223633 C-191.83832931 284.59272285 -186.34489433 274.79916872 -180.74902344 265.04785156 C-178.8928807 261.8133337 -177.04423325 258.57458827 -175.1953125 255.3359375 C-172.05738124 249.84919386 -168.88605338 244.38281531 -165.69677734 238.92578125 C-164.15417874 236.26585295 -162.64565685 233.58970656 -161.14453125 230.90625 C-160.3061392 229.45749227 -159.4664154 228.00950391 -158.625 226.5625 C-158.28122314 225.92449463 -157.93744629 225.28648926 -157.58325195 224.62915039 C-154.92611171 220.17531864 -152.22806599 218.93118336 -147.45751953 217.6159668 C-146.64653809 217.41269775 -145.83555664 217.20942871 -145 217 C-143.37621765 216.52818338 -141.75382325 216.05156524 -140.1328125 215.5703125 C-139.31594971 215.33521973 -138.49908691 215.10012695 -137.6574707 214.85791016 C-129.4170052 212.4730767 -121.69584805 209.82138662 -114 206 C-112.65157981 205.38138957 -111.30113837 204.76717487 -109.94921875 204.15625 C-86.22851739 193.37961289 -62.3561736 177.93482142 -52 153 C-50.10743079 146.92194119 -49.87191155 139.70169167 -52.4375 133.8125 C-58.47273662 123.63584239 -68.25628522 119.51236829 -79 116 C-80.65873301 115.62919857 -82.32328007 115.27838671 -84 115 C-82.37297221 109.9192813 -79.32262884 106.04732153 -76.1875 101.8125 C-75.00243142 100.19283472 -73.81754044 98.57303947 -72.6328125 96.953125 C-71.72450684 95.7165918 -71.72450684 95.7165918 -70.79785156 94.45507812 C-68.56547424 91.40662805 -66.3579084 88.34082461 -64.15234375 85.27294922 C-52.86856899 69.58448228 -41.35290755 54.08454149 -29.61328125 38.734375 C-26.84317716 35.11100212 -24.09859743 31.47091287 -21.375 27.8125 C-15.85896542 20.42571725 -10.16121518 13.17825952 -4.48291016 5.91601562 C-2.94787522 3.98538691 -2.94787522 3.98538691 -1.53662109 1.75976562 C-0.77599365 0.88868164 -0.77599365 0.88868164 0 0 Z " fill="#264C91" transform="translate(603,99)"/>
<path d="M0 0 C1.85632553 0.00007553 1.85632553 0.00007553 3.75015259 0.00015259 C28.38400592 0.04673804 52.87402036 1.60143521 77.328125 4.55981445 C79.97564404 4.87960741 82.62435825 5.1875656 85.2734375 5.49414062 C96.83763441 6.85101879 108.32886035 8.51867776 119.8125 10.4375 C120.86345352 10.60912155 120.86345352 10.60912155 121.93563843 10.78421021 C133.35553938 12.65401052 144.62697155 15.07773352 155.9050293 17.66162109 C158.74193797 18.31065555 161.58078146 18.95065144 164.41992188 19.58984375 C175.9852383 22.21239037 187.42689665 25.12166707 198.8125 28.4375 C199.58385284 28.66181702 200.35520569 28.88613403 201.14993286 29.11724854 C205.93274942 30.51219336 210.70994001 31.92544397 215.48413086 33.34960938 C217.90474155 34.0713681 220.32634313 34.78973082 222.74804688 35.5078125 C229.52762609 37.52307049 236.29438916 39.54254315 242.98852539 41.82910156 C245.96352044 42.82143026 248.97990836 43.65710437 252 44.5 C256.31390285 45.70556881 260.57325389 46.99010945 264.8125 48.4375 C248.00822817 92.47308458 212.19194614 134.03123918 181.88745117 169.6105957 C179.07119425 172.92335046 176.33207607 176.28431866 173.625 179.6875 C168.92353829 185.47718431 163.80807661 190.85679048 158.65942383 196.24902344 C158.00611084 196.93383789 157.35279785 197.61865234 156.6796875 198.32421875 C156.10331543 198.92451904 155.52694336 199.52481934 154.93310547 200.14331055 C153.12334515 202.10121036 151.38182698 204.09410613 149.64282227 206.11425781 C145.51216742 210.8505162 141.10799843 215.28587856 136.66015625 219.72265625 C135.37171059 221.012537 135.37171059 221.012537 134.05723572 222.32847595 C132.25072985 224.13565861 130.44297538 225.94159392 128.6340332 227.74633789 C125.8831319 230.49188393 123.13760779 233.24272546 120.39257812 235.99414062 C118.62792468 237.7581332 116.86296103 239.5218155 115.09765625 241.28515625 C114.28595474 242.09888199 113.47425323 242.91260773 112.63795471 243.75099182 C108.38657271 247.98514068 104.06328138 252.07026036 99.50958252 255.97853088 C97.12012131 258.03273277 94.81440638 260.17446363 92.5 262.3125 C87.61913191 266.75936477 82.58874476 270.96178901 77.44970703 275.10498047 C75.58861932 276.61971604 73.74492794 278.15421785 71.90234375 279.69140625 C62.42338929 287.58852105 52.76300268 295.14522002 42.8125 302.4375 C42.13171387 302.94071777 41.45092773 303.44393555 40.74951172 303.96240234 C35.48287435 307.853215 30.16459549 311.66523392 24.8125 315.4375 C23.80364746 316.15212402 22.79479492 316.86674805 21.75537109 317.60302734 C18.51816774 319.88217834 15.26217089 322.13176622 12 324.375 C10.96746094 325.10428711 9.93492187 325.83357422 8.87109375 326.58496094 C7.8965625 327.24657227 6.92203125 327.90818359 5.91796875 328.58984375 C5.05324951 329.18788818 4.18853027 329.78593262 3.29760742 330.40209961 C0.8125 331.4375 0.8125 331.4375 -1.82202148 330.72436523 C-17.85824713 322.00035395 -32.70807616 310.49379918 -47.1875 299.4375 C-48.198125 298.67179687 -49.20875 297.90609375 -50.25 297.1171875 C-67.51648515 283.98665887 -84.17925568 270.0750078 -100.1875 255.4375 C-100.68604492 254.98407227 -101.18458984 254.53064453 -101.69824219 254.06347656 C-108.54250085 247.83499314 -115.19830654 241.476209 -121.69921875 234.890625 C-123.83919308 232.78088578 -126.01790802 230.81205201 -128.3125 228.875 C-132.11266929 225.62758261 -135.3314392 221.99894001 -138.62890625 218.25 C-141.58971957 214.99536551 -144.68256783 211.90321332 -147.8125 208.8125 C-151.87962933 204.78720998 -155.82574171 200.73351036 -159.53515625 196.37109375 C-161.43848546 194.14379361 -163.40406131 191.98018123 -165.375 189.8125 C-174.27596318 179.94107406 -182.84029435 169.78016558 -191.1875 159.4375 C-191.6196582 158.90640625 -192.05181641 158.3753125 -192.49707031 157.828125 C-215.71991092 129.28645198 -236.61754172 99.20019124 -255.1875 67.4375 C-255.87779297 66.25873291 -255.87779297 66.25873291 -256.58203125 65.05615234 C-257.8768647 62.83450546 -259.16005449 60.60668192 -260.4375 58.375 C-261.01226074 57.3835498 -261.01226074 57.3835498 -261.59863281 56.37207031 C-263.21524211 53.51005067 -264.1875 51.78125171 -264.1875 48.4375 C-260.12635148 47.01693926 -256.0633336 45.60179724 -252 44.1875 C-250.86884766 43.79175781 -249.73769531 43.39601563 -248.57226562 42.98828125 C-240.82633491 40.29596345 -233.04156169 37.79476646 -225.1875 35.4375 C-224.23641357 35.15003906 -223.28532715 34.86257813 -222.30541992 34.56640625 C-208.24249338 30.33880271 -194.10685539 26.55618697 -179.83935547 23.08544922 C-176.86573196 22.35887982 -173.89701213 21.61435327 -170.92993164 20.86157227 C-168.35927458 20.21408568 -165.7863721 19.57581293 -163.2129364 18.93946838 C-161.27311413 18.45871794 -159.33452419 17.97300323 -157.39599609 17.48706055 C-146.75369143 14.8674355 -136.08338184 13.00357631 -125.25 11.375 C-122.85090072 11.00817643 -120.45210644 10.6394172 -118.0533905 10.27009583 C-116.45394635 10.02432009 -114.85426312 9.7800953 -113.25434875 9.53739929 C-109.45435285 8.95783258 -105.66210212 8.35523583 -101.87768555 7.6809082 C-88.94088247 5.3825214 -75.95616914 3.95515763 -62.875 2.75 C-61.08659195 2.58466263 -61.08659195 2.58466263 -59.26205444 2.41598511 C-39.48095509 0.63915756 -19.84670803 -0.03182229 0 0 Z " fill="#BE092F" transform="translate(384.1875,679.5625)"/>
<path d="M0 0 C0.74759079 0.37591782 1.49518158 0.75183563 2.26542664 1.1391449 C4.64207748 2.33583668 7.01440825 3.54082441 9.38671875 4.74609375 C11.00167479 5.56109863 12.61690627 6.37555797 14.23242188 7.18945312 C18.18290627 9.18119417 22.12953844 11.18038384 26.07421875 13.18359375 C22.62687264 15.90936984 19.35007194 17.19519321 15.19921875 18.49609375 C-26.92696846 32.60895647 -66.31692995 58.13048588 -101.92578125 84.18359375 C-102.55693848 84.6420166 -103.1880957 85.10043945 -103.83837891 85.57275391 C-113.98620534 92.96049155 -123.55894548 100.83230561 -132.92578125 109.18359375 C-133.87582031 110.02148438 -134.82585937 110.859375 -135.8046875 111.72265625 C-141.03266205 116.36797104 -146.03139763 121.18955073 -150.92578125 126.18359375 C-155.92578125 131.18359375 -155.92578125 131.18359375 -157.7734375 132.890625 C-165.4768309 140.20255739 -171.71813423 148.60338002 -177.92578125 157.18359375 C-178.5604834 158.05927002 -178.5604834 158.05927002 -179.20800781 158.95263672 C-191.24021424 175.84924902 -199.17116953 195.08093623 -203.92578125 215.18359375 C-204.13460937 216.00601563 -204.3434375 216.8284375 -204.55859375 217.67578125 C-207.0669749 234.80749083 -204.61955925 251.6783055 -194.92578125 266.18359375 C-189.42619387 273.42545041 -183.01992887 279.15100031 -175.5546875 284.34375 C-164.07329902 292.37901594 -154.82227647 303.89279147 -152.20703125 318.01660156 C-150.17826054 333.6479981 -151.78906155 349.07326069 -155.92578125 364.18359375 C-156.12365234 364.93640625 -156.32152344 365.68921875 -156.52539062 366.46484375 C-158.60249289 374.31615587 -160.9489039 381.90849854 -164.5078125 389.234375 C-165.58236807 391.46933218 -166.58999836 393.69766511 -167.5625 395.9765625 C-177.44812507 419.06707361 -189.86160511 440.76706696 -202.92578125 462.18359375 C-203.57901367 463.25625488 -204.23224609 464.32891602 -204.90527344 465.43408203 C-219.02631933 488.53899813 -234.54250137 510.40919951 -251.92578125 531.18359375 C-252.75207031 532.18390625 -253.57835937 533.18421875 -254.4296875 534.21484375 C-260.03277208 540.95692617 -265.86325414 547.44237934 -271.89135742 553.80761719 C-274.68496235 556.76042624 -277.41959195 559.73947142 -280.06420898 562.8269043 C-284.20960675 567.57559069 -288.61746014 572.0371289 -293.0703125 576.49609375 C-293.92131027 577.35041992 -294.77230804 578.20474609 -295.64909363 579.08496094 C-297.43361754 580.87451572 -299.21946988 582.66274671 -301.0065918 584.44970703 C-303.75271787 587.19804198 -306.49072295 589.954304 -309.22851562 592.7109375 C-310.96695906 594.45231109 -312.70587438 596.19321374 -314.4453125 597.93359375 C-315.26610794 598.76157471 -316.08690338 599.58955566 -316.93257141 600.44262695 C-317.69063583 601.19761475 -318.44870026 601.95260254 -319.22973633 602.73046875 C-319.89701248 603.39916992 -320.56428864 604.06787109 -321.25178528 604.75683594 C-322.92578125 606.18359375 -322.92578125 606.18359375 -324.92578125 606.18359375 C-325.32410156 604.96542969 -325.72242188 603.74726562 -326.1328125 602.4921875 C-326.66780581 600.86843589 -327.20297121 599.24474097 -327.73828125 597.62109375 C-327.99931641 596.82123047 -328.26035156 596.02136719 -328.52929688 595.19726562 C-328.79033203 594.40771484 -329.05136719 593.61816406 -329.3203125 592.8046875 C-329.55596924 592.08724365 -329.79162598 591.3697998 -330.03442383 590.63061523 C-330.73030377 588.72023324 -331.51764686 586.84310199 -332.33886719 584.9831543 C-334.20388282 580.68095432 -335.5572702 576.25094648 -336.921875 571.76953125 C-337.19669205 570.87803375 -337.47150909 569.98653625 -337.75465393 569.06802368 C-338.62779788 566.2326397 -339.49563359 563.39566386 -340.36328125 560.55859375 C-340.94170481 558.67697494 -341.52047785 556.79546353 -342.09960938 554.9140625 C-343.21719239 551.28207241 -344.33120303 547.64901592 -345.44262695 544.01513672 C-346.30825526 541.18763407 -347.18356651 538.36424217 -348.07104492 535.54345703 C-350.79758965 526.87109005 -353.113714 518.11402903 -355.36328125 509.30859375 C-355.55898712 508.54612335 -355.75469299 507.78365295 -355.95632935 506.99807739 C-359.25573786 494.12390817 -362.28648691 481.21074208 -364.92578125 468.18359375 C-365.0865918 467.39871582 -365.24740234 466.61383789 -365.41308594 465.80517578 C-373.20578829 427.40489896 -378.21011769 388.75249836 -381.61328125 349.74609375 C-381.67403839 349.06008087 -381.73479553 348.37406799 -381.7973938 347.66726685 C-383.41301921 329.25413818 -384.08824876 310.83905934 -384.12890625 292.359375 C-384.13173363 291.46019033 -384.134561 290.56100567 -384.13747406 289.63457298 C-384.15230827 284.85932521 -384.16163212 280.08410633 -384.16601562 275.30883789 C-384.17035842 271.47117386 -384.18410939 267.63373997 -384.20703125 263.79614258 C-384.36272178 237.1556015 -383.37898859 210.82009491 -381.10354614 184.27563095 C-380.85337563 181.33148367 -380.61917267 178.38611267 -380.38476562 175.44067383 C-379.97924157 170.43430909 -379.53000931 165.43340073 -379.05078125 160.43359375 C-378.97162476 159.59242004 -378.89246826 158.75124634 -378.81091309 157.88458252 C-377.28389903 141.83972339 -374.92617503 126.01900536 -371.92578125 110.18359375 C-370.76046875 110.085625 -369.59515625 109.98765625 -368.39453125 109.88671875 C-345.93848192 107.8881955 -324.04785178 103.52611297 -302.08491516 98.56848145 C-298.05012504 97.65781828 -294.01252739 96.76214975 -289.97071838 95.88316345 C-272.93106893 92.17660669 -256.11690474 87.93389535 -239.34667969 83.15673828 C-234.99704947 81.919397 -230.64147248 80.70393229 -226.28540039 79.48950195 C-223.18631447 78.62403531 -220.08922407 77.75167399 -216.9921875 76.87890625 C-213.02737182 75.76457436 -209.05671222 74.67734525 -205.078125 73.61328125 C-158.96726961 61.18214155 -114.25190256 43.83229335 -71.02441406 23.62548828 C-67.65173561 22.05607141 -64.26997054 20.50742253 -60.88671875 18.9609375 C-48.71407371 13.38109316 -36.66180789 7.67378616 -24.87890625 1.3046875 C-24.22470703 0.95519043 -23.57050781 0.60569336 -22.89648438 0.24560547 C-21.52723416 -0.49228334 -20.16706598 -1.24717545 -18.81445312 -2.01513672 C-18.12416016 -2.3917041 -17.43386719 -2.76827148 -16.72265625 -3.15625 C-15.80758301 -3.67046509 -15.80758301 -3.67046509 -14.87402344 -4.19506836 C-9.65713543 -5.85885031 -4.54067243 -2.31930328 0 0 Z " fill="#254C91" transform="translate(394.92578125,16.81640625)"/>
<path d="M0 0 C2.26079301 0.92380532 4.49039528 1.92600266 6.69140625 2.984375 C7.31796616 3.28184631 7.94452606 3.57931763 8.59007263 3.88580322 C10.58434357 4.83347689 12.573738 5.79082582 14.5625 6.75 C23.01301487 10.81127658 31.40790258 14.69292074 40.22290039 17.9230957 C42.8731649 18.95081586 45.35606695 20.12424793 47.875 21.4375 C58.17462829 26.75343718 69.28719604 30.52049877 80.13671875 34.5546875 C84.72313819 36.26301726 89.28270662 38.03939115 93.83984375 39.82421875 C116.10085742 48.1067467 139.21866969 54.33085408 162 61 C160.49659978 64.52301749 158.46395953 66.77334485 155.75317383 69.45800781 C154.87498489 70.33281799 153.99679596 71.20762817 153.09199524 72.10894775 C152.13036566 73.05703228 151.16871034 74.00509069 150.20703125 74.953125 C149.21723715 75.93664029 148.22796203 76.92067811 147.23918152 77.9052124 C144.63380428 80.49729697 142.02292934 83.08376597 139.41040039 85.66864014 C135.24622327 89.78971214 131.08859785 93.91736256 126.93445396 98.04854584 C125.49297793 99.47992998 124.048064 100.90777159 122.60273743 102.33526611 C118.02502264 106.87953756 113.58190548 111.4657463 109.39860535 116.37750244 C107.5403414 118.53324188 105.54197781 120.51897675 103.5 122.5 C100.15066271 125.80986698 97.00074044 129.20746949 93.9375 132.78125 C92.01397223 134.98399955 90.03894886 137.133137 88.04980469 139.27661133 C83.22059449 144.48232781 78.63808397 149.81328962 74.18359375 155.34765625 C72.00602932 157.99267637 69.74681237 160.53212525 67.4375 163.0625 C63.64234186 167.22385761 60.10110975 171.5355528 56.62890625 175.96875 C53.81131317 179.48229533 52.46593582 180.28062699 48.0390625 180.859375 C47.02038086 181.00205811 46.00169922 181.14474121 44.95214844 181.29174805 C43.85418945 181.44297119 42.75623047 181.59419434 41.625 181.75 C5.19467474 187.23326834 -36.91357718 204.30663956 -60.140625 234.26953125 C-65.73643122 242.48690216 -70.1025755 250.92152821 -69 261 C-66.71294846 269.58624491 -62.51281163 276.14981636 -54.8125 280.6875 C-44.70342413 285.80090942 -35.17533995 287.85381129 -24 289 C-24.6617073 292.34850862 -25.93112119 294.89109209 -27.6328125 297.83984375 C-28.18396729 298.8050293 -28.73512207 299.77021484 -29.30297852 300.76464844 C-29.90424561 301.81168945 -30.5055127 302.85873047 -31.125 303.9375 C-41.93515065 323.04199457 -52.11904478 342.41228089 -61.125 362.4375 C-61.90532593 364.16758301 -61.90532593 364.16758301 -62.70141602 365.93261719 C-65.7515444 372.82543878 -68.35592529 379.73561075 -70.62451172 386.92602539 C-72.62600061 391.39900136 -75.31256727 394.19726415 -79.734375 396.30078125 C-80.72953125 396.63464844 -81.7246875 396.96851563 -82.75 397.3125 C-96.01194361 402.09696669 -108.54609939 408.69841615 -121.11376953 415.04882812 C-124.40463099 416.70831508 -127.70277155 418.35320745 -131 420 C-126.82219704 419.34884858 -122.64544708 418.69137828 -118.46948242 418.02856445 C-117.05502876 417.80490947 -115.64032199 417.58284812 -114.2253418 417.36254883 C-105.94360211 416.07192628 -97.79971266 414.60407965 -89.66088867 412.56176758 C-87 412 -87 412 -83 412 C-83.67729984 416.26537634 -85.10053291 419.95412201 -86.75 423.9375 C-89.2310668 429.99661264 -91.50180501 436.09866293 -93.62890625 442.29296875 C-94.77435343 445.38991853 -96.01401902 448.3958032 -97.3125 451.4296875 C-100.40813642 458.80507417 -102.93613416 466.34666123 -105.4375 473.9375 C-105.67811157 474.66398743 -105.91872314 475.39047485 -106.16662598 476.13897705 C-110.09395538 488.00979383 -113.7855906 499.91417757 -117 512 C-117.25668457 512.9580957 -117.51336914 513.91619141 -117.77783203 514.90332031 C-123.1880712 535.18446704 -128.08376192 555.59484248 -133 576 C-133.5669458 576.07516846 -134.1338916 576.15033691 -134.71801758 576.2277832 C-147.84253119 577.97481324 -160.93687876 579.8398186 -174 582 C-175.30066406 582.21269531 -176.60132813 582.42539062 -177.94140625 582.64453125 C-206.99846359 587.57874853 -236.06960338 593.79064304 -264.22265625 602.55078125 C-268.3515056 603.82675467 -272.5088227 604.94936055 -276.6887207 606.04467773 C-291.69709754 609.98534852 -306.32082869 614.99616459 -321 620 C-323.78332703 620.94787674 -326.56688836 621.89491154 -329.35253906 622.8359375 C-330.85732354 623.34445522 -332.36070285 623.85715976 -333.86230469 624.375 C-336.71577925 625.34083509 -338.96248268 626 -342 626 C-343.18656448 623.15224525 -344.37189467 620.30407134 -345.55078125 617.453125 C-346.50367104 615.1826275 -347.47967954 612.92167027 -348.48046875 610.671875 C-348.94066406 609.62515625 -349.40085937 608.5784375 -349.875 607.5 C-350.30554688 606.5409375 -350.73609375 605.581875 -351.1796875 604.59375 C-352.09242553 601.70775927 -352.07964034 600.77066347 -351 598 C-349.36450195 596.51123047 -349.36450195 596.51123047 -347.23828125 595.1171875 C-346.45606201 594.59495605 -345.67384277 594.07272461 -344.86791992 593.53466797 C-344.02463135 592.98697754 -343.18134277 592.43928711 -342.3125 591.875 C-340.56440302 590.70938416 -338.81701194 589.54270903 -337.0703125 588.375 C-336.20567383 587.80136719 -335.34103516 587.22773437 -334.45019531 586.63671875 C-310.86786587 570.88383547 -289.38551636 552.40217738 -269.27731323 532.45254517 C-267.8555947 531.04273377 -266.42993212 529.63690321 -265.00415039 528.23120117 C-258.89713825 522.13182212 -253.37748637 515.74529337 -248 509 C-247.13650347 507.97254096 -246.26810986 506.94913236 -245.390625 505.93359375 C-228.886898 486.68928434 -215.32153787 465.09629226 -203 443 C-202.36795654 441.86788086 -202.36795654 441.86788086 -201.72314453 440.71289062 C-195.2304177 428.97984112 -189.73887689 416.89746931 -184.4453125 404.58203125 C-183.00860234 401.24943312 -181.52042261 397.97842657 -179.86328125 394.75 C-177.94481404 390.99662419 -176.4746016 387.15483308 -175.0625 383.1875 C-173.44940577 378.66072558 -171.68648983 374.31128168 -169.60546875 369.9765625 C-166.66804543 363.59955924 -164.72981306 356.993486 -162.83251953 350.25512695 C-162.24523442 348.17058477 -161.64513764 346.09005192 -161.04296875 344.00976562 C-158.09438971 333.72122912 -156.7748917 324.57174396 -156.6875 313.875 C-156.65849609 312.71484375 -156.62949219 311.5546875 -156.59960938 310.359375 C-156.48306952 294.33066313 -162.83011956 280.78329727 -174 269.4375 C-179.16145618 264.34778315 -184.76270685 260.12944408 -190.67138672 255.95507812 C-202.81471491 247.256328 -210.46693933 235.80866236 -213 221 C-214.63470795 204.25421129 -208.93095108 190.27571195 -201 176 C-200.64776367 175.36030273 -200.29552734 174.72060547 -199.93261719 174.06152344 C-194.49858345 164.30417047 -188.13748235 155.5727634 -181 147 C-180.53754883 146.43990234 -180.07509766 145.87980469 -179.59863281 145.30273438 C-166.83123346 129.89656146 -153.09626901 114.71498172 -137.8984375 101.6796875 C-136.02029247 100.01795424 -134.25694484 98.28874475 -132.5 96.5 C-129.55399785 93.50765625 -126.47016993 90.74675828 -123.2890625 88.0078125 C-121.0647864 86.0568263 -118.8892359 84.05920265 -116.72070312 82.04663086 C-111.64665803 77.34182758 -106.47742143 72.83011208 -101.08203125 68.4921875 C-98.76835882 66.62130916 -96.47813421 64.73268121 -94.19921875 62.8203125 C-84.51863882 54.71724062 -74.57267936 47.08883609 -64.34228516 39.69384766 C-62.09200469 38.06653414 -59.84801418 36.43091869 -57.60546875 34.79296875 C-46.40822074 26.63511743 -35.06156492 18.69552402 -23.65136719 10.83886719 C-21.22363364 9.15510208 -18.81629867 7.44640579 -16.4140625 5.7265625 C-15.08885682 4.79642583 -13.76336084 3.86670254 -12.4375 2.9375 C-11.86104736 2.51380127 -11.28459473 2.09010254 -10.69067383 1.65356445 C-6.66427331 -1.12486271 -4.66186675 -1.12966857 0 0 Z " fill="#254C91" transform="translate(427,33)"/>
<path d="M0 0 C1.30259766 -0.01611328 2.60519531 -0.03222656 3.94726562 -0.04882812 C16.81852136 -0.05523492 29.11338194 1.2555793 39.5625 9.3125 C40.20445312 9.80363281 40.84640625 10.29476562 41.5078125 10.80078125 C45.23747099 14.29625188 46.034632 17.43796999 46.3125 22.5 C45.69803398 34.40698605 39.00025774 43.37409363 30.5625 51.3125 C20.35169984 60.36928984 8.53465019 66.87597906 -3.4375 73.3125 C-4.11208252 73.67577393 -4.78666504 74.03904785 -5.48168945 74.41333008 C-21.61865599 82.80292165 -39.68850626 86.97943932 -57.4375 90.3125 C-58.62730469 90.55871094 -59.81710937 90.80492187 -61.04296875 91.05859375 C-69.03455059 92.49807122 -77.02250501 92.51187302 -85.125 92.5625 C-86.83671387 92.5766394 -86.83671387 92.5766394 -88.58300781 92.59106445 C-101.07717181 92.54303786 -113.78101059 91.18296198 -123.4921875 82.46875 C-128.11396451 77.24990132 -128.73881465 72.96754464 -128.6484375 66.08984375 C-128.09888529 58.85407301 -123.78654835 53.76878639 -119.4375 48.3125 C-118.695 47.3225 -117.9525 46.3325 -117.1875 45.3125 C-116.61 44.6525 -116.0325 43.9925 -115.4375 43.3125 C-114.7775 43.3125 -114.1175 43.3125 -113.4375 43.3125 C-113.4375 42.6525 -113.4375 41.9925 -113.4375 41.3125 C-83.85745618 14.56185168 -39.37582982 -0.09712834 0 0 Z " fill="#BE092F" transform="translate(496.4375,220.6875)"/>
<path d="M0 0 C1.266505 3.73112663 0.8596909 6.92901511 0.45019531 10.81225586 C0.30991041 12.23664863 0.17104849 13.66118206 0.03338623 15.08583069 C-0.04129128 15.84605089 -0.11596878 16.6062711 -0.19290924 17.38952827 C-2.36911782 40.08455719 -2.38944817 62.69899316 -2.26428223 85.47784424 C-2.24533004 89.57111177 -2.24117972 93.66433359 -2.23743439 97.75763893 C-2.21636437 118.80993809 -2.01290029 139.85504194 -1.546875 160.90234375 C-1.52769264 161.79633944 -1.50851028 162.69033512 -1.48874664 163.61142159 C-1.25737146 174.12952865 -0.83868909 184.61817658 -0.21902466 195.1204071 C0.02863884 199.50728088 0.17827535 203.8846435 0.24609375 208.27734375 C0.27768906 209.86019493 0.30960263 211.44303979 0.34179688 213.02587891 C0.35718506 213.82616516 0.37257324 214.62645142 0.38842773 215.45098877 C0.68821329 230.64124238 1.25377313 245.78828665 2.25170898 260.94897461 C2.82796979 269.93399686 3.16698589 278.91058099 3.4375 287.91015625 C3.93324699 304.00248133 4.86967311 320.05697599 5.86462402 336.12493896 C6.26919111 342.66240024 6.66784878 349.2002144 7.0625 355.73828125 C7.10493835 356.43743778 7.14737671 357.13659431 7.19110107 357.85693741 C7.81887762 368.24485224 8.32490391 378.63316746 8.65844727 389.03523254 C8.82996501 394.06876845 9.17172789 399.01924003 9.77490234 404.01948547 C10.06997291 406.61565439 10.19347714 409.20172439 10.28125 411.8125 C10.31863281 412.82570313 10.35601563 413.83890625 10.39453125 414.8828125 C10.46484375 416.9609375 10.53515625 419.0390625 10.60546875 421.1171875 C10.80198622 426.44348857 11.14700953 431.68195012 11.79052734 436.97216797 C12.10394836 440.006288 12.09458031 443.01487078 12.0625 446.0625 C12.05347656 447.18785156 12.04445313 448.31320312 12.03515625 449.47265625 C12.02355469 450.30667969 12.01195312 451.14070313 12 452 C9.44461305 449.44461305 9.03663835 447.34023958 8.01171875 443.875 C7.63764893 442.62025879 7.2635791 441.36551758 6.87817383 440.07275391 C6.48094006 438.71526945 6.08405604 437.3576826 5.6875 436 C5.278572 434.61497323 4.86930963 433.23004515 4.4597168 431.84521484 C3.29583105 427.899866 2.14605415 423.95056567 1 420 C0.73219727 419.07864258 0.46439453 418.15728516 0.18847656 417.20800781 C-1.27110016 412.15498251 -2.66099912 407.08625335 -4 402 C-4.22751953 401.13906738 -4.45503906 400.27813477 -4.68945312 399.39111328 C-8.88396702 383.3932373 -12.40481415 367.27636526 -15.59246826 351.04922485 C-16.03775433 348.81015686 -16.49903392 346.57462191 -16.95947266 344.33862305 C-19.78611948 330.36617907 -21.5800067 316.35339949 -23.125 302.1875 C-23.25384583 301.01671906 -23.38269165 299.84593811 -23.51544189 298.63967896 C-24.37808614 290.76321353 -25.20497936 282.88356978 -26 275 C-26.08161377 274.1958667 -26.16322754 273.3917334 -26.24731445 272.56323242 C-30.39323855 231.11807724 -29.11439805 188.48881761 -26 147 C-25.84056915 144.60949956 -25.68296068 142.21887675 -25.52734375 139.828125 C-24.29444843 121.59693012 -21.90838156 103.62000132 -18.74609375 85.62890625 C-18.08115399 81.70771072 -17.57577167 77.77284333 -17.0703125 73.828125 C-16.11169921 66.55664846 -14.87522281 59.3785869 -13.4375 52.1875 C-13.18718018 50.93227539 -12.93686035 49.67705078 -12.67895508 48.38378906 C-10.54376405 37.91175258 -7.9384397 27.57554092 -5.1875 17.25 C-4.98696014 16.49713715 -4.78642029 15.74427429 -4.57980347 14.96859741 C-1.2344022 2.4688044 -1.2344022 2.4688044 0 0 Z " fill="#FBFCFD" transform="translate(665,150)"/>
<path d="M0 0 C3.57799162 3.20214582 6.29198268 6.20797016 6.75708008 11.11181641 C6.79084311 12.6080233 6.79369229 14.10516976 6.76953125 15.6015625 C6.78086594 16.40105316 6.79220062 17.20054382 6.80387878 18.02426147 C6.83440692 20.55851464 6.82480981 23.09062759 6.8125 25.625 C6.82671742 28.16582188 6.84917196 30.70643016 6.87467957 33.24716187 C6.88761485 34.82200527 6.89250089 36.39694179 6.88813782 37.97183228 C6.89128371 41.87137427 7.22684614 45.13423072 8 49 C1.73 49 -4.54 49 -11 49 C-11.495 47.02 -11.495 47.02 -12 45 C-13.0725 45.639375 -14.145 46.27875 -15.25 46.9375 C-21.20125922 50.48536607 -27.19505907 50.54321009 -34 50 C-40.03812873 47.91410098 -42.56216861 44.15674709 -46 39 C-46.72743696 34.5592511 -46.37629279 30.88941933 -44.625 26.75 C-38.11758256 19.93270554 -30.49357109 18.40421581 -21.44628906 17.63183594 C-17.85665441 17.31885756 -16.06953458 17.04635639 -13 15 C-13.33 13.35 -13.66 11.7 -14 10 C-16.97 10 -19.94 10 -23 10 C-23.66 11.32 -24.32 12.64 -25 14 C-30.94 14 -36.88 14 -43 14 C-43 7.6410644 -42.87534006 6.77843518 -38.8671875 2.61328125 C-29.64018483 -5.35900349 -10.66344392 -5.96665785 0 0 Z " fill="#FCF6F7" transform="translate(331,748)"/>
<path d="M0 0 C3.23618841 4.0713338 3.12864349 7.26361114 3.21875 12.296875 C3.24636414 13.46987152 3.24636414 13.46987152 3.27453613 14.66656494 C3.33335162 17.1734659 3.38609031 19.68043691 3.4375 22.1875 C3.50546779 25.47409193 3.57926008 28.76048355 3.65625 32.046875 C3.66982544 32.79708923 3.68340088 33.54730347 3.6973877 34.32025146 C3.79564239 38.51572682 4.24076215 42.25707292 4.9375 46.4375 C-1.3325 46.4375 -7.6025 46.4375 -14.0625 46.4375 C-14.0625 44.7875 -14.0625 43.1375 -14.0625 41.4375 C-14.59359375 41.78683594 -15.1246875 42.13617187 -15.671875 42.49609375 C-16.73148437 43.17865234 -16.73148437 43.17865234 -17.8125 43.875 C-18.50859375 44.32746094 -19.2046875 44.77992188 -19.921875 45.24609375 C-25.17476967 48.16969388 -31.20372998 48.14961569 -37.0625 47.4375 C-41.4560193 45.77198288 -44.26974133 43.50276946 -47.0625 39.75 C-48.63421637 34.54368952 -49.5184939 29.39360883 -47.03125 24.34375 C-40.25086988 15.45391829 -27.3240153 15.2128051 -17.0625 13.4375 C-16.68031233 11.78135343 -16.34854898 10.11292976 -16.0625 8.4375 C-17.07086062 7.20482652 -17.07086062 7.20482652 -19.12890625 7.33984375 C-20.36447266 7.35724609 -20.36447266 7.35724609 -21.625 7.375 C-22.45128906 7.38402344 -23.27757812 7.39304687 -24.12890625 7.40234375 C-24.76699219 7.41394531 -25.40507812 7.42554688 -26.0625 7.4375 C-26.7225 8.7575 -27.3825 10.0775 -28.0625 11.4375 C-34.0025 11.4375 -39.9425 11.4375 -46.0625 11.4375 C-45.07073496 4.49514474 -44.77566237 3.04592542 -40.0625 -1.5625 C-29.28791835 -8.35517104 -9.88669422 -8.27254006 0 0 Z " fill="#FCF7F8" transform="translate(494.0625,750.5625)"/>
<path d="M0 0 C4.49965648 2.42063949 7.5935957 5.7418789 9.86328125 10.28125 C9.95033271 13.27095289 9.9787827 16.23709955 9.9609375 19.2265625 C9.95952255 20.1115744 9.9581076 20.9965863 9.95664978 21.90841675 C9.95104265 24.74106191 9.93848896 27.57362864 9.92578125 30.40625 C9.92076717 32.32421761 9.9162041 34.24218646 9.91210938 36.16015625 C9.90192088 40.86724218 9.88234688 45.57415808 9.86328125 50.28125 C3.59328125 50.28125 -2.67671875 50.28125 -9.13671875 50.28125 C-9.46671875 39.06125 -9.79671875 27.84125 -10.13671875 16.28125 C-13.10671875 16.28125 -16.07671875 16.28125 -19.13671875 16.28125 C-22.701429 19.84596025 -22.60435342 21.85201183 -22.6484375 26.57421875 C-22.6663887 27.28024734 -22.6843399 27.98627594 -22.70283508 28.71369934 C-22.75695053 30.96532241 -22.79083597 33.21673343 -22.82421875 35.46875 C-22.85739094 36.99677431 -22.89188052 38.52477063 -22.92773438 40.05273438 C-23.01515609 43.79560357 -23.07520682 47.53750647 -23.13671875 51.28125 C-29.40671875 51.28125 -35.67671875 51.28125 -42.13671875 51.28125 C-42.13671875 34.45125 -42.13671875 17.62125 -42.13671875 0.28125 C-35.86671875 0.28125 -29.59671875 0.28125 -23.13671875 0.28125 C-22.80671875 1.93125 -22.47671875 3.58125 -22.13671875 5.28125 C-21.20859375 4.476875 -20.28046875 3.6725 -19.32421875 2.84375 C-14.09839817 -1.6852945 -6.49315822 -2.18417022 0 0 Z " fill="#FCF7F8" transform="translate(389.13671875,745.71875)"/>
<path d="M0 0 C3.9903673 2.11733775 7.10301511 4.43767109 9.48828125 8.3203125 C10.28902131 11.3679777 10.46665902 14.18549751 10.48828125 17.3203125 C7.71641137 17.42819068 4.94872588 17.50754577 2.17578125 17.5703125 C1.39009766 17.60382812 0.60441406 17.63734375 -0.20507812 17.671875 C-6.02478698 17.77093387 -6.02478698 17.77093387 -8.5546875 15.4296875 C-9.51171875 13.3203125 -9.51171875 13.3203125 -9.51171875 11.3203125 C-11.39890625 11.4440625 -11.39890625 11.4440625 -13.32421875 11.5703125 C-14.03191406 11.61671875 -14.73960937 11.663125 -15.46875 11.7109375 C-17.6300501 12.19158161 -17.6300501 12.19158161 -19.25 13.93359375 C-20.95120151 17.15165604 -20.90993752 19.63181431 -20.88671875 23.2578125 C-20.89445312 24.46308594 -20.9021875 25.66835938 -20.91015625 26.91015625 C-20.48558019 30.54402784 -19.77387846 32.4673299 -17.51171875 35.3203125 C-14.55480166 36.07046445 -14.55480166 36.07046445 -11.51171875 35.3203125 C-8.66391256 33.08824819 -7.66174209 31.77038251 -6.51171875 28.3203125 C-0.57171875 28.3203125 5.36828125 28.3203125 11.48828125 28.3203125 C11.48828125 35.74241881 9.49213804 39.01587067 4.48828125 44.3203125 C-3.36449823 49.53968255 -11.15526198 51.4474646 -20.51171875 50.3203125 C-28.49797432 47.7158898 -34.50459442 43.80123886 -38.51171875 36.3203125 C-41.98304328 29.28056345 -41.97163831 19.66676502 -39.484375 12.26171875 C-31.40614747 -2.4402078 -14.90396362 -6.16864485 0 0 Z " fill="#FCF7F8" transform="translate(268.51171875,747.6796875)"/>
<path d="M0 0 C6.6 0 13.2 0 20 0 C20 4.95 20 9.9 20 15 C23.3 15 26.6 15 30 15 C30 19.29 30 23.58 30 28 C26.7 28 23.4 28 20 28 C20.33 35.26 20.66 42.52 21 50 C23.97 50.33 26.94 50.66 30 51 C30 55.95 30 60.9 30 66 C26.60368528 66.08107913 23.20931384 66.14053944 19.8125 66.1875 C18.85279297 66.21263672 17.89308594 66.23777344 16.90429688 66.26367188 C7.61904885 66.36005853 7.61904885 66.36005853 4 63 C-1.42686161 56.49330368 -0.4575147 49.15850989 -0.25 41.0625 C-0.22990673 39.69729179 -0.21166094 38.33205507 -0.1953125 36.96679688 C-0.14834433 33.64379866 -0.08266726 30.32227008 0 27 C-2.64 27 -5.28 27 -8 27 C-8 23.04 -8 19.08 -8 15 C-5.36 15 -2.72 15 0 15 C0 10.05 0 5.1 0 0 Z " fill="#FBF2F4" transform="translate(413,731)"/>
<path d="M0 0 C3.96 0 7.92 0 12 0 C11.85808294 3.33354117 11.7115827 6.66677784 11.5625 10 C11.52318359 10.93457031 11.48386719 11.86914062 11.44335938 12.83203125 C11.19609347 18.27188123 10.75680832 23.60694577 10 29 C14.62 29 19.24 29 24 29 C24.81984375 27.27910156 25.6396875 25.55820312 26.484375 23.78515625 C27.57217596 21.54391117 28.66075815 19.30304516 29.75 17.0625 C30.28882813 15.92619141 30.82765625 14.78988281 31.3828125 13.61914062 C31.91132813 12.53955078 32.43984375 11.45996094 32.984375 10.34765625 C33.46616211 9.34742432 33.94794922 8.34719238 34.44433594 7.31665039 C36 5 36 5 38.01367188 4.15820312 C40.64840407 3.9483572 43.12297869 4.15603343 45.75 4.4375 C46.73484375 4.53933594 47.7196875 4.64117188 48.734375 4.74609375 C49.85585938 4.87177734 49.85585938 4.87177734 51 5 C52.62183842 8.72040949 53.55397342 12.2662712 54.2890625 16.25390625 C54.50820313 17.43791016 54.72734375 18.62191406 54.953125 19.84179688 C55.17484375 21.06962891 55.3965625 22.29746094 55.625 23.5625 C55.96917969 25.41004883 55.96917969 25.41004883 56.3203125 27.29492188 C58 36.46821522 58 36.46821522 58 41 C54.37 41 50.74 41 47 41 C45.64560332 38.29120665 45.93498549 35.99066732 46 33 C44.20739868 33.05995322 42.41574205 33.1487241 40.625 33.25 C39.62726563 33.29640625 38.62953125 33.3428125 37.6015625 33.390625 C34.8473523 33.72160885 34.8473523 33.72160885 33.6484375 36.046875 C33.43445313 36.69140625 33.22046875 37.3359375 33 38 C25.24290993 38.2890841 17.65629064 37.79535926 9.9375 37.0625 C9.0091333 36.97564941 8.0807666 36.88879883 7.12426758 36.79931641 C0.39172071 36.13057357 0.39172071 36.13057357 -3 35 C-3.31134162 27.614285 -2.75808258 20.34622931 -2.0625 13 C-1.97564941 12.06776611 -1.88879883 11.13553223 -1.79931641 10.17504883 C-1.12899845 3.38699534 -1.12899845 3.38699534 0 0 Z " fill="#2C5294" transform="translate(460,629)"/>
<path d="M0 0 C6.27 0 12.54 0 19 0 C19 22.77 19 45.54 19 69 C12.73 69 6.46 69 0 69 C0 46.23 0 23.46 0 0 Z " fill="#FDF9FA" transform="translate(508,728)"/>
<path d="M0 0 C4.04188361 2.91314404 7.37871281 6.38242561 9.625 10.875 C10.37781546 17.86542931 10.29568123 23.47232761 6.05859375 29.2578125 C2.77559795 32.96124645 -1.23792977 36.59726857 -6.23046875 37.24609375 C-13.57070417 37.39238215 -18.8897747 37.06299635 -24.375 31.875 C-29.61739743 25.15397766 -30.14042107 19.18682597 -29.375 10.875 C-27.67055116 5.46946226 -23.86999274 2.05895319 -19.375 -1.125 C-13.09157813 -3.18427271 -5.76775571 -3.42117829 0 0 Z " fill="#FCF7F8" transform="translate(258.375,808.125)"/>
<path d="M0 0 C1.04220703 -0.01063477 1.04220703 -0.01063477 2.10546875 -0.02148438 C6.8360849 0.03642336 10.11487441 0.9541926 14.125 3.4375 C18.48191308 8.26543071 19.474774 11.20084818 19.41015625 17.5703125 C18.7196206 24.51350655 16.10502298 31.45747702 11.125 36.4375 C5.91768929 39.04115535 -2.00972038 38.03705416 -7.375 36.3125 C-13.50924125 31.71181907 -13.50924125 31.71181907 -14.875 28.4375 C-15.97453852 19.3818667 -15.79804031 9.80088362 -10.2578125 2.2265625 C-6.9497662 -0.25718374 -3.9691129 -0.11288303 0 0 Z " fill="#2B5194" transform="translate(566.875,645.5625)"/>
<path d="M0 0 C0.67289063 -0.03416016 1.34578125 -0.06832031 2.0390625 -0.10351562 C5.91394275 -0.13797602 7.82391527 0.48485734 11.109375 2.58984375 C15.77659575 7.62298565 16.04224581 12.30936614 16.0625 19 C16.07925781 20.28003906 16.09601563 21.56007813 16.11328125 22.87890625 C15.72951211 26.63819323 15.06457172 28.48776674 12.75 31.4375 C6.32459966 34.83918253 -0.24641813 36.56614515 -7.51171875 36.48828125 C-8.40205811 36.48094971 -9.29239746 36.47361816 -10.2097168 36.46606445 C-10.88301025 36.45663818 -11.55630371 36.44721191 -12.25 36.4375 C-13.11093309 32.40034968 -13.96521285 28.36185337 -14.81347656 24.32202148 C-15.10268666 22.94924403 -15.39368011 21.57684098 -15.68652344 20.20483398 C-16.10826782 18.22736926 -16.52348163 16.2486261 -16.9375 14.26953125 C-17.18886719 13.08077393 -17.44023437 11.8920166 -17.69921875 10.66723633 C-18.18211552 7.83556906 -18.36323049 5.29892889 -18.25 2.4375 C-12.20942823 0.81119222 -6.23266462 0.15524165 0 0 Z " fill="#2C5194" transform="translate(244.25,638.5625)"/>
<path d="M0 0 C5.754375 -0.12375 5.754375 -0.12375 11.625 -0.25 C12.82334473 -0.28641602 14.02168945 -0.32283203 15.25634766 -0.36035156 C21.46497112 -0.42499214 25.34472448 -0.28984434 30 4 C31.5121867 7.02437339 31.17263369 9.66241534 31 13 C30.47212891 13.8353125 30.47212891 13.8353125 29.93359375 14.6875 C28.45182232 18.35782923 29.31367008 21.77956744 29.875 25.625 C30.08137077 27.15876797 30.28712902 28.69261853 30.4921875 30.2265625 C30.65976562 31.47179687 30.82734375 32.71703125 31 34 C31 34.66 31 35.32 31 36 C26.71 36 22.42 36 18 36 C17.67 32.04 17.34 28.08 17 24 C15.35 23.67 13.7 23.34 12 23 C12 27.29 12 31.58 12 36 C8.04 36 4.08 36 0 36 C0 24.12 0 12.24 0 0 Z " fill="#2C5294" transform="translate(377,626)"/>
<path d="M0 0 C4.62 0 9.24 0 14 0 C14.33 8.58 14.66 17.16 15 26 C16.32 26.33 17.64 26.66 19 27 C19 18.09 19 9.18 19 0 C23.29 0 27.58 0 32 0 C32.13501968 4.54266205 32.23416045 9.081306 32.3125 13.625 C32.35439453 14.91019531 32.39628906 16.19539062 32.43945312 17.51953125 C32.57761356 28.18551697 32.57761356 28.18551697 29.66796875 31.8359375 C25.27961015 35.39545531 21.05816038 35.30442428 15.625 35.4375 C14.86960937 35.48326172 14.11421875 35.52902344 13.3359375 35.57617188 C7.85668665 35.68633164 7.85668665 35.68633164 5.38183594 33.70361328 C-2.1965657 24.74410107 -0.12309083 11.07817489 0 0 Z " fill="#315697" transform="translate(341,627)"/>
<path d="M0 0 C1.6484375 1.296875 1.6484375 1.296875 4.0234375 3.984375 C4.0234375 4.974375 4.0234375 5.964375 4.0234375 6.984375 C-3.15966109 10.50550176 -3.15966109 10.50550176 -7.9765625 8.984375 C-8.9046875 8.79875 -9.8328125 8.613125 -10.7890625 8.421875 C-11.5109375 8.2775 -12.2328125 8.133125 -12.9765625 7.984375 C-12.6465625 8.974375 -12.3165625 9.964375 -11.9765625 10.984375 C-10.33107422 11.22220703 -10.33107422 11.22220703 -8.65234375 11.46484375 C-7.1977446 11.69945652 -5.74332643 11.93519323 -4.2890625 12.171875 C-3.56783203 12.27306641 -2.84660156 12.37425781 -2.10351562 12.47851562 C3.0052576 13.34164169 5.77255195 14.69597278 9.0234375 18.984375 C9.94189902 22.09093601 9.71281046 24.83216156 9.0234375 27.984375 C5.63597079 33.36446919 1.73590315 35.88066899 -4.2890625 37.671875 C-5.619375 37.8265625 -5.619375 37.8265625 -6.9765625 37.984375 C-7.67007813 38.08363281 -8.36359375 38.18289063 -9.078125 38.28515625 C-12.64210112 38.58910739 -14.98897504 38.75429012 -17.890625 36.4921875 C-21.9765625 31.82531102 -21.9765625 31.82531102 -21.9765625 28.984375 C-16.27019639 26.29902624 -12.89227867 25.1041588 -6.6640625 26.984375 C-5.7771875 27.314375 -4.8903125 27.644375 -3.9765625 27.984375 C-4.3065625 26.994375 -4.6365625 26.004375 -4.9765625 24.984375 C-7.49768292 23.72381479 -9.4760785 23.80510158 -12.2890625 23.671875 C-17.04496115 23.26777904 -19.69498608 22.67614847 -22.9765625 18.984375 C-25.42073179 15.96989955 -25.95952505 14.45290491 -26.1015625 10.546875 C-24.58390998 5.74097535 -22.13112332 3.6822537 -17.9765625 0.984375 C-12.744383 -1.57357942 -5.37526931 -2.76199609 0 0 Z " fill="#2D5295" transform="translate(158.9765625,659.015625)"/>
<path d="M0 0 C5.2386459 1.54853055 9.29117187 4.14668293 12 9 C12.25 12.8125 12.25 12.8125 12 16 C8.5993081 15.92981687 5.32411372 15.74939762 2 15 C-0.14713594 12.53710877 -1 11.25966972 -1 8 C-2.32 8 -3.64 8 -5 8 C-2.66979108 13.97116036 1.20005451 17.04590478 6 21 C8.37040308 23.37040308 8.34465793 24.06302753 8.4375 27.3125 C8.36995867 31.12551521 8.12249249 31.84527264 5.625 35 C0.41667943 38.96824424 -4.61074952 38.69714843 -11 38 C-16.05563544 36.26338252 -20.00075009 34.49887486 -23 30 C-23.1953125 27.73828125 -23.1953125 27.73828125 -23.125 25.3125 C-23.10695313 24.50425781 -23.08890625 23.69601562 -23.0703125 22.86328125 C-23.04710937 22.24839844 -23.02390625 21.63351562 -23 21 C-19.25664011 21.42581513 -15.62008096 21.93810959 -12 23 C-10 25.5625 -10 25.5625 -9 28 C-8.01 28.33 -7.02 28.66 -6 29 C-7.20461023 24.0309828 -10.29348405 21.7958114 -14.125 18.74609375 C-17.37260753 15.72175924 -17.94795502 13.46840485 -18.4375 9.0625 C-18.30956775 5.95142036 -17.90845541 4.83725406 -16.3125 2 C-11.06304763 -1.16948068 -5.96946391 -0.77862573 0 0 Z " fill="#2D5295" transform="translate(623,658)"/>
<path d="M0 0 C0.47308594 0.83660156 0.94617188 1.67320312 1.43359375 2.53515625 C5.55382694 9.7948154 9.75417462 16.99441631 14.11694336 24.11157227 C15.70661591 26.72709089 17.0281654 29.0844962 18 32 C13.82262526 33.59138085 10.46839215 34.21278058 6 34 C5.34 32.68 4.68 31.36 4 30 C0.37 30 -3.26 30 -7 30 C-7 32.64 -7 35.28 -7 38 C-11.26616316 39.13764351 -14.56486311 40 -19 40 C-19.3176201 32.21830757 -18.11463406 24.68461636 -17 17 C-16.80678562 15.63939468 -16.61407307 14.278718 -16.421875 12.91796875 C-15.95283621 9.61124526 -15.4787382 6.30533076 -15 3 C-13.25183142 2.49363393 -11.50137737 1.99515381 -9.75 1.5 C-8.77546875 1.2215625 -7.8009375 0.943125 -6.796875 0.65625 C-4 0 -4 0 0 0 Z " fill="#2D5395" transform="translate(213,644)"/>
<path d="M0 0 C4.1665316 1.63158428 7.2352346 3.88957418 9.828125 7.50390625 C10.2277489 10.55231934 10.12754555 13.44981664 9.828125 16.50390625 C8.39072987 16.53102691 6.95318637 16.55035692 5.515625 16.56640625 C4.31486328 16.58380859 4.31486328 16.58380859 3.08984375 16.6015625 C0.828125 16.50390625 0.828125 16.50390625 -2.171875 15.50390625 C-2.501875 13.19390625 -2.831875 10.88390625 -3.171875 8.50390625 C-4.491875 8.83390625 -5.811875 9.16390625 -7.171875 9.50390625 C-9.12209036 15.96399462 -9.39449803 21.77574355 -9.171875 28.50390625 C-5.43548284 27.2584422 -4.98430987 25.86985672 -3.171875 22.50390625 C-1.71264807 22.61800218 -0.25446902 22.74556169 1.203125 22.87890625 C2.01523437 22.94851563 2.82734375 23.018125 3.6640625 23.08984375 C5.828125 23.50390625 5.828125 23.50390625 7.828125 25.50390625 C7.61253446 30.35469344 6.18880137 33.04438645 2.828125 36.50390625 C-2.82632384 38.38872253 -9.74198302 38.52124709 -15.4765625 36.8203125 C-19.78311103 34.59310607 -21.38582 31.86520335 -23.171875 27.50390625 C-24.27092052 18.21589411 -23.54055239 10.3017195 -18.109375 2.56640625 C-13.65347629 -2.1769698 -6.00607591 -1.37189144 0 0 Z " fill="#2D5295" transform="translate(542.171875,638.49609375)"/>
<path d="M0 0 C4.95 0 9.9 0 15 0 C18.94656328 7.65150024 22.65436686 15.2902961 25.9375 23.25 C26.24373291 23.98855225 26.54996582 24.72710449 26.86547852 25.48803711 C29 30.74059199 29 30.74059199 29 33 C25.04340734 34.31886422 22.17660573 34.26518132 18 34 C16 31 16 31 16 28 C12.37 28.33 8.74 28.66 5 29 C4.01 32.465 4.01 32.465 3 36 C-1.05849177 36.98387679 -4.83531255 37.03924323 -9 37 C-6.13241677 24.63254606 -3.10605199 12.30964046 0 0 Z " fill="#2C5194" transform="translate(314,629)"/>
<path d="M0 0 C0 2.64 0 5.28 0 8 C-3.14930893 9.04976964 -5.38814456 9.10131595 -8.6875 9.0625 C-9.68136719 9.05347656 -10.67523438 9.04445313 -11.69921875 9.03515625 C-12.83810547 9.01775391 -12.83810547 9.01775391 -14 9 C-14 10.98 -14 12.96 -14 15 C-6.08 14.505 -6.08 14.505 2 14 C2 15.98 2 17.96 2 20 C-2.96073422 21.32286246 -7.91111512 21.08893197 -13 21 C-13 22.98 -13 24.96 -13 27 C-7.72 26.67 -2.44 26.34 3 26 C3 28.64 3 31.28 3 34 C0.91854313 34.34485676 -1.16533222 34.67511671 -3.25 35 C-4.41015625 35.185625 -5.5703125 35.37125 -6.765625 35.5625 C-12.15038253 36.11885871 -17.58657699 36 -23 36 C-23.99 24.78 -24.98 13.56 -26 2 C-22.4525 1.67 -18.905 1.34 -15.25 1 C-14.13786133 0.89558594 -13.02572266 0.79117188 -11.87988281 0.68359375 C-10.99655273 0.60238281 -10.11322266 0.52117188 -9.203125 0.4375 C-8.30239258 0.35371094 -7.40166016 0.26992188 -6.47363281 0.18359375 C-4.32080902 0.02381054 -2.15874522 0 0 0 Z " fill="#2E5395" transform="translate(289,633)"/>
<path d="M0 0 C0.33 2.97 0.66 5.94 1 9 C-0.98 9.66 -2.96 10.32 -5 11 C-4.62460466 15.82086644 -4.2317303 20.51542042 -2.9375 25.1875 C-1.98089234 29.07770449 -1.83492491 32.03819789 -2 36 C-6.15944744 37.30492469 -9.65036909 38.12019705 -14 38 C-14.65192688 35.50145233 -15.29663064 33.0013863 -15.9375 30.5 C-16.11990234 29.80390625 -16.30230469 29.1078125 -16.49023438 28.390625 C-17.70965566 23.60162506 -18.47422365 18.91462529 -19 14 C-22.3 14.33 -25.6 14.66 -29 15 C-29.33 12.03 -29.66 9.06 -30 6 C-23.92642203 4.00710723 -17.89846885 2.49306057 -11.625 1.3125 C-10.93535156 1.18125732 -10.24570313 1.05001465 -9.53515625 0.91479492 C-6.27314067 0.31992393 -3.33154953 0 0 0 Z " fill="#2D5395" transform="translate(193,649)"/>
<path d="M0 0 C0.99 0.66 1.98 1.32 3 2 C3 1.34 3 0.68 3 0 C4.65 0 6.3 0 8 0 C8.14536813 4.39548491 8.23409948 8.79035087 8.3125 13.1875 C8.35439453 14.43337891 8.39628906 15.67925781 8.43945312 16.96289062 C8.56071766 26.0092246 8.56071766 26.0092246 6.89990234 28.94384766 C5.54296875 30.30078125 5.54296875 30.30078125 3 32 C2.67 32.33 2.34 32.66 2 33 C-3.13533457 33.52559632 -7.55826682 33.80737058 -12.125 31.25 C-13.95275592 29.05669289 -14.69895795 27.80972581 -15 25 C-12.125 24.8125 -12.125 24.8125 -9 25 C-8.34 25.99 -7.68 26.98 -7 28 C-3.79800452 28.40876538 -1.85551106 28.61950801 0.8125 26.6875 C2.19455846 24.89523775 2.19455846 24.89523775 3 22 C2.484375 22.33 1.96875 22.66 1.4375 23 C-1.9260416 24.3799145 -4.39238959 24.37974846 -8 24 C-11.54509222 21.79416484 -13.40712125 19.81452542 -15 16 C-15.65528607 12.20623855 -15.86351149 8.5472585 -13.94921875 5.1171875 C-9.8558737 0.11823514 -6.30641835 -0.73678947 0 0 Z " fill="#F9E9ED" transform="translate(439,811)"/>
<path d="M0 0 C3.96 0 7.92 0 12 0 C12.09908936 9.39146903 12.12998844 18.65741704 11 28 C12.216875 27.979375 13.43375 27.95875 14.6875 27.9375 C17.91977322 27.93175884 20.84934741 28.21233685 24 29 C24 31.64 24 34.28 24 37 C15.27369392 37.09744014 6.66996704 37.16711095 -2 36 C-2.02763357 34.64595503 -2.04667422 33.29173445 -2.0625 31.9375 C-2.07410156 31.18339844 -2.08570313 30.42929687 -2.09765625 29.65234375 C-2 27 -2 27 -1.53125 23.84375 C-0.8736043 19.08548992 -0.64810708 14.35812682 -0.4375 9.5625 C-0.39431641 8.64017578 -0.35113281 7.71785156 -0.30664062 6.76757812 C-0.20145149 4.51185554 -0.10031164 2.25594475 0 0 Z " fill="#2D5295" transform="translate(430,627)"/>
<path d="M0 0 C8.71428571 1.0625 8.71428571 1.0625 13 2 C12.23927171 6.0741226 11.22537806 10.04819294 10.15234375 14.05078125 C9.97619034 14.70958786 9.80003693 15.36839447 9.61854553 16.04716492 C9.05966624 18.13600668 8.49861714 20.2242584 7.9375 22.3125 C7.5564968 23.73498753 7.17563592 25.15751318 6.79492188 26.58007812 C5.86492791 30.05382819 4.93298802 33.52705273 4 37 C-0.3149954 36.43584866 -4.02408182 35.80723554 -8 34 C-7.34887891 26.59005856 -5.42228272 19.65307831 -3.4375 12.5 C-3.10814453 11.29601562 -2.77878906 10.09203125 -2.43945312 8.8515625 C-1.63119406 5.89965982 -0.81792254 2.94923686 0 0 Z " fill="#2C5294" transform="translate(591,652)"/>
<path d="M0 0 C3.96 0 7.92 0 12 0 C12 11.88 12 23.76 12 36 C8.04 36 4.08 36 0 36 C0 24.12 0 12.24 0 0 Z " fill="#284E92" transform="translate(412,626)"/>
<path d="M0 0 C3.64355647 1.61935843 6.12645605 3.45012726 8 7 C8 9.31 8 11.62 8 14 C2.39 14 -3.22 14 -9 14 C-7.54711014 18.5841963 -7.54711014 18.5841963 -6 20 C-3.04195427 20.33340471 -3.04195427 20.33340471 0 20 C0.66 19.01 1.32 18.02 2 17 C5.125 16.8125 5.125 16.8125 8 17 C7.09126425 20.05665662 6.32469175 21.72305703 3.875 23.8125 C-0.56503632 25.64642805 -4.54016581 25.61495855 -9.25 24.4375 C-12.61534434 21.67311 -14.57582938 18.20144553 -15.390625 13.97265625 C-15.66618145 8.84533794 -14.22437668 5.86925202 -11 2 C-7.29017554 -0.4732163 -4.30111858 -0.54710902 0 0 Z " fill="#F9E9EC" transform="translate(518,811)"/>
<path d="M0 0 C3.51406494 1.75703247 5.4401554 3.0075482 7.375 6.4375 C8 9 8 9 8 14 C2.06 14 -3.88 14 -10 14 C-8.23148964 17.18074165 -8.23148964 17.18074165 -6 20 C-2.48254713 19.74751373 -2.48254713 19.74751373 1 19 C1.33 18.34 1.66 17.68 2 17 C3.65 17 5.3 17 7 17 C6.4376049 20.26189156 5.5859495 21.91134848 3 24 C-0.71222612 25.23740871 -4.14227882 25.55756126 -8 25 C-11.27981751 22.93228896 -12.84746007 21.22880989 -15 18 C-15.65237324 13.62566572 -16.03401151 8.98730094 -13.94921875 4.98046875 C-9.90634626 0.07893308 -6.1723513 -0.82603958 0 0 Z " fill="#F9ECEF" transform="translate(373,811)"/>
<path d="M0 0 C1.98 0 3.96 0 6 0 C6.33 6.27 6.66 12.54 7 19 C9.64 19 12.28 19 15 19 C15.33 12.73 15.66 6.46 16 0 C17.65 0 19.3 0 21 0 C21 8.25 21 16.5 21 25 C19.35 25 17.7 25 16 25 C16 24.34 16 23.68 16 23 C15.484375 23.33 14.96875 23.66 14.4375 24 C11.05216491 25.38885542 8.62487235 25.45310904 5 25 C2.43093956 22.43093956 0.11231599 19.85937308 -0.11352539 16.12060547 C-0.10828857 15.37697754 -0.10305176 14.63334961 -0.09765625 13.8671875 C-0.09443359 13.06152344 -0.09121094 12.25585938 -0.08789062 11.42578125 C-0.07951172 10.58402344 -0.07113281 9.74226562 -0.0625 8.875 C-0.05798828 8.02550781 -0.05347656 7.17601562 -0.04882812 6.30078125 C-0.03702874 4.20049091 -0.01909306 2.1002367 0 0 Z " fill="#F7E3E7" transform="translate(285,811)"/>
<path d="M0 0 C1.65 0 3.3 0 5 0 C5.33 0.66 5.66 1.32 6 2 C6.66 1.34 7.32 0.68 8 0 C12.30122388 -0.57901091 14.44102343 -0.32776972 18.2109375 1.8828125 C20.22778717 3.65861325 20.92285527 4.63297455 21.48046875 7.28588867 C21.59091249 9.9848576 21.52366516 12.61556153 21.375 15.3125 C21.34792969 16.24384766 21.32085937 17.17519531 21.29296875 18.13476562 C21.2224825 20.42556872 21.12404246 22.71157563 21 25 C19.35 25 17.7 25 16 25 C15.93941406 23.71222656 15.87882812 22.42445313 15.81640625 21.09765625 C15.73201753 19.41925841 15.6473687 17.74087364 15.5625 16.0625 C15.52318359 15.21236328 15.48386719 14.36222656 15.44335938 13.48632812 C15.38051758 12.27299805 15.38051758 12.27299805 15.31640625 11.03515625 C15.27974854 10.2862915 15.24309082 9.53742676 15.20532227 8.76586914 C15.18228937 6.97538674 15.18228937 6.97538674 14 6 C11.36 6 8.72 6 6 6 C5.67 12.27 5.34 18.54 5 25 C3.35 25 1.7 25 0 25 C0 16.75 0 8.5 0 0 Z " fill="#F8E8EB" transform="translate(466,811)"/>
<path d="M0 0 C0.99 0 1.98 0 3 0 C4.82421875 2.51953125 4.82421875 2.51953125 6.6875 5.8125 C7.31011719 6.89144531 7.93273437 7.97039063 8.57421875 9.08203125 C10 12 10 12 10 15 C9.01 15.495 9.01 15.495 8 16 C9.32 16.33 10.64 16.66 12 17 C12 17.99 12 18.98 12 20 C8.60418484 20.0291544 5.20840214 20.04685068 1.8125 20.0625 C0.85279297 20.07087891 -0.10691406 20.07925781 -1.09570312 20.08789062 C-2.02705078 20.09111328 -2.95839844 20.09433594 -3.91796875 20.09765625 C-4.77156982 20.10289307 -5.6251709 20.10812988 -6.50463867 20.11352539 C-9.09246747 19.99579323 -11.47661953 19.57107044 -14 19 C-12.80100302 15.9168649 -11.52299523 12.93720508 -10 10 C-7.69 10 -5.38 10 -3 10 C-3.2475 9.46375 -3.495 8.9275 -3.75 8.375 C-4 6 -4 6 -2.25 2.75 C-1.5075 1.8425 -0.765 0.935 0 0 Z " fill="#FCF4F5" transform="translate(249,814)"/>
<path d="M0 0 C2.0625 0.4375 2.0625 0.4375 4 1 C4 3.31 4 5.62 4 8 C7.96 8.33 11.92 8.66 16 9 C16 6.36 16 3.72 16 1 C16.33 1 16.66 1 17 1 C17.6758148 5.50543198 18.12954682 8.60731793 17 13 C16.77882441 15.4138176 16.59427758 17.83114597 16.4375 20.25 C16.35371094 21.51328125 16.26992188 22.7765625 16.18359375 24.078125 C16.09271484 25.52445313 16.09271484 25.52445313 16 27 C14.51171875 25.69921875 14.51171875 25.69921875 13 24 C12.8125 20.8125 12.8125 20.8125 13 18 C9.59658679 15.90559187 6.96176976 15.33970504 3 16 C0.57577814 18.88509913 0.57577814 18.88509913 -1 22 C-1.99 21.67 -2.98 21.34 -4 21 C-4.36459298 13.77565758 -3.9909985 7.66388268 -1 1 C-0.67 0.67 -0.34 0.34 0 0 Z " fill="#EFF2F6" transform="translate(536,646)"/>
<path d="M0 0 C1.65 0 3.3 0 5 0 C8.70694087 8.2596401 8.70694087 8.2596401 10.1875 12 C10.83430303 13.96396038 10.83430303 13.96396038 12 15 C12.26554687 14.25234375 12.53109375 13.5046875 12.8046875 12.734375 C13.15789062 11.74953125 13.51109375 10.7646875 13.875 9.75 C14.22304688 8.77546875 14.57109375 7.8009375 14.9296875 6.796875 C15.83274645 4.43705673 16.82078418 2.23094884 18 0 C19.65 0 21.3 0 23 0 C21.63717871 5.82176086 19.91032922 11.3809332 17.875 17 C17.59785156 17.77472656 17.32070313 18.54945313 17.03515625 19.34765625 C16.36016093 21.23298801 15.68056623 23.11667206 15 25 C13.02 25 11.04 25 9 25 C6.79367503 19.94466682 4.75067791 14.85118879 2.8125 9.6875 C2.40354492 8.61532227 2.40354492 8.61532227 1.98632812 7.52148438 C0 2.23954417 0 2.23954417 0 0 Z " fill="#F8E6EA" transform="translate(322,811)"/>
<path d="M0 0 C5 0 5 0 7 1 C9.00800456 0.71887936 11.01014051 0.38932033 13 0 C13 1.65 13 3.3 13 5 C11.02 5.66 9.04 6.32 7 7 C6.67 12.94 6.34 18.88 6 25 C4.02 25 2.04 25 0 25 C0 16.75 0 8.5 0 0 Z " fill="#F4D9DF" transform="translate(397,811)"/>
<path d="M0 0 C0.66 0 1.32 0 2 0 C3.53313149 5.94976858 2.46661366 11.41169711 1.5625 17.375 C1.41490234 18.39722656 1.26730469 19.41945313 1.11523438 20.47265625 C0.75157616 22.98307102 0.37961124 25.4919566 0 28 C0.66 28.33 1.32 28.66 2 29 C-1.96 29.495 -1.96 29.495 -6 30 C-5.01 29.67 -4.02 29.34 -3 29 C-3.20496094 28.03320312 -3.40992188 27.06640625 -3.62109375 26.0703125 C-5.14992735 18.72832284 -6.48838072 11.49786869 -7 4 C-4.35261084 2.5393715 -3.10551666 2 0 2 C0 1.34 0 0.68 0 0 Z " fill="#F1F3F8" transform="translate(194,656)"/>
<path d="M0 0 C0.99 0.66 1.98 1.32 3 2 C3.3984375 4.05859375 3.3984375 4.05859375 3.375 6.4375 C3.38273437 7.21996094 3.39046875 8.00242187 3.3984375 8.80859375 C2.90747315 11.50889769 2.19784837 12.38959497 0 14 C-3.5 14.4375 -3.5 14.4375 -7 14 C-8.9375 12.4375 -8.9375 12.4375 -10 10 C-10.61818182 4.12727273 -10.61818182 4.12727273 -8.9375 1.0625 C-5.91362524 -0.5957539 -3.37613017 -0.30144019 0 0 Z " fill="#C01035" transform="translate(439,816)"/>
<path d="M0 0 C0.30788712 3.92556076 0.30854114 6.3957736 -1.5 9.9375 C-4.17076387 12.14088019 -4.82593478 12.34152719 -8.125 12.4375 C-12 12 -12 12 -14 10 C-14.4375 7.5625 -14.4375 7.5625 -14 5 C-10.18270337 1.8767573 -4.9564978 0 0 0 Z " fill="#C21B3E" transform="translate(319,774)"/>
<path d="M0 0 C0.33609819 3.61305558 0.19511045 5.62603831 -1.5 8.875 C-4.17697837 11.15043161 -4.78556783 11.34642458 -8.125 11.4375 C-12 11 -12 11 -14 9 C-14.4375 6.5625 -14.4375 6.5625 -14 4 C-9.63126842 0.50501474 -5.45677154 0 0 0 Z " fill="#C2193C" transform="translate(479,775)"/>
<path d="M0 0 C2.0625 0.4375 2.0625 0.4375 4 1 C4.66268329 8.12384541 2.25388064 14.30879185 0 21 C-1.32 21 -2.64 21 -4 21 C-4.41223573 13.82404475 -3.62141962 7.72333012 -1 1 C-0.67 0.67 -0.34 0.34 0 0 Z " fill="#F2F4F8" transform="translate(569,653)"/>
<path d="M0 0 C2.375 -0.125 2.375 -0.125 5 0 C7.96124555 2.96124555 7.95957658 5.8018498 8.09765625 9.89453125 C8.08605469 10.85746094 8.07445312 11.82039062 8.0625 12.8125 C8.05347656 13.78832031 8.04445312 14.76414062 8.03515625 15.76953125 C8.02355469 16.50558594 8.01195312 17.24164062 8 18 C6.35 18.33 4.7 18.66 3 19 C2.49666458 16.39643759 1.99720622 13.79223349 1.5 11.1875 C1.35691406 10.44951172 1.21382812 9.71152344 1.06640625 8.95117188 C0.49073719 5.92205609 0 3.090804 0 0 Z " fill="#E5E9F1" transform="translate(239,647)"/>
<path d="M0 0 C5.94 0 11.88 0 18 0 C18 1.65 18 3.3 18 5 C17.67 4.34 17.34 3.68 17 3 C15.35 3 13.7 3 12 3 C11.67 3.99 11.34 4.98 11 6 C7.75 6.75 7.75 6.75 4 7 C1.5625 5.25 1.5625 5.25 0 3 C0 2.01 0 1.02 0 0 Z " fill="#C42042" transform="translate(363,825)"/>
<path d="M0 0 C5.61 0 11.22 0 17 0 C17 0.99 17 1.98 17 3 C15.02 3 13.04 3 11 3 C10.34 4.32 9.68 5.64 9 7 C3.54545455 7.36363636 3.54545455 7.36363636 1.125 5.75 C0 4 0 4 0 0 Z " fill="#C31D40" transform="translate(509,825)"/>
<path d="M0 0 C0.66 0.33 1.32 0.66 2 1 C-7.57 10.57 -17.14 20.14 -27 30 C-27.66 29.67 -28.32 29.34 -29 29 C-19.33333333 19.33333333 -9.66666667 9.66666667 0 0 Z " fill="#E4E8F1" transform="translate(259,127)"/>
<path d="M0 0 C6.6 0 13.2 0 20 0 C20 0.99 20 1.98 20 3 C13.4 3 6.8 3 0 3 C0 2.01 0 1.02 0 0 Z " fill="#D0516B" transform="translate(241,831)"/>
<path d="M0 0 C0.99 0 1.98 0 3 0 C4.82421875 2.51953125 4.82421875 2.51953125 6.6875 5.8125 C7.62142578 7.43091797 7.62142578 7.43091797 8.57421875 9.08203125 C10 12 10 12 10 15 C9.34 15 8.68 15 8 15 C6.02 11.37 4.04 7.74 2 4 C1.01 5.32 0.02 6.64 -1 8 C-1.99 8 -2.98 8 -4 8 C-2.87548273 5.0280615 -1.77706209 2.66559313 0 0 Z " fill="#CA3857" transform="translate(249,814)"/>
<path d="M0 0 C-0.3125 2.375 -0.3125 2.375 -1 5 C-4.4352048 7.29013653 -5.985331 7.17842973 -10 7 C-10.66 5.68 -11.32 4.36 -12 3 C-10.45486138 1.45486138 -8.67354905 1.39348659 -6.5625 0.9375 C-5.75941406 0.76089844 -4.95632813 0.58429687 -4.12890625 0.40234375 C-2 0 -2 0 0 0 Z " fill="#C41F42" transform="translate(442,833)"/>
<path d="M0 0 C2.5625 0.3125 2.5625 0.3125 4.375 1.625 C5.5625 3.3125 5.5625 3.3125 5.5625 6.3125 C1.9325 6.3125 -1.6975 6.3125 -5.4375 6.3125 C-3.98716887 0.5111755 -3.98716887 0.5111755 0 0 Z " fill="#C72E4E" transform="translate(369.4375,814.6875)"/>
<path d="M0 0 C4.29 0 8.58 0 13 0 C12 3 12 3 10 4 C4.46153846 4.23076923 4.46153846 4.23076923 2 3 C1.38125 3.99 0.7625 4.98 0.125 6 C-0.57625 6.99 -1.2775 7.98 -2 9 C-2.66 9 -3.32 9 -4 9 C-2.79310745 5.89656201 -1.49403054 2.98806107 0 0 Z " fill="#CB3D5A" transform="translate(239,824)"/>
<path d="M0 0 C1.03647521 3.30312756 0.98440578 5.9886447 0.66015625 9.421875 C0.56669922 10.44667969 0.47324219 11.47148437 0.37695312 12.52734375 C0.27318359 13.59082031 0.16941406 14.65429688 0.0625 15.75 C-0.03740234 16.82894531 -0.13730469 17.90789062 -0.24023438 19.01953125 C-0.48747505 21.68031187 -0.74094708 24.34034775 -1 27 C-1.33 27 -1.66 27 -2 27 C-2.33 23.7 -2.66 20.4 -3 17 C-3.66 17.33 -4.32 17.66 -5 18 C-4.35702496 15.37426939 -3.71075589 12.74942697 -3.0625 10.125 C-2.88009766 9.37863281 -2.69769531 8.63226563 -2.50976562 7.86328125 C-1.11328125 2.2265625 -1.11328125 2.2265625 0 0 Z " fill="#AEBCD5" transform="translate(665,150)"/>
<path d="M0 0 C3.625 0.25 3.625 0.25 5.5625 1.625 C6.625 3.25 6.625 3.25 6.625 5.25 C2.665 5.25 -1.295 5.25 -5.375 5.25 C-4.13915094 0.30660377 -4.13915094 0.30660377 0 0 Z " fill="#C82F4E" transform="translate(514.375,815.75)"/>
<path d="M0 0 C1.57159226 3.14318453 0.04018399 5.92933389 -0.9375 9.125 C-1.13279297 9.78371094 -1.32808594 10.44242188 -1.52929688 11.12109375 C-2.01304986 12.74933552 -2.50569075 14.37493182 -3 16 C-4.65 16.33 -6.3 16.66 -8 17 C-7.04795729 14.53905942 -6.08871944 12.08136396 -5.125 9.625 C-4.85558594 8.92632813 -4.58617187 8.22765625 -4.30859375 7.5078125 C-2.2265625 2.2265625 -2.2265625 2.2265625 0 0 Z " fill="#D3DBE8" transform="translate(588,662)"/>
<path d="M0 0 C2.45484649 2.13464912 3.68134222 3.70720291 4 7 C3.34 7.66 2.68 8.32 2 9 C2 8.34 2 7.68 2 7 C1.01 7.495 1.01 7.495 0 8 C-2.3329866 8.04022391 -4.66706666 8.04320247 -7 8 C-6.01 7.67 -5.02 7.34 -4 7 C-4 6.34 -4 5.68 -4 5 C-3.34 5 -2.68 5 -2 5 C-1.34 3.35 -0.68 1.7 0 0 Z " fill="#F5DCE1" transform="translate(250,817)"/>
<path d="M0 0 C4.25472632 -0.12156361 8.14497757 0.07248878 12 2 C11.67 2.99 11.34 3.98 11 5 C7.7 4.67 4.4 4.34 1 4 C0.67 2.68 0.34 1.36 0 0 Z " fill="#DDE3EE" transform="translate(146,667)"/>
<path d="M0 0 C2.475 0.495 2.475 0.495 5 1 C5.33 2.65 5.66 4.3 6 6 C4.02 6.33 2.04 6.66 0 7 C0 4.69 0 2.38 0 0 Z " fill="#DCE2ED" transform="translate(389,634)"/>
<path d="M0 0 C0.66 0.33 1.32 0.66 2 1 C-3.28 6.28 -8.56 11.56 -14 17 C-14 13.45595664 -13.39010515 12.89732095 -11.125 10.3125 C-10.32449219 9.37857422 -10.32449219 9.37857422 -9.5078125 8.42578125 C-8 7 -8 7 -6 7 C-6 6.34 -6 5.68 -6 5 C-4.04072937 3.2856382 -2.04119788 1.61594832 0 0 Z " fill="#C72C4C" transform="translate(389,257)"/>
<path d="M0 0 C0.66 0.33 1.32 0.66 2 1 C-2.95 5.95 -7.9 10.9 -13 16 C-13.66 15.67 -14.32 15.34 -15 15 C-10.39863498 9.46398272 -5.53601728 4.60136502 0 0 Z " fill="#DFE5EF" transform="translate(383,250)"/>
<path d="M0 0 C0.33 0 0.66 0 1 0 C1.99862699 7.36487404 2.10331031 14.57313685 2 22 C-0.64733073 19.35266927 -0.6142889 17.70109304 -1 14 C-0.91830804 11.53870023 -0.77084373 9.0788262 -0.5625 6.625 C-0.46066406 5.37976563 -0.35882812 4.13453125 -0.25390625 2.8515625 C-0.17011719 1.91054688 -0.08632813 0.96953125 0 0 Z " fill="#B2C0D8" transform="translate(675,580)"/>
<path d="M0 0 C2.3125 1.875 2.3125 1.875 3.125 4.5625 C3.186875 5.325625 3.24875 6.08875 3.3125 6.875 C1.4375 6.625 1.4375 6.625 -0.6875 5.875 C-1.3712045 4.55032254 -2.03714186 3.21636367 -2.6875 1.875 C-4.7210948 0.60695434 -4.7210948 0.60695434 -6.6875 -0.125 C-3.86097829 -1.27654588 -2.87424892 -1.20317396 0 0 Z " fill="#E2E7F0" transform="translate(613.6875,680.125)"/>
<path d="M0 0 C0.33 0 0.66 0 1 0 C1.03738281 0.94101562 1.07476562 1.88203125 1.11328125 2.8515625 C1.17902344 4.09679687 1.24476563 5.34203125 1.3125 6.625 C1.37050781 7.85476563 1.42851562 9.08453125 1.48828125 10.3515625 C2.01996453 14.1423425 3.10647796 16.70029671 5 20 C3.68 20 2.36 20 1 20 C-1.657623 13.27777713 -0.78767638 7.07844318 0 0 Z " fill="#CED6E6" transform="translate(341,640)"/>
<path d="M0 0 C2.31 0.66 4.62 1.32 7 2 C6.67 2.66 6.34 3.32 6 4 C4.02 4 2.04 4 0 4 C-0.33 5.32 -0.66 6.64 -1 8 C-2.32 7.67 -3.64 7.34 -5 7 C-3.35 4.69 -1.7 2.38 0 0 Z " fill="#F9EAED" transform="translate(241,826)"/>
<path d="M0 0 C2.31 0.33 4.62 0.66 7 1 C7.33 2.32 7.66 3.64 8 5 C4.85375007 5.26218749 3.38162983 5.24754367 0.6875 3.5 C0.130625 3.005 -0.42625 2.51 -1 2 C-0.67 1.34 -0.34 0.68 0 0 Z " fill="#DFE4EE" transform="translate(147,682)"/>
<path d="M0 0 C0.33 1.32 0.66 2.64 1 4 C-2.96 4.66 -6.92 5.32 -11 6 C-7.92832129 2.92832129 -4.55956968 0 0 0 Z " fill="#CAD3E4" transform="translate(306,448)"/>
<path d="M0 0 C1.32 0 2.64 0 4 0 C4.99 2.31 5.98 4.62 7 7 C6.01 7.495 6.01 7.495 5 8 C2.5 5.6875 2.5 5.6875 0 3 C0 2.01 0 1.02 0 0 Z " fill="#E0E6EF" transform="translate(618,666)"/>
<path d="M0 0 C0.66 0.33 1.32 0.66 2 1 C1.05125 1.78375 0.1025 2.5675 -0.875 3.375 C-4.8523213 7.2772775 -5.38464919 11.63159467 -6 17 C-6.33 17 -6.66 17 -7 17 C-7.38434943 12.19563218 -7.47968712 8.90975143 -5.1875 4.5625 C-3 2 -3 2 0 0 Z " fill="#EAB2BD" transform="translate(292,770)"/>
<path d="M0 0 C1 4 1 4 0 7 C3.3 7 6.6 7 10 7 C10 7.33 10 7.66 10 8 C5.9472484 8.98248524 2.16138263 9.08159574 -2 9 C-1.34 6.03 -0.68 3.06 0 0 Z " fill="#6883B2" transform="translate(307,657)"/>
<path d="M0 0 C0.66 0 1.32 0 2 0 C5 4.38461538 5 4.38461538 5 7 C3.35 7.33 1.7 7.66 0 8 C0 5.36 0 2.72 0 0 Z " fill="#C1CCDF" transform="translate(207,659)"/>
<path d="M0 0 C0.33 0 0.66 0 1 0 C1.33 2.64 1.66 5.28 2 8 C0.35 8 -1.3 8 -3 8 C-2.45276317 4.62537285 -1.9451 2.91765 0 0 Z " fill="#C4CEE1" transform="translate(502,647)"/>
<path d="M0 0 C1.32 0.33 2.64 0.66 4 1 C4 3.31 4 5.62 4 8 C3.67 8 3.34 8 3 8 C3 6.02 3 4.04 3 2 C-0.60654039 4.40436026 -0.85452932 5.94679607 -2 10 C-2.6875 8.375 -2.6875 8.375 -3 6 C-1.5625 2.75 -1.5625 2.75 0 0 Z " fill="#BECADE" transform="translate(569,653)"/>
<path d="M0 0 C0.66 0.33 1.32 0.66 2 1 C-0.97 3.97 -3.94 6.94 -7 10 C-7 6.04435836 -5.59478606 4.89133304 -3 2 C-2.01 1.34 -1.02 0.68 0 0 Z " fill="#F4D8DE" transform="translate(239,749)"/>
<path d="M0 0 C2.50037734 2.17424117 3.43628586 3.73045798 4 7 C2.35 7 0.7 7 -1 7 C-0.67 4.69 -0.34 2.38 0 0 Z " fill="#D1D9E7" transform="translate(322,643)"/>
<path d="M0 0 C0.99 0.66 1.98 1.32 3 2 C0.03 3.32 -2.94 4.64 -6 6 C-6 5.34 -6 4.68 -6 4 C-6.66 3.67 -7.32 3.34 -8 3 C-6.73637508 2.44172391 -5.4637081 1.90387903 -4.1875 1.375 C-3.47980469 1.07335937 -2.77210938 0.77171875 -2.04296875 0.4609375 C-1.36878906 0.30882813 -0.69460938 0.15671875 0 0 Z " fill="#CAD3E4" transform="translate(421,30)"/>
<path d="M0 0 C1 2 1 2 0.0625 5.125 C-0.288125 6.07375 -0.63875 7.0225 -1 8 C-1.66 8 -2.32 8 -3 8 C-2.25 2.25 -2.25 2.25 0 0 Z " fill="#E1E6EF" transform="translate(588,662)"/>
</svg>
