<svg xmlns="http://www.w3.org/2000/svg" id="NOUVEAU_LOGO_2024" data-name="NOUVEAU LOGO 2024" viewBox="0 0 53.06 66.28"><path d="M26.63,66.04h1.81c1.59,0,5.92-4.07,11.7-8.94,5.78-4.87,7.8-9.19,10.11-13.79,2.31-4.6,2.6-16.07,2.6-16.07V4.53s.29-1.35-4.33-.42c-4.62.93-11.55.15-14.73-.54-2.35-.51-5.17-2.58-6.43-3.23-.24-.12-.78-.09-.78-.09h-.09s-.54-.03-.78.09c-1.26.64-4.08,2.72-6.43,3.23-3.18.69-10.11,1.47-14.73.54C-.07,3.18.22,4.53.22,4.53v22.71s.29,11.48,2.6,16.07c2.31,4.6,4.33,8.92,10.11,13.79,5.78,4.87,10.11,8.94,11.7,8.94h2.01Z" fill="#201d5c" fill-rule="evenodd" stroke-width="0"></path><path d="M26.57,63.04h1.54c1.35,0,5.04-3.66,9.96-8.04,4.92-4.38,6.64-8.27,8.61-12.4,1.97-4.13,2.21-14.45,2.21-14.45V7.73s.25-1.21-3.69-.38c-3.93.84-9.84.14-12.54-.49-2-.46-4.4-2.32-5.48-2.9-.21-.11-.66-.08-.66-.08h-.07s-.46-.03-.66.08c-1.08.58-3.47,2.44-5.47,2.9-2.71.62-8.61,1.32-12.54.49-3.94-.84-3.69.38-3.69.38v20.42s.25,10.32,2.21,14.45c1.97,4.13,3.69,8.02,8.61,12.4,4.92,4.38,8.61,8.04,9.96,8.04h1.71Z" fill="#201d5c" fill-rule="evenodd" stroke-width="0"></path><path d="M4.06,7.88c8.61.88,16.33.08,22.3-4.01v59.12h-1.48C10.76,52.66,3.65,41.43,4.21,29.19l-.15-21.31Z" fill="#a10e0f" fill-rule="evenodd" stroke-width="0"></path><g><path d="M16.49,55.34v-.03c-.01-.09-.05-.19-.11-.29-.07-.13-.18-.25-.31-.36l-.4-.26v.5s0,.62,0,.62c0,.25,0,.49.04.72.02.13.06.27.12.4l.17.31.11.14.38-.44v-.49s0-.8,0-.8h0ZM13.48,54.67c-.04-.3-.03-.61-.02-.93l.04-.61.02-.42c0-.1-.02-.21-.07-.33l-.08-.14-.02-.04-.66.66v.07s-.02.33-.02.33v.28c.02.14.05.28.1.41l.17.31.27.31.29.21v-.02s-.03-.11-.03-.11h0ZM12.48,53.75v-.49s0-.12,0-.12v-.07s-.41.41-.41.41l.15.17.28.23v-.02s-.02-.12-.02-.12h0ZM17.08,55.51l-.4-.26v.05s0,.7,0,.7v.42s.6-.71.6-.71l-.19-.2h0ZM15.51,55.54v-.62s0-.42,0-.42c0-.1-.04-.21-.1-.33-.07-.13-.17-.25-.29-.36l-.38-.26-.03.74c-.02.39-.03.77.02,1.1.02.13.06.27.12.4.1.24.26.45.44.61l.29.19-.03-.13c-.05-.29-.05-.6-.04-.93h0ZM14.5,54.43l.02-.8c0-.1-.03-.21-.09-.32-.07-.13-.17-.25-.29-.36-.11-.1-.24-.19-.38-.27l-.03.48-.04.61c-.01.25-.01.49.02.72.02.13.06.28.11.41.1.24.26.46.44.63.09.08.19.14.29.2l-.03-.13c-.06-.36-.04-.76-.03-1.17Z" fill="#fff" fill-rule="evenodd" stroke-width="0"></path><path d="M20.55,58.79v-.03c-.01-.09-.05-.19-.11-.29-.07-.13-.18-.25-.31-.36l-.4-.26v.49s-.01.62-.01.62c0,.25,0,.49.04.72.02.13.06.27.12.4l.18.31.12.14.38-.45v-.49s0-.81,0-.81h0ZM17.53,58.15c-.04-.29-.04-.6-.04-.93v-.62s0-.42,0-.42c0-.1-.04-.21-.11-.32l-.09-.13-.03-.04-.61.71v.07s.01.33.01.33l.03.27c.02.13.06.27.12.4l.17.31.27.3.29.19v-.02s-.03-.11-.03-.11h0ZM16.53,57.3l-.04-.48v-.12s0-.07,0-.07l-.38.44.16.16.29.19v-.02s-.03-.11-.03-.11h0ZM21.13,58.96l-.4-.26v.05s0,.7,0,.7v.42s.6-.72.6-.72l-.19-.19h0ZM19.56,58.99v-.62s0-.42,0-.42c0-.1-.04-.21-.11-.32-.07-.13-.18-.25-.31-.36l-.4-.26v.74c-.02.39-.03.76.02,1.09.02.13.06.27.12.4.1.24.26.45.44.61l.29.19-.03-.13c-.05-.29-.05-.6-.04-.93h0ZM18.55,57.89v-.8c0-.1-.04-.21-.1-.32-.07-.13-.18-.25-.31-.36l-.4-.26v.49s-.01.62-.01.62c0,.25,0,.49.04.72.02.13.06.27.12.4.1.24.26.45.44.61l.29.19-.03-.13c-.06-.36-.05-.75-.03-1.16Z" fill="#fff" fill-rule="evenodd" stroke-width="0"></path><path d="M24.65,62.08v-.03c-.02-.09-.06-.18-.13-.28-.08-.12-.19-.23-.32-.33l-.4-.23.02.49.03.62c.02.25.04.49.1.72.04.13.1.27.18.4.07.11.12.2.33.34l.3.18.14-.57c-.1-.18-.15-.36-.16-.52l-.08-.79h0ZM21.62,61.6c-.05-.29-.06-.6-.06-.93v-.62s0-.42,0-.42c0-.1-.04-.21-.11-.32l-.09-.13-.03-.04-.6.72v.07s.01.33.01.33l.03.27c.02.13.07.27.13.4l.18.31.28.3.3.19v-.02s-.03-.11-.03-.11h0ZM20.59,60.75l-.05-.48v-.12s0-.07,0-.07l-.38.45.16.15.3.19v-.02s-.03-.11-.03-.11h0ZM25.19,62.14s0,.02-.01.06l-.22.91c-.06-.15-.08-.29-.08-.42l-.05-.68v-.04c.13.04.3.13.37.17h0ZM23.69,62.36c.02.32.04.63.12.93l.05.13-.33-.18c-.21-.15-.38-.35-.5-.59-.06-.13-.11-.27-.14-.4-.07-.33-.07-.7-.08-1.08v-.75s.39.25.39.25c.13.1.24.22.32.34.07.11.11.22.12.32l.02.42.02.61h0ZM22.63,61.31v-.81c-.02-.1-.06-.21-.13-.32-.07-.13-.18-.25-.31-.36l-.4-.25v.49s0,.62,0,.62c0,.25.01.49.05.72.02.13.07.27.13.4.11.24.28.44.47.6l.31.19-.04-.13c-.07-.36-.08-.75-.08-1.15Z" fill="#fff" fill-rule="evenodd" stroke-width="0"></path><path d="M27.5,62.42l-.02-.02-.16-.16c-.08-.05-.16-.08-.25-.08-.08,0-.15.02-.23.06l.19.38.26.48c.12.19.24.37.37.51l.27.22.24.11.13.03-.14-.57-.27-.37-.4-.61h0ZM25.96,63.88c-.14-.19-.24-.43-.33-.68l-.15-.47-.09-.31-.11-.17-.07-.04s0-.03-.03.02l-.21.88v.05s.09.24.09.24l.08.19.19.23.2.12c.09.03.17.06.26.06l.24-.04h-.01s-.05-.08-.05-.08h0ZM25.09,63.86l.05.07h0s-.24.05-.24.05c-.05-.01-.1.02-.14-.05l.13-.55v.06s.04.08.04.08l.15.34h0ZM27.74,62.17l.14.03.22.91-.23-.32-.34-.53-.02-.03c.07-.04.15-.05.23-.05h0ZM27.25,63.2c.15.25.3.48.48.67l.08.08-.23.05c-.17,0-.34-.06-.5-.17l-.24-.23c-.17-.22-.3-.51-.44-.81l-.24-.57c.08-.04.16-.06.24-.06.09,0,.2.03.27.08l.15.18.16.31.26.48h0ZM26.37,63.02c.15.32.28.62.48.86l.07.08-.23.04c-.15,0-.3-.06-.46-.18l-.22-.23c-.1-.15-.18-.33-.26-.52l-.16-.48-.11-.37c.09-.04.17-.06.25-.07.09,0,.16.02.23.07l.14.18.27.61Z" fill="#fff" fill-rule="evenodd" stroke-width="0"></path><path d="M31.26,59.84h-.03c-.09,0-.2,0-.3.05-.14.05-.28.13-.41.24-.12.1-.23.21-.33.35l.48.09.61.12c.25.05.49.08.71.09.13,0,.28-.01.42-.05l.34-.12.16-.09-.38-.45-.48-.09-.79-.14h0ZM30.05,62.7c-.3-.02-.61-.08-.92-.16l-.59-.17-.39-.11c-.08-.03-.25,0-.25-.05h-.02s0-.04,0,.02l.22.88.05.03.33.09c.12.01.19.03.28.04.14.01.29,0,.44-.02l.35-.1.37-.2.26-.25h-.02s-.11,0-.11,0h0ZM28.93,63.51c-.14-.03-.36-.02-.56-.06l-.13-.03-.07-.03.13.55c.15,0,.27-.09.4-.14.24-.13.24-.17.36-.28h-.14ZM31.52,59.29l.23-.16.6.72-.42-.08-.69-.13h-.05c.1-.14.21-.26.33-.36h0ZM31.28,60.85c.32.06.62.12.92.12h.13s-.24.25-.24.25c-.19.16-.43.27-.68.34-.14.03-.28.05-.42.04-.33,0-.7-.09-1.08-.18l-.72-.16c.1-.13.21-.24.33-.33.13-.1.28-.18.41-.23.12-.04.24-.06.34-.04l.41.07.6.12h0ZM30.01,61.65c.4.09.78.18,1.15.18h.13s-.25.25-.25.25c-.2.15-.44.27-.7.32-.14.03-.29.04-.42.04-.22-.01-.47-.06-.71-.12l-.6-.16-.46-.14.33-.31c.13-.1.28-.17.41-.21.12-.03.24-.05.34-.03l.78.17Z" fill="#fff" fill-rule="evenodd" stroke-width="0"></path><path d="M35.33,56.4h-.03c-.09,0-.2.01-.31.06-.14.05-.28.14-.41.25-.12.1-.23.22-.32.36l.49.07.62.11c.25.04.49.07.71.08.13,0,.28-.02.42-.05l.33-.12.16-.09-.38-.44-.48-.09-.8-.13h0ZM34.21,59.28c-.3,0-.6-.05-.92-.11l-.6-.11-.41-.06c-.1-.01-.22,0-.34.05l-.14.07-.04.02.6.72h.07s.33.06.33.06l.27.02c.13,0,.28-.02.42-.05l.33-.12.34-.22.24-.26h-.02s-.11,0-.11,0h0ZM33.2,60.14l-.49-.04-.12-.02h-.07s.38.44.38.44l.18-.13.24-.26h-.02s-.11,0-.11,0h0ZM35.59,55.84l.22-.16.61.71-.42-.07-.69-.11h-.05c.1-.14.21-.26.32-.36h0ZM35.36,57.41c.32.06.62.1.92.11h.13s-.24.25-.24.25c-.19.16-.42.28-.67.34-.14.04-.28.05-.42.05-.33,0-.7-.07-1.08-.14l-.74-.12c.1-.14.21-.26.32-.35.13-.11.27-.2.41-.25.12-.05.24-.07.34-.06l.41.06.61.11h0ZM34.12,58.23c.4.08.78.14,1.15.15h.13s-.24.25-.24.25c-.19.16-.42.28-.67.34-.14.03-.28.05-.42.05-.23,0-.46-.03-.71-.08l-.61-.11-.49-.08c.1-.14.21-.25.32-.35.13-.11.27-.2.41-.25.12-.05.24-.07.34-.05l.79.13Z" fill="#fff" fill-rule="evenodd" stroke-width="0"></path><path d="M39.33,52.92h-.03c-.09,0-.19.02-.3.06-.13.05-.27.14-.39.25-.11.1-.21.22-.3.35l.48.07.62.09c.25.03.5.06.73.05.14,0,.28-.03.42-.08l.32-.16.16-.11-.42-.41-.48-.04-.79-.07h0ZM38.28,55.82c-.3,0-.6-.05-.92-.11l-.61-.11-.41-.06c-.1-.01-.22,0-.34.05l-.14.07-.04.02.61.71h.07s.32.05.32.05l.27.02c.13,0,.28-.02.42-.05l.33-.12.34-.22.24-.26h-.02s-.11,0-.11,0h0ZM37.27,56.67l-.48-.04-.11-.02h-.07s.38.44.38.44l.18-.13.24-.26h-.02s-.11,0-.11,0h0ZM39.54,52.35c-.1.11-.2.24-.28.37h.04s.68.07.68.07l.42.04-.66-.66-.2.18h0ZM39.41,53.91c.32.05.64.08.94.07h.14s-.24.26-.24.26c-.19.17-.42.3-.68.37-.14.04-.29.06-.42.07-.33,0-.7-.05-1.07-.12l-.73-.12c.1-.13.21-.26.32-.36.12-.11.26-.2.39-.25.12-.05.23-.07.33-.06l.41.05.61.09h0ZM38.18,54.77c.4.07.77.13,1.15.12h.13s-.24.26-.24.26c-.19.17-.42.3-.67.37-.14.03-.28.05-.42.05-.22,0-.46-.04-.71-.08l-.61-.11-.49-.08c.1-.13.21-.26.32-.35.13-.11.27-.2.41-.25.12-.05.24-.07.34-.05l.79.13Z" fill="#fff" fill-rule="evenodd" stroke-width="0"></path><path d="M42.76,48.99h-.03c-.09.02-.18.06-.28.13-.12.08-.23.19-.33.32l-.23.4h.49s.61-.04.61-.04c.25-.01.49-.04.71-.09.13-.03.27-.09.4-.16l.3-.21.14-.13-.48-.33-.5.04-.8.06h0ZM42.21,52.04c-.29.05-.6.05-.93.02l-.62-.05-.42-.02c-.1,0-.21.03-.33.08l-.13.08-.04.02.66.66h.07s.33.02.33.02h.27c.14-.03.28-.06.42-.11l.33-.16c.12-.08.24-.16.32-.27l.2-.3h-.02s-.11.03-.11.03h0ZM41.28,53.03h-.49s-.12,0-.12,0h-.07s.41.41.41.41l.17-.15.22-.29h-.02s-.11.02-.11.02h0ZM42.88,48.4l-.22.41h.04s.7-.05.7-.05l.43-.03-.77-.53-.18.2h0ZM43.03,49.96c.32-.01.63-.04.92-.11l.13-.04-.18.31c-.15.21-.35.38-.59.5-.12.07-.28.11-.41.14-.34.06-.71.06-1.1.05h-.74s.25-.4.25-.4c.11-.13.23-.23.35-.3.11-.06.22-.1.32-.11l.42-.02.61-.02h0ZM41.96,51.01h-.8c-.1,0-.21.03-.32.09-.12.07-.25.16-.37.29-.1.11-.2.23-.28.37l.49.03.63.05c.26.02.49,0,.71-.03.13-.02.27-.06.41-.12.24-.11.46-.27.62-.46l.2-.3-.13.03c-.37.07-.76.07-1.17.06Z" fill="#fff" fill-rule="evenodd" stroke-width="0"></path><g><path d="M9.42,47.71v-.03c.02-.09.02-.19,0-.3-.03-.14-.09-.29-.18-.43l-.29-.36-.16.46-.2.58c-.08.24-.14.47-.17.7-.02.13-.02.28,0,.43l.08.35.07.17.48-.33.14-.47.23-.77h0ZM6.76,46.13c.06-.29.17-.58.3-.88l.24-.57.15-.39c.03-.09.04-.21.02-.34l-.04-.15v-.04s-.84.43-.84.43l-.03.06-.11.31-.07.26c-.03.13-.04.28-.04.42l.05.35.14.39.21.29v-.02s.02-.11.02-.11h0ZM6.14,44.95l-.02.11v.02s-.21-.29-.21-.29l-.09-.2.52-.27-.02.06-.04.11-.14.46h0ZM9.92,48.02l.13.24-.77.53.12-.41.21-.67v-.04c.13.11.23.23.31.35h0ZM8.42,47.61c-.1.31-.19.6-.23.9v.13s-.24-.28-.24-.28c-.14-.21-.23-.46-.26-.72-.02-.14,0-.29.02-.43.06-.33.19-.68.34-1.04l.26-.69c.11.12.21.24.28.37.08.15.14.3.16.44.02.13.02.24,0,.34l-.13.4-.2.58h0ZM7.81,46.24c-.15.38-.29.74-.35,1.11l-.02.13-.21-.29c-.13-.22-.2-.47-.22-.73,0-.15,0-.29.02-.42.04-.22.13-.45.22-.69l.24-.57.18-.46c.11.12.2.25.27.38.08.15.13.3.15.45.02.13.01.25-.02.34l-.28.75Z" fill="#fff" fill-rule="evenodd" stroke-width="0"></path><path d="M12.63,51.79v-.03c0-.09-.02-.19-.07-.29-.06-.13-.15-.26-.26-.38-.09-.11-.21-.22-.34-.31l-.08.49-.1.61c-.03.25-.05.49-.04.71,0,.13.04.28.08.42l.15.33.1.16.41-.41.05-.49.08-.79h0ZM9.73,50.7c.02-.31.08-.61.16-.93l.16-.6.09-.4c.02-.1.01-.21-.02-.33l-.05-.14-.02-.04-.77.53-.02.06-.07.32-.04.27c-.01.13,0,.28.02.42l.1.34.2.37.25.26v-.02s0-.11,0-.11h0ZM8.93,49.61l.07-.48.03-.11v-.06s-.47.33-.47.33l.12.19.25.27v-.13h0ZM13.19,52c-.1-.11-.23-.2-.36-.29v.05s-.08.69-.08.69l-.05.42.66-.66-.17-.21h0ZM11.62,51.88c-.04.32-.07.62-.05.92l.02.13-.28-.23c-.18-.18-.31-.41-.38-.67-.04-.14-.06-.29-.06-.43,0-.34.07-.7.15-1.08l.14-.72c.13.1.25.2.34.31.11.13.19.26.24.4.04.12.06.23.05.33l-.06.41-.1.61h0ZM10.79,50.63c-.08.4-.15.78-.15,1.15v.14s-.26-.25-.26-.25c-.16-.19-.28-.43-.35-.69-.04-.14-.05-.29-.05-.42.01-.23.06-.47.12-.72l.16-.6.12-.47c.12.1.23.22.32.34.1.13.17.28.21.41.04.12.04.24.03.34l-.15.78Z" fill="#fff" fill-rule="evenodd" stroke-width="0"></path><path d="M45.49,44.52h-.03c-.09.04-.18.1-.26.17-.11.1-.21.23-.28.38l-.17.44.48-.09.61-.12c.25-.05.48-.11.69-.19.13-.05.25-.12.37-.21l.26-.24.12-.15-.52-.27-.48.1-.79.17h0ZM45.45,47.62c-.29.09-.6.14-.92.18l-.61.07-.41.06c-.1.02-.2.06-.3.14l-.11.1-.03.03.77.53h.07s.32-.06.32-.06l.26-.06c.13-.04.26-.1.39-.18l.29-.22.27-.32c.07-.1.12-.21.15-.33h-.02s-.1.05-.1.05h0ZM44.71,48.76l.11-.04h.02s-.16.32-.16.32l-.14.18-.48-.33h.07s.11-.03.11-.03l.47-.1h0ZM45.53,43.91l.15-.23.83.43-.41.09-.69.15h-.04s.17-.43.17-.43h0ZM45.9,45.44c.32-.06.62-.13.9-.24l.12-.06-.13.33c-.12.22-.29.42-.5.57-.12.08-.25.15-.38.2-.32.11-.68.17-1.07.23l-.73.12.18-.43c.08-.15.19-.27.3-.36.1-.08.2-.14.3-.16l.41-.09.6-.11h0ZM45.02,46.65c.4-.06.78-.13,1.13-.26l.12-.05-.14.33c-.13.22-.31.41-.52.56-.12.08-.25.15-.38.19-.21.07-.46.11-.71.15l-.62.07-.49.06.2-.42c.09-.14.2-.26.31-.35.1-.08.21-.13.3-.15l.79-.14Z" fill="#fff" fill-rule="evenodd" stroke-width="0"></path><path d="M47.6,39.79l-.03.02c-.08.05-.16.12-.22.21-.08.11-.15.25-.2.41-.04.14-.08.28-.09.44l.46-.16.57-.23c.23-.1.45-.21.64-.34.11-.08.22-.18.31-.29l.2-.3.08-.17-.57-.13-.44.22-.72.35h0ZM48,42.85c-.28.11-.58.19-.89.26l-.6.13-.4.1c-.1.03-.2.09-.29.18l-.1.12-.03.03.83.43.07-.02.31-.08.26-.09c.12-.05.25-.12.36-.21l.26-.24.23-.34.12-.33h-.02s-.1.06-.1.06h0ZM47.4,44.04l.1-.05h.02s-.12.32-.12.32l-.11.19-.52-.27.06-.02.11-.03.46-.15h0ZM47.49,39.2l.09-.25.91.21-.38.18-.63.3-.04.02c0-.16.02-.32.05-.46h0ZM48.19,40.6c.3-.12.58-.26.84-.43l.1-.08c0,.12-.02.24-.06.36-.08.25-.2.49-.39.69-.11.11-.22.2-.34.27-.29.17-.66.29-1.03.37l-.71.17c.04-.16.09-.32.14-.43.06-.14.14-.26.24-.35.08-.09.17-.16.26-.19l.38-.14.57-.22h0ZM47.5,41.93c.38-.09.78-.22,1.1-.42l.11-.08-.09.37c-.11.25-.28.5-.49.67-.11.09-.24.16-.36.21-.21.09-.44.15-.69.21l-.61.13-.48.12.16-.45c.08-.15.17-.29.28-.39.1-.09.19-.15.29-.18l.78-.19Z" fill="#fff" fill-rule="evenodd" stroke-width="0"></path><path d="M9.42,47.71v-.03c.02-.09.02-.19,0-.3-.03-.14-.09-.29-.18-.43l-.29-.36-.16.46-.2.58c-.08.24-.14.47-.17.7-.02.13-.02.28,0,.43l.08.35.07.17.48-.33.14-.47.23-.77h0ZM6.76,46.13c.06-.29.17-.58.3-.88l.24-.57.15-.39c.03-.09.04-.21.02-.34l-.04-.15v-.04s-.84.43-.84.43l-.03.06-.11.31-.07.26c-.03.13-.04.28-.04.42l.05.35.14.39.21.29v-.02s.02-.11.02-.11h0ZM6.14,44.95l-.02.11v.02s-.21-.29-.21-.29l-.09-.2.52-.27-.02.06-.04.11-.14.46h0ZM9.92,48.02l.13.24-.77.53.12-.41.21-.67v-.04c.13.11.23.23.31.35h0ZM8.42,47.61c-.1.31-.19.6-.23.9v.13s-.24-.28-.24-.28c-.14-.21-.23-.46-.26-.72-.02-.14,0-.29.02-.43.06-.33.19-.68.34-1.04l.26-.69c.11.12.21.24.28.37.08.15.14.3.16.44.02.13.02.24,0,.34l-.13.4-.2.58h0ZM7.81,46.24c-.15.38-.29.74-.35,1.11l-.02.13-.21-.29c-.13-.22-.2-.47-.22-.73,0-.15,0-.29.02-.42.04-.22.13-.45.22-.69l.24-.57.18-.46c.11.12.2.25.27.38.08.15.13.3.15.45.02.13.01.25-.02.34l-.28.75Z" fill="#fff" fill-rule="evenodd" stroke-width="0"></path><path d="M12.63,51.79v-.03c0-.09-.02-.19-.07-.29-.06-.13-.15-.26-.26-.38-.09-.11-.21-.22-.34-.31l-.08.49-.1.61c-.03.25-.05.49-.04.71,0,.13.04.28.08.42l.15.33.1.16.41-.41.05-.49.08-.79h0ZM9.73,50.7c.02-.31.08-.61.16-.93l.16-.6.09-.4c.02-.1.01-.21-.02-.33l-.05-.14-.02-.04-.77.53-.02.06-.07.32-.04.27c-.01.13,0,.28.02.42l.1.34.2.37.25.26v-.02s0-.11,0-.11h0ZM8.93,49.61l.07-.48.03-.11v-.06s-.47.33-.47.33l.12.19.25.27v-.13h0ZM13.19,52c-.1-.11-.23-.2-.36-.29v.05s-.08.69-.08.69l-.05.42.66-.66-.17-.21h0ZM11.62,51.88c-.04.32-.07.62-.05.92l.02.13-.28-.23c-.18-.18-.31-.41-.38-.67-.04-.14-.06-.29-.06-.43,0-.34.07-.7.15-1.08l.14-.72c.13.1.25.2.34.31.11.13.19.26.24.4.04.12.06.23.05.33l-.06.41-.1.61h0ZM10.79,50.63c-.08.4-.15.78-.15,1.15v.14s-.26-.25-.26-.25c-.16-.19-.28-.43-.35-.69-.04-.14-.05-.29-.05-.42.01-.23.06-.47.12-.72l.16-.6.12-.47c.12.1.23.22.32.34.1.13.17.28.21.41.04.12.04.24.03.34l-.15.78Z" fill="#fff" fill-rule="evenodd" stroke-width="0"></path><path d="M45.49,44.52h-.03c-.09.04-.18.1-.26.17-.11.1-.21.23-.28.38l-.17.44.48-.09.61-.12c.25-.05.48-.11.69-.19.13-.05.25-.12.37-.21l.26-.24.12-.15-.52-.27-.48.1-.79.17h0ZM45.45,47.62c-.29.09-.6.14-.92.18l-.61.07-.41.06c-.1.02-.2.06-.3.14l-.11.1-.03.03.77.53h.07s.32-.06.32-.06l.26-.06c.13-.04.26-.1.39-.18l.29-.22.27-.32c.07-.1.12-.21.15-.33h-.02s-.1.05-.1.05h0ZM44.71,48.76l.11-.04h.02s-.16.32-.16.32l-.14.18-.48-.33h.07s.11-.03.11-.03l.47-.1h0ZM45.53,43.91l.15-.23.83.43-.41.09-.69.15h-.04s.17-.43.17-.43h0ZM45.9,45.44c.32-.06.62-.13.9-.24l.12-.06-.13.33c-.12.22-.29.42-.5.57-.12.08-.25.15-.38.2-.32.11-.68.17-1.07.23l-.73.12.18-.43c.08-.15.19-.27.3-.36.1-.08.2-.14.3-.16l.41-.09.6-.11h0ZM45.02,46.65c.4-.06.78-.13,1.13-.26l.12-.05-.14.33c-.13.22-.31.41-.52.56-.12.08-.25.15-.38.19-.21.07-.46.11-.71.15l-.62.07-.49.06.2-.42c.09-.14.2-.26.31-.35.1-.08.21-.13.3-.15l.79-.14Z" fill="#fff" fill-rule="evenodd" stroke-width="0"></path><path d="M47.6,39.79l-.03.02c-.08.05-.16.12-.22.21-.08.11-.15.25-.2.41-.04.14-.08.28-.09.44l.46-.16.57-.23c.23-.1.45-.21.64-.34.11-.08.22-.18.31-.29l.2-.3.08-.17-.57-.13-.44.22-.72.35h0ZM48,42.85c-.28.11-.58.19-.89.26l-.6.13-.4.1c-.1.03-.2.09-.29.18l-.1.12-.03.03.83.43.07-.02.31-.08.26-.09c.12-.05.25-.12.36-.21l.26-.24.23-.34.12-.33h-.02s-.1.06-.1.06h0ZM47.4,44.04l.1-.05h.02s-.12.32-.12.32l-.11.19-.52-.27.06-.02.11-.03.46-.15h0ZM47.49,39.2l.09-.25.91.21-.38.18-.63.3-.04.02c0-.16.02-.32.05-.46h0ZM48.19,40.6c.3-.12.58-.26.84-.43l.1-.08c0,.12-.02.24-.06.36-.08.25-.2.49-.39.69-.11.11-.22.2-.34.27-.29.17-.66.29-1.03.37l-.71.17c.04-.16.09-.32.14-.43.06-.14.14-.26.24-.35.08-.09.17-.16.26-.19l.38-.14.57-.22h0ZM47.5,41.93c.38-.09.78-.22,1.1-.42l.11-.08-.09.37c-.11.25-.28.5-.49.67-.11.09-.24.16-.36.21-.21.09-.44.15-.69.21l-.61.13-.48.12.16-.45c.08-.15.17-.29.28-.39.1-.09.19-.15.29-.18l.78-.19Z" fill="#fff" fill-rule="evenodd" stroke-width="0"></path><g><path d="M3.93,11.84l.02-.03c.06-.07.12-.17.15-.28.05-.14.08-.31.08-.48,0-.15-.02-.31-.06-.47l-.37.36-.48.44c-.19.18-.37.36-.52.54l-.23.37-.12.34-.04.18.58-.05.38-.34.61-.57h0ZM2.46,9.27c.19-.24.43-.47.68-.7l.47-.44.31-.31c.07-.08.13-.18.18-.31l.04-.16v-.05s-.92.1-.92.1l-.05.05-.24.25-.19.22-.23.37-.12.34c-.04.14-.05.27-.05.4l.04.34v-.02s.08-.1.08-.1h0ZM2.47,7.95l-.07.1v.02s-.05-.34-.05-.34l.02-.22.58-.06-.05.05-.09.09-.34.38h0ZM4.18,12.38l-.02.28-.93.08.33-.29.53-.5.03-.03c.04.16.06.32.06.47h0ZM3.14,11.28c-.25.23-.48.45-.68.69l-.08.11-.04-.34c0-.25.06-.5.17-.74l.23-.37c.22-.27.5-.53.8-.8l.57-.54c.04.16.06.32.06.47,0,.17-.03.34-.07.48-.04.13-.11.24-.18.31l-.31.31-.48.43h0ZM3.32,9.78c-.32.29-.61.56-.85.86l-.08.11-.04-.34c0-.24.06-.5.18-.74l.23-.37c.15-.18.33-.36.52-.55l.48-.45.37-.36c.04.16.06.32.06.47,0,.17-.03.34-.07.48-.04.13-.1.24-.18.31l-.61.58Z" fill="#fff" fill-rule="evenodd" stroke-width="0"></path><path d="M3.93,17.18l.02-.03c.06-.07.11-.17.15-.28.05-.14.07-.31.07-.48,0-.15-.02-.31-.06-.47l-.37.35-.48.42c-.19.17-.37.34-.52.52l-.23.36-.12.34-.04.18.58-.03.38-.33.61-.56h0ZM2.46,14.57c.19-.24.43-.45.68-.68l.48-.43.31-.3c.07-.07.13-.18.18-.31l.04-.16v-.04s-.92.08-.92.08l-.05.05-.24.24-.19.21-.23.37-.12.34c-.03.13-.05.27-.05.4l.04.34v-.02s.08-.09.08-.09h0ZM2.46,13.25l-.07.09v.02s-.05-.34-.05-.34l.02-.22.58-.05-.05.05-.09.08-.34.37h0ZM4.18,17.73l-.02.28-.93.05.33-.29.54-.48.03-.03c.04.16.06.32.06.47h0ZM3.14,16.6c-.25.22-.48.43-.68.67l-.08.11-.04-.34c0-.24.06-.5.18-.74l.23-.36c.22-.26.5-.51.81-.78l.57-.52c.04.16.06.32.06.47,0,.17-.03.34-.08.48-.04.13-.1.23-.18.3l-.31.3-.48.42h0ZM3.32,15.11c-.32.28-.62.54-.86.83l-.08.11-.04-.34c0-.24.06-.5.17-.74l.23-.37c.15-.18.33-.35.52-.53l.48-.43.37-.35c.04.16.06.32.06.47,0,.17-.03.34-.07.48-.04.13-.1.23-.18.31l-.61.56Z" fill="#fff" fill-rule="evenodd" stroke-width="0"></path><path d="M3.93,22.53l.02-.02c.06-.07.12-.16.15-.27.05-.14.08-.3.08-.48,0-.15-.02-.31-.06-.47l-.38.33-.48.41c-.19.17-.37.33-.52.51l-.23.35-.12.33-.04.18h.59s.38-.33.38-.33l.61-.54h0ZM2.46,19.87c.19-.23.43-.44.68-.66l.48-.41.31-.29c.07-.07.13-.18.18-.3l.04-.16v-.04s-.92.05-.92.05l-.05.05-.24.23-.19.2-.23.36-.12.33c-.03.13-.05.27-.05.4l.04.34v-.02s.08-.09.08-.09h0ZM2.46,18.55l-.07.09v.02s-.05-.34-.05-.34l.02-.22.58-.03-.05.05-.09.08-.34.36h0ZM4.18,23.08l-.02.28-.93.02.33-.27.54-.47.03-.03c.04.16.06.32.06.48h0ZM3.14,21.92c-.25.21-.48.42-.68.65l-.08.11-.04-.34c0-.24.06-.5.18-.73l.23-.36c.22-.26.5-.5.81-.76l.57-.5c.04.16.06.32.06.47,0,.17-.03.34-.08.48-.04.13-.11.23-.18.3l-.31.29-.48.4h0ZM3.32,20.44c-.32.27-.62.52-.86.8l-.08.11-.04-.34c0-.24.06-.5.18-.73l.23-.36c.15-.18.33-.34.52-.51l.48-.42.37-.34c.04.16.06.32.06.47,0,.17-.03.34-.08.48-.04.13-.11.23-.18.3l-.61.55Z" fill="#fff" fill-rule="evenodd" stroke-width="0"></path><path d="M3.95,27.85l.02-.02c.06-.07.11-.16.15-.27.05-.16.06-.27.06-.45,0-.15-.02-.31-.06-.48l-.38.32-.48.4c-.19.17-.36.33-.5.51l-.22.36-.11.34-.03.18.58-.03.36-.33.59-.54h0ZM2.46,25.17c.19-.23.43-.43.68-.64l.48-.4.31-.28c.07-.07.13-.17.18-.3l.04-.15v-.05s-.92.02-.92.02l-.05.05-.24.22-.19.2-.23.35-.12.33c-.03.13-.05.27-.05.4l.04.35v-.02s.08-.09.08-.09h0ZM2.46,23.86l-.07.09v.02s-.05-.35-.05-.35l.02-.22h.58s-.05.03-.05.03l-.09.08-.34.35h0ZM4.23,28.38v.27s-.94.05-.94.05l.31-.28.52-.47.03-.03c.04.16.07.31.08.46h0ZM3.14,27.25c-.24.21-.47.42-.66.66l-.08.11-.05-.35c0-.23.04-.53.16-.76l.23-.35c.22-.25.5-.48.81-.73l.57-.49c.04.16.06.32.06.48,0,.17-.03.34-.08.48-.04.12-.11.23-.18.29l-.31.28-.48.39h0ZM3.32,25.76c-.32.26-.62.5-.86.78l-.08.1-.04-.35c0-.24.06-.5.17-.73l.23-.35c.15-.17.33-.33.52-.5l.48-.4.38-.33c.04.16.06.32.06.48,0,.17-.03.34-.08.47-.04.12-.11.23-.18.3l-.61.53Z" fill="#fff" fill-rule="evenodd" stroke-width="0"></path><path d="M4.34,33.11l.02-.03c.05-.07.1-.17.13-.28.04-.14.05-.3.03-.47-.01-.15-.05-.31-.11-.46l-.34.35-.44.44c-.18.18-.34.36-.47.54l-.19.38-.08.35-.02.19.58-.07.34-.35.55-.58h0ZM2.63,30.54c.18-.24.4-.46.63-.68l.45-.42.3-.29c.07-.07.12-.17.16-.3l.03-.15v-.04s-.93.05-.93.05l-.05.05-.23.23-.18.21-.21.37-.1.34c-.03.14-.04.27-.03.41l.07.35v-.02s.07-.09.07-.09h0ZM2.54,29.21l-.06.09v.02s-.07-.35-.07-.35v-.22s.59-.03.59-.03l-.05.05-.08.08-.32.36h0ZM4.65,33.63v.27s-.92.11-.92.11l.3-.3.48-.5.03-.03c.06.15.09.31.11.46h0ZM3.49,32.57c-.23.23-.44.45-.61.7l-.07.11-.08-.35c-.02-.25.01-.51.1-.75l.2-.37c.2-.27.46-.53.74-.79l.53-.52c.05.16.08.31.1.46.01.17,0,.33-.04.47-.03.12-.09.23-.15.3l-.29.3-.44.43h0ZM3.53,31.08c-.3.28-.57.55-.79.85l-.07.11-.07-.35c-.02-.25.02-.51.11-.75l.2-.37c.14-.18.3-.36.48-.53l.46-.42.35-.34c.05.16.08.31.09.46,0,.17,0,.33-.04.47-.04.12-.09.23-.16.3l-.57.56Z" fill="#fff" fill-rule="evenodd" stroke-width="0"></path><path d="M5.11,38.31l.02-.03c.05-.08.08-.18.1-.29.02-.14.02-.3-.01-.47-.03-.15-.08-.3-.14-.44l-.31.38-.4.47c-.16.2-.31.39-.41.59l-.15.4-.05.36v.19s.58-.14.58-.14l.3-.39.49-.63h0ZM3.2,35.89c.16-.25.36-.49.58-.72l.42-.45.28-.31c.06-.08.11-.18.14-.31l.02-.15v-.04s-.92.11-.92.11l-.05.05-.21.25-.16.22-.18.38-.08.35c-.02.14-.02.28,0,.41l.09.34v-.02s.06-.1.06-.1h0ZM3.02,34.56l-.06.1v.02s-.1-.35-.1-.35v-.22s.57-.07.57-.07l-.04.05-.08.09-.3.38h0ZM5.48,38.78l.04.26-.91.22.26-.33.43-.55.03-.04c.07.15.12.29.16.44h0ZM4.22,37.85c-.21.25-.4.49-.54.76l-.06.12-.12-.34c-.05-.25-.03-.51.03-.77l.16-.39c.17-.29.42-.56.68-.85l.49-.56c.06.15.11.3.13.45.03.17.03.33,0,.47-.02.13-.07.23-.13.31l-.26.32-.4.47h0ZM4.14,36.36c-.27.3-.53.59-.72.91l-.06.12-.1-.34c-.04-.25-.02-.51.05-.76l.18-.39c.12-.19.28-.38.45-.56l.43-.45.33-.36c.06.15.1.31.12.46.02.17.02.33,0,.47-.03.13-.07.23-.14.31l-.53.6Z" fill="#fff" fill-rule="evenodd" stroke-width="0"></path><path d="M6.85,43.13v-.03c.04-.09.04-.19.03-.31-.02-.15-.07-.3-.15-.45-.07-.13-.16-.27-.27-.39l-.19.45-.25.57c-.1.23-.19.46-.24.68l-.05.42.04.35.05.18.52-.27.2-.45.31-.74h0ZM4.37,41.23c.1-.29.27-.56.45-.83l.35-.5.24-.34c.05-.08.09-.19.1-.32v-.15s0-.04,0-.04l-.91.22-.04.05-.18.27-.13.24c-.06.12-.11.26-.13.41l-.02.37.07.42.16.34v-.02s.04-.11.04-.11h0ZM3.97,39.9l-.04.11v.02s-.13-.34-.13-.34l-.04-.22.57-.13-.04.05-.07.1-.25.42h0ZM7.33,43.51l.1.25-.83.43.17-.39.28-.64.02-.04c.11.13.2.26.27.39h0ZM5.86,42.93c-.13.3-.25.58-.32.87l-.02.13-.2-.29c-.11-.22-.17-.47-.18-.73l.05-.42c.08-.32.24-.68.43-1l.37-.63c.09.12.15.27.21.38.06.14.1.28.1.41,0,.12,0,.25-.03.34l-.16.39-.25.56h0ZM5.38,41.52c-.19.34-.36.74-.45,1.08l-.03.13c-.08-.09-.14-.18-.19-.3-.11-.25-.18-.54-.16-.81.01-.15.04-.3.09-.43.08-.22.19-.43.34-.64l.35-.51.28-.4c.07.14.14.28.18.42.05.16.06.31.05.45,0,.12-.03.23-.08.31l-.4.69Z" fill="#fff" fill-rule="evenodd" stroke-width="0"></path><path d="M48.55,34.62l-.03.02c-.07.06-.13.14-.19.24-.06.13-.11.28-.14.45-.02.15-.02.31,0,.47l.42-.26.53-.32c.22-.14.41-.27.58-.42.1-.09.19-.2.27-.32l.16-.32.06-.18-.58-.07-.41.27-.67.44h0ZM49.59,37.54c-.23.19-.5.35-.78.5l-.55.29-.36.2c-.08.05-.17.13-.23.24l-.07.14-.02.04.91.21.06-.03.28-.16.23-.15c.11-.08.21-.19.3-.3l.19-.31c.06-.13.1-.26.13-.39l.02-.36h-.02s-.08.09-.08.09h0ZM49.33,38.87l.09-.07h.01s-.03.35-.03.35l-.07.22-.57-.13.06-.03.1-.06.41-.27h0ZM48.37,34.04l.05-.27.93.11-.36.23-.59.38-.04.03c-.02-.16-.02-.32,0-.47h0ZM49.25,35.35c.28-.17.53-.34.76-.54l.09-.1v.36c-.03.25-.13.49-.28.71-.08.12-.18.23-.28.32-.25.22-.58.41-.91.6l-.64.38c-.01-.16,0-.32.02-.47.03-.17.08-.32.15-.45.06-.11.14-.2.22-.26l.35-.23.53-.32h0ZM48.85,36.79c.35-.2.69-.4.97-.64l.09-.09v.36c-.05.25-.15.49-.3.71-.08.12-.18.23-.29.31-.18.14-.38.27-.6.4l-.55.29-.43.23c0-.16,0-.32.03-.47.03-.17.09-.32.16-.44.06-.11.14-.2.23-.25l.69-.41Z" fill="#fff" fill-rule="evenodd" stroke-width="0"></path><path d="M49.04,29.35l-.02.02c-.07.06-.12.15-.17.26-.06.13-.09.29-.11.46-.01.15,0,.31.03.47l.4-.29.51-.36c.2-.15.39-.3.55-.46l.25-.34.14-.33.05-.18-.58-.03-.39.29-.64.48h0ZM50.3,32.18c-.22.21-.47.39-.74.57l-.51.34-.34.24c-.08.06-.15.15-.21.27l-.06.15-.02.04.93.11.06-.04.27-.19.21-.18.27-.33.15-.32c.05-.13.08-.27.09-.4v-.36s-.02.01-.02.01l-.08.08h0ZM50.16,33.51l.08-.08h.01s0,.34,0,.34l-.04.22-.58-.07.05-.04.09-.07.38-.31h0ZM48.82,28.78l.04-.27.93.04-.34.25-.56.42-.03.03c-.03-.16-.04-.32-.03-.47h0ZM49.79,30.02c.26-.19.51-.38.72-.59l.09-.1.02.36c-.01.25-.09.5-.23.73l-.26.34c-.23.24-.54.44-.86.66l-.61.43c-.03-.16-.03-.32-.02-.47.01-.17.05-.33.11-.46.05-.12.12-.21.2-.28l.33-.25.5-.36h0ZM49.5,31.49c.34-.23.66-.45.92-.71l.09-.1.02.36c-.02.25-.1.5-.24.72l-.26.33c-.16.16-.36.3-.57.44l-.52.34-.41.28c-.02-.16-.02-.32-.01-.47.02-.17.06-.33.12-.46.06-.12.13-.21.2-.27l.66-.47Z" fill="#fff" fill-rule="evenodd" stroke-width="0"></path><path d="M49.13,24.04l-.02.02c-.06.07-.11.16-.15.27-.05.14-.07.3-.07.47,0,.15.02.32.06.48l.38-.32.48-.39c.2-.16.37-.32.52-.49l.23-.35.12-.33.04-.18h-.59s-.38.29-.38.29l-.61.51h0ZM50.6,26.77c-.2.21-.42.44-.68.63l-.49.37-.32.26c-.08.06-.14.16-.19.28l-.05.15v.04s.92.04.92.04l.05-.04.25-.21.2-.19.24-.35.13-.33c.04-.13.06-.31.06-.43l-.04-.35v.02s-.08.09-.08.09h0ZM50.57,28.13l.07-.09v-.02s.04.36.04.36l-.03.22-.58-.03.05-.04.09-.07.36-.33h0ZM48.88,23.47l.02-.28.93.02-.33.26-.54.44-.03.03c-.04-.16-.06-.33-.06-.48h0ZM49.92,24.68c.25-.2.48-.4.68-.62l.08-.1.04.35c0,.24-.06.5-.18.73l-.23.35c-.22.25-.5.48-.81.72l-.57.48c-.04-.16-.06-.32-.06-.48,0-.17.03-.34.07-.47.04-.12.11-.23.18-.29l.31-.27.48-.39h0ZM49.75,26.16c.32-.26.62-.49.86-.77l.08-.1.04.35c0,.24-.06.5-.18.73l-.23.35c-.15.17-.33.33-.52.49l-.5.38-.39.31c-.03-.16-.05-.32-.04-.47,0-.17.03-.29.08-.45.04-.12.11-.23.18-.29l.61-.52Z" fill="#fff" fill-rule="evenodd" stroke-width="0"></path><path d="M49.13,18.68l-.02.02c-.06.06-.12.15-.15.26-.05.14-.08.3-.08.47,0,.15.02.32.06.48l.38-.31.48-.37c.2-.15.37-.31.52-.47l.23-.34.12-.33.04-.18-.58-.03-.38.29-.61.49h0ZM50.6,21.45c-.19.22-.43.41-.68.61l-.48.38-.31.27c-.07.07-.13.17-.18.29l-.04.15v.04s.92.02.92.02l.05-.04.24-.21.19-.19.23-.34.12-.33c.03-.13.05-.27.05-.4l-.04-.35v.02s-.08.09-.08.09h0ZM50.6,22.77l.07-.09v-.02s.05.35.05.35l-.02.22h-.58s.05-.06.05-.06l.09-.07.34-.34h0ZM48.88,18.1l.02-.27.93.05-.33.25-.54.43-.03.03c-.04-.16-.06-.33-.06-.48h0ZM49.92,19.34c.25-.2.48-.39.68-.6l.08-.1.04.35c0,.24-.06.49-.18.72l-.23.34c-.22.24-.5.46-.81.7l-.57.46c-.04-.16-.06-.33-.06-.48,0-.17.03-.34.07-.47.04-.12.11-.22.18-.29l.31-.26.48-.37h0ZM49.75,20.82c.32-.25.62-.48.86-.74l.08-.1.04.35c0,.24-.06.49-.18.72l-.23.34c-.15.17-.33.32-.52.48l-.48.38-.38.31c-.04-.16-.06-.33-.06-.48,0-.17.03-.34.07-.47.04-.12.11-.22.18-.29l.61-.5Z" fill="#fff" fill-rule="evenodd" stroke-width="0"></path><path d="M49.13,13.31l-.02.02c-.06.06-.12.15-.15.26-.05.13-.08.3-.08.47,0,.15.02.32.06.48l.37-.3.48-.36c.19-.15.37-.3.52-.45l.23-.33.12-.32.04-.18-.58-.05-.38.28-.61.47h0ZM50.6,16.13c-.19.21-.43.4-.68.59l-.48.36-.31.26c-.07.06-.13.16-.18.28l-.04.15v.04s.92.05.92.05l.05-.04.24-.21.19-.19.23-.34.12-.32c.03-.13.05-.26.05-.4l-.04-.35v.02s-.08.08-.08.08h0ZM50.6,17.45l.07-.08v-.02s.05.35.05.35l-.02.22-.58-.03.05-.04.09-.07.34-.32h0ZM48.88,12.73l.02-.27.93.08-.33.24-.54.41-.03.03c-.04-.17-.06-.33-.06-.48h0ZM49.92,14c.25-.19.48-.37.68-.58l.08-.1.04.35c0,.25-.06.49-.17.72l-.23.33c-.22.24-.5.45-.81.68l-.57.45c-.04-.16-.06-.33-.06-.48,0-.17.03-.34.07-.47.04-.12.11-.22.18-.28l.31-.26.48-.36h0ZM49.75,15.47c.32-.24.62-.46.85-.72l.08-.1.04.35c0,.24-.06.49-.17.72l-.23.34c-.15.16-.33.31-.52.46l-.48.37-.38.3c-.04-.16-.06-.33-.06-.48,0-.17.03-.34.08-.47.04-.12.11-.22.18-.28l.61-.48Z" fill="#fff" fill-rule="evenodd" stroke-width="0"></path><path d="M49.14,7.95l-.02.02c-.06.06-.11.15-.15.25-.05.13-.07.3-.07.47,0,.15.02.32.06.48l.37-.29.48-.35c.19-.14.37-.28.52-.44l.23-.33.12-.32.04-.18-.58-.06-.38.27-.61.46h0ZM50.6,10.81c-.19.2-.43.39-.68.57l-.48.35-.31.25c-.07.06-.13.16-.18.28l-.04.15v.04s.92.08.92.08l.05-.04.24-.2.19-.18.23-.33.12-.32c.03-.13.05-.26.05-.39l-.04-.35h-.01s-.07.1-.07.1h0ZM50.6,12.13l.07-.08v-.02s.05.35.05.35l-.02.22-.58-.05.05-.04.09-.07.34-.31h0ZM48.88,7.36l.02-.27.93.1-.33.23-.53.4-.03.03c-.04-.17-.06-.33-.06-.48h0ZM49.92,8.66c.25-.18.48-.36.68-.56l.08-.1.04.35c0,.24-.06.49-.17.71l-.23.33c-.22.23-.5.43-.8.65l-.57.43c-.04-.17-.06-.33-.06-.48,0-.17.03-.34.08-.47.04-.12.11-.22.18-.28l.31-.25.48-.34h0ZM49.75,10.13c.32-.23.61-.44.85-.69l.08-.1.04.35c0,.24-.06.49-.17.71l-.23.33c-.15.16-.33.3-.52.45l-.48.35-.37.29c-.04-.17-.06-.33-.06-.48,0-.17.03-.34.07-.47.04-.12.11-.22.18-.28l.61-.47Z" fill="#fff" fill-rule="evenodd" stroke-width="0"></path><path d="M3.93,11.84l.02-.03c.06-.07.12-.17.15-.28.05-.14.08-.31.08-.48,0-.15-.02-.31-.06-.47l-.37.36-.48.44c-.19.18-.37.36-.52.54l-.23.37-.12.34-.04.18.58-.05.38-.34.61-.57h0ZM2.46,9.27c.19-.24.43-.47.68-.7l.47-.44.31-.31c.07-.08.13-.18.18-.31l.04-.16v-.05s-.92.1-.92.1l-.05.05-.24.25-.19.22-.23.37-.12.34c-.04.14-.05.27-.05.4l.04.34v-.02s.08-.1.08-.1h0ZM2.47,7.95l-.07.1v.02s-.05-.34-.05-.34l.02-.22.58-.06-.05.05-.09.09-.34.38h0ZM4.18,12.38l-.02.28-.93.08.33-.29.53-.5.03-.03c.04.16.06.32.06.47h0ZM3.14,11.28c-.25.23-.48.45-.68.69l-.08.11-.04-.34c0-.25.06-.5.17-.74l.23-.37c.22-.27.5-.53.8-.8l.57-.54c.04.16.06.32.06.47,0,.17-.03.34-.07.48-.04.13-.11.24-.18.31l-.31.31-.48.43h0ZM3.32,9.78c-.32.29-.61.56-.85.86l-.08.11-.04-.34c0-.24.06-.5.18-.74l.23-.37c.15-.18.33-.36.52-.55l.48-.45.37-.36c.04.16.06.32.06.47,0,.17-.03.34-.07.48-.04.13-.1.24-.18.31l-.61.58Z" fill="#fff" fill-rule="evenodd" stroke-width="0"></path><path d="M3.93,17.18l.02-.03c.06-.07.11-.17.15-.28.05-.14.07-.31.07-.48,0-.15-.02-.31-.06-.47l-.37.35-.48.42c-.19.17-.37.34-.52.52l-.23.36-.12.34-.04.18.58-.03.38-.33.61-.56h0ZM2.46,14.57c.19-.24.43-.45.68-.68l.48-.43.31-.3c.07-.07.13-.18.18-.31l.04-.16v-.04s-.92.08-.92.08l-.05.05-.24.24-.19.21-.23.37-.12.34c-.03.13-.05.27-.05.4l.04.34v-.02s.08-.09.08-.09h0ZM2.46,13.25l-.07.09v.02s-.05-.34-.05-.34l.02-.22.58-.05-.05.05-.09.08-.34.37h0ZM4.18,17.73l-.02.28-.93.05.33-.29.54-.48.03-.03c.04.16.06.32.06.47h0ZM3.14,16.6c-.25.22-.48.43-.68.67l-.08.11-.04-.34c0-.24.06-.5.18-.74l.23-.36c.22-.26.5-.51.81-.78l.57-.52c.04.16.06.32.06.47,0,.17-.03.34-.08.48-.04.13-.1.23-.18.3l-.31.3-.48.42h0ZM3.32,15.11c-.32.28-.62.54-.86.83l-.08.11-.04-.34c0-.24.06-.5.17-.74l.23-.37c.15-.18.33-.35.52-.53l.48-.43.37-.35c.04.16.06.32.06.47,0,.17-.03.34-.07.48-.04.13-.1.23-.18.31l-.61.56Z" fill="#fff" fill-rule="evenodd" stroke-width="0"></path><path d="M3.93,22.53l.02-.02c.06-.07.12-.16.15-.27.05-.14.08-.3.08-.48,0-.15-.02-.31-.06-.47l-.38.33-.48.41c-.19.17-.37.33-.52.51l-.23.35-.12.33-.04.18h.59s.38-.33.38-.33l.61-.54h0ZM2.46,19.87c.19-.23.43-.44.68-.66l.48-.41.31-.29c.07-.07.13-.18.18-.3l.04-.16v-.04s-.92.05-.92.05l-.05.05-.24.23-.19.2-.23.36-.12.33c-.03.13-.05.27-.05.4l.04.34v-.02s.08-.09.08-.09h0ZM2.46,18.55l-.07.09v.02s-.05-.34-.05-.34l.02-.22.58-.03-.05.05-.09.08-.34.36h0ZM4.18,23.08l-.02.28-.93.02.33-.27.54-.47.03-.03c.04.16.06.32.06.48h0ZM3.14,21.92c-.25.21-.48.42-.68.65l-.08.11-.04-.34c0-.24.06-.5.18-.73l.23-.36c.22-.26.5-.5.81-.76l.57-.5c.04.16.06.32.06.47,0,.17-.03.34-.08.48-.04.13-.11.23-.18.3l-.31.29-.48.4h0ZM3.32,20.44c-.32.27-.62.52-.86.8l-.08.11-.04-.34c0-.24.06-.5.18-.73l.23-.36c.15-.18.33-.34.52-.51l.48-.42.37-.34c.04.16.06.32.06.47,0,.17-.03.34-.08.48-.04.13-.11.23-.18.3l-.61.55Z" fill="#fff" fill-rule="evenodd" stroke-width="0"></path><path d="M3.95,27.85l.02-.02c.06-.07.11-.16.15-.27.05-.16.06-.27.06-.45,0-.15-.02-.31-.06-.48l-.38.32-.48.4c-.19.17-.36.33-.5.51l-.22.36-.11.34-.03.18.58-.03.36-.33.59-.54h0ZM2.46,25.17c.19-.23.43-.43.68-.64l.48-.4.31-.28c.07-.07.13-.17.18-.3l.04-.15v-.05s-.92.02-.92.02l-.05.05-.24.22-.19.2-.23.35-.12.33c-.03.13-.05.27-.05.4l.04.35v-.02s.08-.09.08-.09h0ZM2.46,23.86l-.07.09v.02s-.05-.35-.05-.35l.02-.22h.58s-.05.03-.05.03l-.09.08-.34.35h0ZM4.23,28.38v.27s-.94.05-.94.05l.31-.28.52-.47.03-.03c.04.16.07.31.08.46h0ZM3.14,27.25c-.24.21-.47.42-.66.66l-.08.11-.05-.35c0-.23.04-.53.16-.76l.23-.35c.22-.25.5-.48.81-.73l.57-.49c.04.16.06.32.06.48,0,.17-.03.34-.08.48-.04.12-.11.23-.18.29l-.31.28-.48.39h0ZM3.32,25.76c-.32.26-.62.5-.86.78l-.08.1-.04-.35c0-.24.06-.5.17-.73l.23-.35c.15-.17.33-.33.52-.5l.48-.4.38-.33c.04.16.06.32.06.48,0,.17-.03.34-.08.47-.04.12-.11.23-.18.3l-.61.53Z" fill="#fff" fill-rule="evenodd" stroke-width="0"></path><path d="M4.34,33.11l.02-.03c.05-.07.1-.17.13-.28.04-.14.05-.3.03-.47-.01-.15-.05-.31-.11-.46l-.34.35-.44.44c-.18.18-.34.36-.47.54l-.19.38-.08.35-.02.19.58-.07.34-.35.55-.58h0ZM2.63,30.54c.18-.24.4-.46.63-.68l.45-.42.3-.29c.07-.07.12-.17.16-.3l.03-.15v-.04s-.93.05-.93.05l-.05.05-.23.23-.18.21-.21.37-.1.34c-.03.14-.04.27-.03.41l.07.35v-.02s.07-.09.07-.09h0ZM2.54,29.21l-.06.09v.02s-.07-.35-.07-.35v-.22s.59-.03.59-.03l-.05.05-.08.08-.32.36h0ZM4.65,33.63v.27s-.92.11-.92.11l.3-.3.48-.5.03-.03c.06.15.09.31.11.46h0ZM3.49,32.57c-.23.23-.44.45-.61.7l-.07.11-.08-.35c-.02-.25.01-.51.1-.75l.2-.37c.2-.27.46-.53.74-.79l.53-.52c.05.16.08.31.1.46.01.17,0,.33-.04.47-.03.12-.09.23-.15.3l-.29.3-.44.43h0ZM3.53,31.08c-.3.28-.57.55-.79.85l-.07.11-.07-.35c-.02-.25.02-.51.11-.75l.2-.37c.14-.18.3-.36.48-.53l.46-.42.35-.34c.05.16.08.31.09.46,0,.17,0,.33-.04.47-.04.12-.09.23-.16.3l-.57.56Z" fill="#fff" fill-rule="evenodd" stroke-width="0"></path><path d="M5.11,38.31l.02-.03c.05-.08.08-.18.1-.29.02-.14.02-.3-.01-.47-.03-.15-.08-.3-.14-.44l-.31.38-.4.47c-.16.2-.31.39-.41.59l-.15.4-.05.36v.19s.58-.14.58-.14l.3-.39.49-.63h0ZM3.2,35.89c.16-.25.36-.49.58-.72l.42-.45.28-.31c.06-.08.11-.18.14-.31l.02-.15v-.04s-.92.11-.92.11l-.05.05-.21.25-.16.22-.18.38-.08.35c-.02.14-.02.28,0,.41l.09.34v-.02s.06-.1.06-.1h0ZM3.02,34.56l-.06.1v.02s-.1-.35-.1-.35v-.22s.57-.07.57-.07l-.04.05-.08.09-.3.38h0ZM5.48,38.78l.04.26-.91.22.26-.33.43-.55.03-.04c.07.15.12.29.16.44h0ZM4.22,37.85c-.21.25-.4.49-.54.76l-.06.12-.12-.34c-.05-.25-.03-.51.03-.77l.16-.39c.17-.29.42-.56.68-.85l.49-.56c.06.15.11.3.13.45.03.17.03.33,0,.47-.02.13-.07.23-.13.31l-.26.32-.4.47h0ZM4.14,36.36c-.27.3-.53.59-.72.91l-.06.12-.1-.34c-.04-.25-.02-.51.05-.76l.18-.39c.12-.19.28-.38.45-.56l.43-.45.33-.36c.06.15.1.31.12.46.02.17.02.33,0,.47-.03.13-.07.23-.14.31l-.53.6Z" fill="#fff" fill-rule="evenodd" stroke-width="0"></path><path d="M6.85,43.13v-.03c.04-.09.04-.19.03-.31-.02-.15-.07-.3-.15-.45-.07-.13-.16-.27-.27-.39l-.19.45-.25.57c-.1.23-.19.46-.24.68l-.05.42.04.35.05.18.52-.27.2-.45.31-.74h0ZM4.37,41.23c.1-.29.27-.56.45-.83l.35-.5.24-.34c.05-.08.09-.19.1-.32v-.15s0-.04,0-.04l-.91.22-.04.05-.18.27-.13.24c-.06.12-.11.26-.13.41l-.02.37.07.42.16.34v-.02s.04-.11.04-.11h0ZM3.97,39.9l-.04.11v.02s-.13-.34-.13-.34l-.04-.22.57-.13-.04.05-.07.1-.25.42h0ZM7.33,43.51l.1.25-.83.43.17-.39.28-.64.02-.04c.11.13.2.26.27.39h0ZM5.86,42.93c-.13.3-.25.58-.32.87l-.02.13-.2-.29c-.11-.22-.17-.47-.18-.73l.05-.42c.08-.32.24-.68.43-1l.37-.63c.09.12.15.27.21.38.06.14.1.28.1.41,0,.12,0,.25-.03.34l-.16.39-.25.56h0ZM5.38,41.52c-.19.34-.36.74-.45,1.08l-.03.13c-.08-.09-.14-.18-.19-.3-.11-.25-.18-.54-.16-.81.01-.15.04-.3.09-.43.08-.22.19-.43.34-.64l.35-.51.28-.4c.07.14.14.28.18.42.05.16.06.31.05.45,0,.12-.03.23-.08.31l-.4.69Z" fill="#fff" fill-rule="evenodd" stroke-width="0"></path><path d="M48.55,34.62l-.03.02c-.07.06-.13.14-.19.24-.06.13-.11.28-.14.45-.02.15-.02.31,0,.47l.42-.26.53-.32c.22-.14.41-.27.58-.42.1-.09.19-.2.27-.32l.16-.32.06-.18-.58-.07-.41.27-.67.44h0ZM49.59,37.54c-.23.19-.5.35-.78.5l-.55.29-.36.2c-.08.05-.17.13-.23.24l-.07.14-.02.04.91.21.06-.03.28-.16.23-.15c.11-.08.21-.19.3-.3l.19-.31c.06-.13.1-.26.13-.39l.02-.36h-.02s-.08.09-.08.09h0ZM49.33,38.87l.09-.07h.01s-.03.35-.03.35l-.07.22-.57-.13.06-.03.1-.06.41-.27h0ZM48.37,34.04l.05-.27.93.11-.36.23-.59.38-.04.03c-.02-.16-.02-.32,0-.47h0ZM49.25,35.35c.28-.17.53-.34.76-.54l.09-.1v.36c-.03.25-.13.49-.28.71-.08.12-.18.23-.28.32-.25.22-.58.41-.91.6l-.64.38c-.01-.16,0-.32.02-.47.03-.17.08-.32.15-.45.06-.11.14-.2.22-.26l.35-.23.53-.32h0ZM48.85,36.79c.35-.2.69-.4.97-.64l.09-.09v.36c-.05.25-.15.49-.3.71-.08.12-.18.23-.29.31-.18.14-.38.27-.6.4l-.55.29-.43.23c0-.16,0-.32.03-.47.03-.17.09-.32.16-.44.06-.11.14-.2.23-.25l.69-.41Z" fill="#fff" fill-rule="evenodd" stroke-width="0"></path><path d="M49.04,29.35l-.02.02c-.07.06-.12.15-.17.26-.06.13-.09.29-.11.46-.01.15,0,.31.03.47l.4-.29.51-.36c.2-.15.39-.3.55-.46l.25-.34.14-.33.05-.18-.58-.03-.39.29-.64.48h0ZM50.3,32.18c-.22.21-.47.39-.74.57l-.51.34-.34.24c-.08.06-.15.15-.21.27l-.06.15-.02.04.93.11.06-.04.27-.19.21-.18.27-.33.15-.32c.05-.13.08-.27.09-.4v-.36s-.02.01-.02.01l-.08.08h0ZM50.16,33.51l.08-.08h.01s0,.34,0,.34l-.04.22-.58-.07.05-.04.09-.07.38-.31h0ZM48.82,28.78l.04-.27.93.04-.34.25-.56.42-.03.03c-.03-.16-.04-.32-.03-.47h0ZM49.79,30.02c.26-.19.51-.38.72-.59l.09-.1.02.36c-.01.25-.09.5-.23.73l-.26.34c-.23.24-.54.44-.86.66l-.61.43c-.03-.16-.03-.32-.02-.47.01-.17.05-.33.11-.46.05-.12.12-.21.2-.28l.33-.25.5-.36h0ZM49.5,31.49c.34-.23.66-.45.92-.71l.09-.1.02.36c-.02.25-.1.5-.24.72l-.26.33c-.16.16-.36.3-.57.44l-.52.34-.41.28c-.02-.16-.02-.32-.01-.47.02-.17.06-.33.12-.46.06-.12.13-.21.2-.27l.66-.47Z" fill="#fff" fill-rule="evenodd" stroke-width="0"></path><path d="M49.13,24.04l-.02.02c-.06.07-.11.16-.15.27-.05.14-.07.3-.07.47,0,.15.02.32.06.48l.38-.32.48-.39c.2-.16.37-.32.52-.49l.23-.35.12-.33.04-.18h-.59s-.38.29-.38.29l-.61.51h0ZM50.6,26.77c-.2.21-.42.44-.68.63l-.49.37-.32.26c-.08.06-.14.16-.19.28l-.05.15v.04s.92.04.92.04l.05-.04.25-.21.2-.19.24-.35.13-.33c.04-.13.06-.31.06-.43l-.04-.35v.02s-.08.09-.08.09h0ZM50.57,28.13l.07-.09v-.02s.04.36.04.36l-.03.22-.58-.03.05-.04.09-.07.36-.33h0ZM48.88,23.47l.02-.28.93.02-.33.26-.54.44-.03.03c-.04-.16-.06-.33-.06-.48h0ZM49.92,24.68c.25-.2.48-.4.68-.62l.08-.1.04.35c0,.24-.06.5-.18.73l-.23.35c-.22.25-.5.48-.81.72l-.57.48c-.04-.16-.06-.32-.06-.48,0-.17.03-.34.07-.47.04-.12.11-.23.18-.29l.31-.27.48-.39h0ZM49.75,26.16c.32-.26.62-.49.86-.77l.08-.1.04.35c0,.24-.06.5-.18.73l-.23.35c-.15.17-.33.33-.52.49l-.5.38-.39.31c-.03-.16-.05-.32-.04-.47,0-.17.03-.29.08-.45.04-.12.11-.23.18-.29l.61-.52Z" fill="#fff" fill-rule="evenodd" stroke-width="0"></path><path d="M49.13,18.68l-.02.02c-.06.06-.12.15-.15.26-.05.14-.08.3-.08.47,0,.15.02.32.06.48l.38-.31.48-.37c.2-.15.37-.31.52-.47l.23-.34.12-.33.04-.18-.58-.03-.38.29-.61.49h0ZM50.6,21.45c-.19.22-.43.41-.68.61l-.48.38-.31.27c-.07.07-.13.17-.18.29l-.04.15v.04s.92.02.92.02l.05-.04.24-.21.19-.19.23-.34.12-.33c.03-.13.05-.27.05-.4l-.04-.35v.02s-.08.09-.08.09h0ZM50.6,22.77l.07-.09v-.02s.05.35.05.35l-.02.22h-.58s.05-.06.05-.06l.09-.07.34-.34h0ZM48.88,18.1l.02-.27.93.05-.33.25-.54.43-.03.03c-.04-.16-.06-.33-.06-.48h0ZM49.92,19.34c.25-.2.48-.39.68-.6l.08-.1.04.35c0,.24-.06.49-.18.72l-.23.34c-.22.24-.5.46-.81.7l-.57.46c-.04-.16-.06-.33-.06-.48,0-.17.03-.34.07-.47.04-.12.11-.22.18-.29l.31-.26.48-.37h0ZM49.75,20.82c.32-.25.62-.48.86-.74l.08-.1.04.35c0,.24-.06.49-.18.72l-.23.34c-.15.17-.33.32-.52.48l-.48.38-.38.31c-.04-.16-.06-.33-.06-.48,0-.17.03-.34.07-.47.04-.12.11-.22.18-.29l.61-.5Z" fill="#fff" fill-rule="evenodd" stroke-width="0"></path><path d="M49.13,13.31l-.02.02c-.06.06-.12.15-.15.26-.05.13-.08.3-.08.47,0,.15.02.32.06.48l.37-.3.48-.36c.19-.15.37-.3.52-.45l.23-.33.12-.32.04-.18-.58-.05-.38.28-.61.47h0ZM50.6,16.13c-.19.21-.43.4-.68.59l-.48.36-.31.26c-.07.06-.13.16-.18.28l-.04.15v.04s.92.05.92.05l.05-.04.24-.21.19-.19.23-.34.12-.32c.03-.13.05-.26.05-.4l-.04-.35v.02s-.08.08-.08.08h0ZM50.6,17.45l.07-.08v-.02s.05.35.05.35l-.02.22-.58-.03.05-.04.09-.07.34-.32h0ZM48.88,12.73l.02-.27.93.08-.33.24-.54.41-.03.03c-.04-.17-.06-.33-.06-.48h0ZM49.92,14c.25-.19.48-.37.68-.58l.08-.1.04.35c0,.25-.06.49-.17.72l-.23.33c-.22.24-.5.45-.81.68l-.57.45c-.04-.16-.06-.33-.06-.48,0-.17.03-.34.07-.47.04-.12.11-.22.18-.28l.31-.26.48-.36h0ZM49.75,15.47c.32-.24.62-.46.85-.72l.08-.1.04.35c0,.24-.06.49-.17.72l-.23.34c-.15.16-.33.31-.52.46l-.48.37-.38.3c-.04-.16-.06-.33-.06-.48,0-.17.03-.34.08-.47.04-.12.11-.22.18-.28l.61-.48Z" fill="#fff" fill-rule="evenodd" stroke-width="0"></path><path d="M49.14,7.95l-.02.02c-.06.06-.11.15-.15.25-.05.13-.07.3-.07.47,0,.15.02.32.06.48l.37-.29.48-.35c.19-.14.37-.28.52-.44l.23-.33.12-.32.04-.18-.58-.06-.38.27-.61.46h0ZM50.6,10.81c-.19.2-.43.39-.68.57l-.48.35-.31.25c-.07.06-.13.16-.18.28l-.04.15v.04s.92.08.92.08l.05-.04.24-.2.19-.18.23-.33.12-.32c.03-.13.05-.26.05-.39l-.04-.35h-.01s-.07.1-.07.1h0ZM50.6,12.13l.07-.08v-.02s.05.35.05.35l-.02.22-.58-.05.05-.04.09-.07.34-.31h0ZM48.88,7.36l.02-.27.93.1-.33.23-.53.4-.03.03c-.04-.17-.06-.33-.06-.48h0ZM49.92,8.66c.25-.18.48-.36.68-.56l.08-.1.04.35c0,.24-.06.49-.17.71l-.23.33c-.22.23-.5.43-.8.65l-.57.43c-.04-.17-.06-.33-.06-.48,0-.17.03-.34.08-.47.04-.12.11-.22.18-.28l.31-.25.48-.34h0ZM49.75,10.13c.32-.23.61-.44.85-.69l.08-.1.04.35c0,.24-.06.49-.17.71l-.23.33c-.15.16-.33.3-.52.45l-.48.35-.37.29c-.04-.17-.06-.33-.06-.48,0-.17.03-.34.07-.47.04-.12.11-.22.18-.28l.61-.47Z" fill="#fff" fill-rule="evenodd" stroke-width="0"></path><g><path d="M45.65,8.06l.03.02c.07.06.17.11.29.14.15.04.32.06.5.04.16-.02.33-.06.49-.11l-.37-.34-.45-.45c-.18-.18-.36-.35-.54-.49l-.37-.21-.34-.1-.18-.03.02.58.33.37.57.58h0ZM48.24,6.3c.25.16.49.35.75.56.14.12.36.22.52.33.14-.1.17.53.14-.07-.21-.02.46-.2-.59-.16-.17-.04-.07,0-.12.02l-.02.1.92.1.06-.03c.1-.06.19-.14.26-.27.01-.34-.18-.5-.38-.6-.28-.14-.55-.1-.69-.12-.17,0-.18-.04-.24-.04h-.4s-.33.11-.33.11h.02s.1.06.1.06h0ZM49.81,6.01c-.13-.05-.24-.07-.3-.07h-.04c.07-.23,1.4.16,1.29,1.02,0,.17-.04.39-.05.34l-.58-.07h.06s.1-.1.1-.1c.06-.11.17-.08.15-.42-.15-.5-.34-.54-.62-.69h0ZM45.07,8.35h-.29s-.03-.95-.03-.95l.29.32.5.51.03.03c-.17.05-.34.08-.5.09h0ZM46.24,7.23c-.23-.24-.45-.46-.68-.64l-.11-.07.34-.06c.24-.02.5.04.74.12l.37.19c.27.19.54.45.84.72l.58.49c-.16.07-.33.12-.49.14-.18.02-.36.01-.51-.02-.13-.03-.25-.08-.33-.14l-.32-.28-.44-.44h0ZM47.77,7.25c-.31-.29-.58-.56-.88-.76l-.11-.07.34-.08c.24-.03.5.01.74.08l.38.17c.19.12.38.27.58.43.16.14.31.28.55.36.14.09.35.13.35.27.03.02-.19.14-.46.21-.22.05-.37.04-.53.02-.14-.02-.25-.07-.34-.12l-.63-.52Z" fill="#fff" fill-rule="evenodd" stroke-width="0"></path><path d="M40.1,8.02l.02.03c.07.07.16.13.27.17.14.06.31.09.49.1.16,0,.33,0,.5-.04l-.32-.39-.38-.5c-.16-.2-.31-.39-.47-.55l-.34-.26-.33-.14-.18-.05-.05.58.29.4.49.65h0ZM42.93,6.66c.22.2.43.44.64.68l.41.47.29.31c.07.07.18.13.31.17l.16.04h.05s-.03-.92-.03-.92l-.05-.05-.23-.24-.2-.18-.36-.22-.33-.12-.4-.05-.35.04h.02s.09.08.09.08h0ZM44.26,6.65l-.09-.07h-.02s.35-.06.35-.06h.22s.02.6.02.6l-.05-.05-.08-.08-.36-.33h0ZM39.5,8.23l-.28-.04.07-.93.25.35.43.57.03.04c-.17.03-.34.04-.5.03h0ZM40.79,7.27c-.2-.26-.39-.5-.6-.72l-.1-.09.35-.02c.25.02.5.09.73.21l.35.25c.25.23.47.53.72.83l.49.58c-.17.04-.34.05-.5.05-.18,0-.35-.03-.49-.09-.13-.05-.23-.12-.3-.19l-.27-.33-.38-.5h0ZM42.3,7.51c-.26-.32-.49-.63-.76-.88l-.1-.08.35-.03c.25.01.5.07.73.19l.35.24c.17.15.33.33.5.53l.41.48.34.37c-.17.04-.34.07-.5.07-.18,0-.35-.02-.49-.07-.13-.05-.23-.11-.3-.18l-.53-.62Z" fill="#fff" fill-rule="evenodd" stroke-width="0"></path><path d="M34.6,7.4l.02.03c.06.07.14.14.25.2.14.07.3.12.48.15.16.02.33.03.5,0l-.28-.42-.33-.54c-.14-.21-.27-.42-.41-.6l-.31-.29-.31-.17-.17-.07-.11.57.24.43.43.69h0ZM37.55,6.32c.2.22.38.47.57.74l.35.51.25.34c.06.08.16.15.29.21l.16.05h.04s.07-.92.07-.92l-.04-.05-.2-.26-.18-.21-.33-.26-.32-.15c-.13-.05-.26-.08-.4-.09h-.35s.02.02.02.02l.08.08h0ZM38.89,6.45l-.08-.08h-.01s.35-.02.35-.02l.22.03-.05.58-.04-.05-.07-.09-.32-.37h0ZM33.98,7.55l-.28-.08.17-.92.21.37.37.61.03.04c-.17.01-.34,0-.5-.02h0ZM35.36,6.72c-.17-.28-.33-.54-.52-.77l-.09-.1.35.02c.24.04.49.13.7.28l.32.28c.22.25.42.57.64.9l.43.63c-.17.02-.34.02-.5,0-.18-.02-.34-.07-.48-.13-.12-.06-.22-.14-.28-.22l-.24-.35-.33-.53h0ZM36.84,7.1c-.22-.35-.43-.67-.67-.95l-.09-.1h.35c.25.04.49.13.71.27l.33.27c.15.17.3.37.45.57l.35.52.3.41c-.17.02-.34.03-.5.01-.18-.02-.34-.06-.48-.12-.12-.06-.22-.13-.28-.21l-.46-.67Z" fill="#fff" fill-rule="evenodd" stroke-width="0"></path><path d="M29.23,5.64v.03c.04.09.11.18.19.27.11.11.26.2.43.28l.49.16-.16-.48-.17-.6c-.07-.24-.13-.48-.21-.69-.05-.13-.12-.26-.2-.37l-.23-.26-.14-.12-.29.51.1.48.19.8h0ZM32.34,5.37c.15.25.27.53.41.83l.28.58.22.36c.06.08.15.17.27.23l.15.07.04.02.17-.92-.04-.06-.17-.28-.16-.22-.3-.3-.27-.21c-.11-.07-.23-.13-.35-.16l-.33-.06v.02s.07.09.07.09h0ZM33.56,5.71l-.07-.08h-.01s.35.01.35.01l.21.06-.11.57-.03-.06-.06-.1-.27-.4h0ZM28.59,5.58l-.24-.16.46-.82.08.42.16.7v.05s-.46-.19-.46-.19h0ZM30.16,5.23c-.08-.31-.15-.61-.26-.89l-.05-.12.32.13c.21.12.41.26.57.46l.22.35c.14.3.25.66.37,1.05.09.23.18.46.3.69-.18-.01-.36-.05-.52-.1-.17-.07-.32-.17-.44-.28-.1-.1-.18-.2-.22-.29l-.14-.4-.16-.6h0ZM31.48,6c-.13-.39-.24-.78-.39-1.1l-.06-.12.33.1c.22.1.42.26.59.42l.25.32c.11.19.22.41.32.64l.28.59.25.45c-.17.01-.35-.03-.51-.08-.18-.05-.35-.13-.48-.22-.12-.08-.21-.17-.25-.26-.13-.24-.23-.5-.33-.74Z" fill="#fff" fill-rule="evenodd" stroke-width="0"></path><path d="M25.17,4.91h.03c.09.03.2.02.32,0,.15-.03.31-.1.46-.19.14-.08.27-.19.39-.31l-.48-.15-.6-.21c-.24-.08-.48-.15-.7-.19l-.42-.02-.35.05-.18.05.28.51.46.18c.25.1.52.2.78.27h0ZM27.62,3.03c.09.28.15.59.2.91l.1.62.09.42c.02.1.09.2.18.3l.12.11.03.03.46-.82v-.07s-.09-.32-.09-.32l-.08-.26c-.04-.13-.11-.26-.19-.38l-.22-.28-.32-.25-.33-.15v.02s.05.1.05.1h0ZM28.77,3.72l-.04-.11v-.02s.32.14.32.14l.18.12-.29.51v-.06s-.04-.11-.04-.11l-.13-.46h0ZM24.78,5.41l-.27.12-.45-.82.4.15.68.24h.04c-.12.13-.27.23-.41.31h0ZM25.31,3.89c-.31-.11-.6-.2-.9-.25h-.13s.28-.23.28-.23c.21-.13.46-.21.73-.23h.43c.2.12.99.07.76.43l.12.74-.44-.2-.05-.03-.03-.02h-.01s0-.01,0-.01c-.21,0,1.8,0,.95,0h0s0,0,0,0h0s-.11.06-.11.06l-.23.07c-.13.03-.25.03-.35,0l-.41-.12-.59-.2h0ZM26.65,3.44c-.27-.49-.72-.36-1.07-.5h-.13s.29-.23.29-.23l.17-.09.09-.04.04-.02h.02s.01-.01.01-.01h0s0,0,0,0c.41,0-.91,0,.91,0h0s0,0,0,0h0s.25.31.25.31c.08.12.15.26.19.38.07.22.12.45.16.71l.1.62.09.49-.45-.2c-.15-.09-.29-.2-.38-.32-.09-.1-.15-.21-.17-.31l-.14-.8Z" fill="#fff" fill-rule="evenodd" stroke-width="0"></path><path d="M19.96,7.12l.03.02c.08.05.19.08.31.08.16,0,.34-.02.52-.08.16-.05.33-.12.49-.21l-.45-.26-.52-.35c-.21-.15-.39-.26-.6-.38l-.39-.16-.35-.06h-.18s.1.57.1.57l.38.31.65.5h0ZM22.12,4.83c.28.09.56.22.86.36l.57.25.4.14c.1.03.22.03.35,0l.16-.04h.05s-.45-.83-.45-.83l-.06-.02-.31-.11-.26-.07-.42-.04-.35.04-.38.11-.29.18h.02s.11.03.11.03h0ZM23.29,4.26l.46.14.11.04.06.02-.28-.51-.2.09-.28.2h.02s.11.02.11.02h0ZM19.43,7.48l-.29.03-.17-.92.33.27.57.43.04.03c-.16.07-.32.12-.48.16h0ZM20.41,6.18c-.27-.19-.49-.34-.76-.49l-.12-.06.33-.12c.22-.07.46-.08.71-.04l.39.12c.3.13.63.35.98.52l.68.32c-.14.11-.29.2-.44.26-.16.08-.35.11-.51.11-.14,0-.27-.03-.36-.07l-.38-.21-.52-.34h0ZM21.9,5.87c-.36-.17-.7-.4-1.02-.55l-.12-.05.3-.13c.22-.05.47-.11.72-.1l.41.07c.21.07.44.16.67.27l.59.26.47.17c-.13.11-.27.22-.42.29-.17.08-.34.12-.5.14-.14.01-.26,0-.36-.03l-.74-.34Z" fill="#fff" fill-rule="evenodd" stroke-width="0"></path><path d="M14.47,7.9l.03.02c.07.06.17.1.29.13.15.04.32.04.5.03.16-.01.32-.05.48-.11l-.37-.33-.45-.44c-.19-.18-.37-.34-.55-.47l-.38-.2-.34-.09-.18-.02.04.58.35.35.59.56h0ZM17.06,6.12c.25.16.49.36.73.58l.47.41.33.26c.08.06.2.1.33.12h.17s.05.02.05.02l-.17-.92-.05-.04-.26-.2-.23-.15-.39-.17-.35-.07c-.14-.02-.28-.01-.41,0l-.34.09h.02s.1.06.1.06h0ZM18.38,5.92l-.1-.05h-.02s.34-.11.34-.11l.22-.02.11.58-.05-.04-.09-.07-.4-.28h0ZM13.91,8.21h-.29s-.07-.94-.07-.94l.3.31.51.5.03.03c-.16.06-.33.09-.49.1h0ZM15.03,7.05c-.23-.23-.46-.44-.7-.62l-.11-.07.35-.08c.25-.02.51.01.75.1l.38.19c.28.19.55.44.84.71l.57.5c-.16.06-.33.11-.48.13-.18.02-.35.02-.5-.02-.13-.03-.24-.08-.32-.14l-.32-.28-.45-.44h0ZM16.56,7.06c-.3-.28-.58-.55-.89-.76l-.12-.07.35-.08c.24-.03.51,0,.75.08l.38.18c.19.12.38.28.57.45l.48.42.39.31c-.16.07-.32.12-.48.14-.18.03-.35.02-.5,0-.13-.03-.25-.07-.33-.13l-.61-.53Z" fill="#fff" fill-rule="evenodd" stroke-width="0"></path><path d="M8.93,8.12l.03.02c.07.06.16.12.28.16.14.05.32.08.5.08.16,0,.33-.03.5-.07l-.34-.37-.41-.49c-.17-.2-.33-.38-.5-.53l-.35-.24-.33-.13-.18-.04-.02.58.3.39.52.62h0ZM11.69,6.62c.23.18.45.41.67.65l.43.45.31.29c.08.07.18.12.32.16l.16.03h.05s-.07-.92-.07-.92l-.05-.05-.24-.23-.21-.17-.37-.2-.34-.1c-.14-.03-.27-.04-.41-.04l-.35.06h.02s.09.08.09.08h0ZM13.03,6.54l-.09-.06h-.02s.35-.08.35-.08h.22s.04.58.04.58l-.05-.05-.08-.08-.37-.32h0ZM8.34,8.36l-.29-.03.04-.93.26.33.45.55.03.03c-.17.04-.34.05-.5.05h0ZM9.59,7.34c-.21-.25-.41-.49-.63-.69l-.1-.08.35-.03c.25,0,.5.08.73.18l.36.22c.26.21.5.5.76.8l.52.55c-.17.05-.33.08-.49.08-.18,0-.35-.02-.5-.07-.13-.04-.24-.1-.31-.17l-.29-.31-.4-.48h0ZM11.11,7.5c-.27-.31-.52-.61-.81-.84l-.11-.08.35-.05c.25,0,.5.06.74.16l.36.21c.18.14.35.31.53.5l.43.46.36.35c-.17.05-.33.09-.49.09-.18,0-.35,0-.5-.05-.13-.04-.24-.09-.31-.16l-.56-.59Z" fill="#fff" fill-rule="evenodd" stroke-width="0"></path><path d="M3.39,7.47v.02c-.06.04.06.15.12.21.22.13.46.21.6.23.16.03.33.04.51.02l-.27-.43-.31-.54c-.13-.24-.13-.44-.35-.66-.05-.1-.57-.38-1.07.15-.35.71-.19.59-.25.86,0,.09,0,.19,0,.17l.58-.06c.11-.08.2-.26.33-.35.29-.14.07-.23.11.39h0ZM6.34,6.5c.2.22.38.48.57.74l.37.5.27.33c.07.08.17.14.3.2l.16.05h.05s.04-.92.04-.92l-.04-.05-.21-.26-.19-.2-.34-.25-.32-.14-.39-.09h-.35s.01.02.01.02l.08.08h0ZM7.66,6.6l-.08-.07h-.02s.35-.03.35-.03l.22.03-.02.58-.04-.05-.07-.09-.33-.36h0ZM4.14,7.06c0,.05,0,.04.01.25l-.93.1c.08-.1.18-.22.28-.3.37-.1-.26-.12-.1.03v.2c.07-.38-.05-.3.05-.31.24.02.91.03.69.03h0ZM4.17,6.88c-.21-.29-.07-.54-.48-.85-.06-.04-.14-.08-.24-.12.31,0,.56.08.63.12.1.05.31.14.54.29l.31.29c.21.26.41.58.62.91l.43.62c-.17.02-.35.02-.51,0-.18-.02-.35-.06-.49-.14-.12-.06-.22-.14-.28-.23l-.23-.36-.31-.54h0ZM5.64,7.29c-.22-.34-.42-.67-.65-.96l-.09-.1.34.02c.24.05.48.12.7.26l.32.27c.15.16.3.36.45.57l.37.51.31.4c-.17.03-.34.04-.5.03-.18-.01-.35-.05-.49-.12-.13-.06-.22-.13-.29-.21l-.47-.67Z" fill="#fff" fill-rule="evenodd" stroke-width="0"></path><path d="M45.65,8.06l.03.02c.07.06.17.11.29.14.15.04.32.06.5.04.16-.02.33-.06.49-.11l-.37-.34-.45-.45c-.18-.18-.36-.35-.54-.49l-.37-.21-.34-.1-.18-.03.02.58.33.37.57.58h0ZM48.24,6.3c.25.16.49.35.75.56.14.12.36.22.52.33.14-.1.17.53.14-.07-.21-.02.46-.2-.59-.16-.17-.04-.07,0-.12.02l-.02.1.92.1.06-.03c.1-.06.19-.14.26-.27.01-.34-.18-.5-.38-.6-.28-.14-.55-.1-.69-.12-.17,0-.18-.04-.24-.04h-.4s-.33.11-.33.11h.02s.1.06.1.06h0ZM49.81,6.01c-.13-.05-.24-.07-.3-.07h-.04c.07-.23,1.4.16,1.29,1.02,0,.17-.04.39-.05.34l-.58-.07h.06s.1-.1.1-.1c.06-.11.17-.08.15-.42-.15-.5-.34-.54-.62-.69h0ZM45.07,8.35h-.29s-.03-.95-.03-.95l.29.32.5.51.03.03c-.17.05-.34.08-.5.09h0ZM46.24,7.23c-.23-.24-.45-.46-.68-.64l-.11-.07.34-.06c.24-.02.5.04.74.12l.37.19c.27.19.54.45.84.72l.58.49c-.16.07-.33.12-.49.14-.18.02-.36.01-.51-.02-.13-.03-.25-.08-.33-.14l-.32-.28-.44-.44h0ZM47.77,7.25c-.31-.29-.58-.56-.88-.76l-.11-.07.34-.08c.24-.03.5.01.74.08l.38.17c.19.12.38.27.58.43.16.14.31.28.55.36.14.09.35.13.35.27.03.02-.19.14-.46.21-.22.05-.37.04-.53.02-.14-.02-.25-.07-.34-.12l-.63-.52Z" fill="#fff" fill-rule="evenodd" stroke-width="0"></path><path d="M40.1,8.02l.02.03c.07.07.16.13.27.17.14.06.31.09.49.1.16,0,.33,0,.5-.04l-.32-.39-.38-.5c-.16-.2-.31-.39-.47-.55l-.34-.26-.33-.14-.18-.05-.05.58.29.4.49.65h0ZM42.93,6.66c.22.2.43.44.64.68l.41.47.29.31c.07.07.18.13.31.17l.16.04h.05s-.03-.92-.03-.92l-.05-.05-.23-.24-.2-.18-.36-.22-.33-.12-.4-.05-.35.04h.02s.09.08.09.08h0ZM44.26,6.65l-.09-.07h-.02s.35-.06.35-.06h.22s.02.6.02.6l-.05-.05-.08-.08-.36-.33h0ZM39.5,8.23l-.28-.04.07-.93.25.35.43.57.03.04c-.17.03-.34.04-.5.03h0ZM40.79,7.27c-.2-.26-.39-.5-.6-.72l-.1-.09.35-.02c.25.02.5.09.73.21l.35.25c.25.23.47.53.72.83l.49.58c-.17.04-.34.05-.5.05-.18,0-.35-.03-.49-.09-.13-.05-.23-.12-.3-.19l-.27-.33-.38-.5h0ZM42.3,7.51c-.26-.32-.49-.63-.76-.88l-.1-.08.35-.03c.25.01.5.07.73.19l.35.24c.17.15.33.33.5.53l.41.48.34.37c-.17.04-.34.07-.5.07-.18,0-.35-.02-.49-.07-.13-.05-.23-.11-.3-.18l-.53-.62Z" fill="#fff" fill-rule="evenodd" stroke-width="0"></path><path d="M34.6,7.4l.02.03c.06.07.14.14.25.2.14.07.3.12.48.15.16.02.33.03.5,0l-.28-.42-.33-.54c-.14-.21-.27-.42-.41-.6l-.31-.29-.31-.17-.17-.07-.11.57.24.43.43.69h0ZM37.55,6.32c.2.22.38.47.57.74l.35.51.25.34c.06.08.16.15.29.21l.16.05h.04s.07-.92.07-.92l-.04-.05-.2-.26-.18-.21-.33-.26-.32-.15c-.13-.05-.26-.08-.4-.09h-.35s.02.02.02.02l.08.08h0ZM38.89,6.45l-.08-.08h-.01s.35-.02.35-.02l.22.03-.05.58-.04-.05-.07-.09-.32-.37h0ZM33.98,7.55l-.28-.08.17-.92.21.37.37.61.03.04c-.17.01-.34,0-.5-.02h0ZM35.36,6.72c-.17-.28-.33-.54-.52-.77l-.09-.1.35.02c.24.04.49.13.7.28l.32.28c.22.25.42.57.64.9l.43.63c-.17.02-.34.02-.5,0-.18-.02-.34-.07-.48-.13-.12-.06-.22-.14-.28-.22l-.24-.35-.33-.53h0ZM36.84,7.1c-.22-.35-.43-.67-.67-.95l-.09-.1h.35c.25.04.49.13.71.27l.33.27c.15.17.3.37.45.57l.35.52.3.41c-.17.02-.34.03-.5.01-.18-.02-.34-.06-.48-.12-.12-.06-.22-.13-.28-.21l-.46-.67Z" fill="#fff" fill-rule="evenodd" stroke-width="0"></path><path d="M29.23,5.64v.03c.04.09.11.18.19.27.11.11.26.2.43.28l.49.16-.16-.48-.17-.6c-.07-.24-.13-.48-.21-.69-.05-.13-.12-.26-.2-.37l-.23-.26-.14-.12-.29.51.1.48.19.8h0ZM32.34,5.37c.15.25.27.53.41.83l.28.58.22.36c.06.08.15.17.27.23l.15.07.04.02.17-.92-.04-.06-.17-.28-.16-.22-.3-.3-.27-.21c-.11-.07-.23-.13-.35-.16l-.33-.06v.02s.07.09.07.09h0ZM33.56,5.71l-.07-.08h-.01s.35.01.35.01l.21.06-.11.57-.03-.06-.06-.1-.27-.4h0ZM28.59,5.58l-.24-.16.46-.82.08.42.16.7v.05s-.46-.19-.46-.19h0ZM30.16,5.23c-.08-.31-.15-.61-.26-.89l-.05-.12.32.13c.21.12.41.26.57.46l.22.35c.14.3.25.66.37,1.05.09.23.18.46.3.69-.18-.01-.36-.05-.52-.1-.17-.07-.32-.17-.44-.28-.1-.1-.18-.2-.22-.29l-.14-.4-.16-.6h0ZM31.48,6c-.13-.39-.24-.78-.39-1.1l-.06-.12.33.1c.22.1.42.26.59.42l.25.32c.11.19.22.41.32.64l.28.59.25.45c-.17.01-.35-.03-.51-.08-.18-.05-.35-.13-.48-.22-.12-.08-.21-.17-.25-.26-.13-.24-.23-.5-.33-.74Z" fill="#fff" fill-rule="evenodd" stroke-width="0"></path><path d="M25.17,4.91h.03c.09.03.2.02.32,0,.15-.03.31-.1.46-.19.14-.08.27-.19.39-.31l-.48-.15-.6-.21c-.24-.08-.48-.15-.7-.19l-.42-.02-.35.05-.18.05.28.51.46.18c.25.1.52.2.78.27h0ZM27.62,3.03c.09.28.15.59.2.91l.1.62.09.42c.02.1.09.2.18.3l.12.11.03.03.46-.82v-.07s-.09-.32-.09-.32l-.08-.26c-.04-.13-.11-.26-.19-.38l-.22-.28-.32-.25-.33-.15v.02s.05.1.05.1h0ZM28.77,3.72l-.04-.11v-.02s.32.14.32.14l.18.12-.29.51v-.06s-.04-.11-.04-.11l-.13-.46h0ZM24.78,5.41l-.27.12-.45-.82.4.15.68.24h.04c-.12.13-.27.23-.41.31h0ZM25.31,3.89c-.31-.11-.6-.2-.9-.25h-.13s.28-.23.28-.23c.21-.13.46-.21.73-.23h.43c.2.12.99.07.76.43l.12.74-.44-.2-.05-.03-.03-.02h-.01s0-.01,0-.01c-.21,0,1.8,0,.95,0h0s0,0,0,0h0s-.11.06-.11.06l-.23.07c-.13.03-.25.03-.35,0l-.41-.12-.59-.2h0ZM26.65,3.44c-.27-.49-.72-.36-1.07-.5h-.13s.29-.23.29-.23l.17-.09.09-.04.04-.02h.02s.01-.01.01-.01h0s0,0,0,0c.41,0-.91,0,.91,0h0s0,0,0,0h0s.25.31.25.31c.08.12.15.26.19.38.07.22.12.45.16.71l.1.62.09.49-.45-.2c-.15-.09-.29-.2-.38-.32-.09-.1-.15-.21-.17-.31l-.14-.8Z" fill="#fff" fill-rule="evenodd" stroke-width="0"></path><path d="M19.96,7.12l.03.02c.08.05.19.08.31.08.16,0,.34-.02.52-.08.16-.05.33-.12.49-.21l-.45-.26-.52-.35c-.21-.15-.39-.26-.6-.38l-.39-.16-.35-.06h-.18s.1.57.1.57l.38.31.65.5h0ZM22.12,4.83c.28.09.56.22.86.36l.57.25.4.14c.1.03.22.03.35,0l.16-.04h.05s-.45-.83-.45-.83l-.06-.02-.31-.11-.26-.07-.42-.04-.35.04-.38.11-.29.18h.02s.11.03.11.03h0ZM23.29,4.26l.46.14.11.04.06.02-.28-.51-.2.09-.28.2h.02s.11.02.11.02h0ZM19.43,7.48l-.29.03-.17-.92.33.27.57.43.04.03c-.16.07-.32.12-.48.16h0ZM20.41,6.18c-.27-.19-.49-.34-.76-.49l-.12-.06.33-.12c.22-.07.46-.08.71-.04l.39.12c.3.13.63.35.98.52l.68.32c-.14.11-.29.2-.44.26-.16.08-.35.11-.51.11-.14,0-.27-.03-.36-.07l-.38-.21-.52-.34h0ZM21.9,5.87c-.36-.17-.7-.4-1.02-.55l-.12-.05.3-.13c.22-.05.47-.11.72-.1l.41.07c.21.07.44.16.67.27l.59.26.47.17c-.13.11-.27.22-.42.29-.17.08-.34.12-.5.14-.14.01-.26,0-.36-.03l-.74-.34Z" fill="#fff" fill-rule="evenodd" stroke-width="0"></path><path d="M14.47,7.9l.03.02c.07.06.17.1.29.13.15.04.32.04.5.03.16-.01.32-.05.48-.11l-.37-.33-.45-.44c-.19-.18-.37-.34-.55-.47l-.38-.2-.34-.09-.18-.02.04.58.35.35.59.56h0ZM17.06,6.12c.25.16.49.36.73.58l.47.41.33.26c.08.06.2.1.33.12h.17s.05.02.05.02l-.17-.92-.05-.04-.26-.2-.23-.15-.39-.17-.35-.07c-.14-.02-.28-.01-.41,0l-.34.09h.02s.1.06.1.06h0ZM18.38,5.92l-.1-.05h-.02s.34-.11.34-.11l.22-.02.11.58-.05-.04-.09-.07-.4-.28h0ZM13.91,8.21h-.29s-.07-.94-.07-.94l.3.31.51.5.03.03c-.16.06-.33.09-.49.1h0ZM15.03,7.05c-.23-.23-.46-.44-.7-.62l-.11-.07.35-.08c.25-.02.51.01.75.1l.38.19c.28.19.55.44.84.71l.57.5c-.16.06-.33.11-.48.13-.18.02-.35.02-.5-.02-.13-.03-.24-.08-.32-.14l-.32-.28-.45-.44h0ZM16.56,7.06c-.3-.28-.58-.55-.89-.76l-.12-.07.35-.08c.24-.03.51,0,.75.08l.38.18c.19.12.38.28.57.45l.48.42.39.31c-.16.07-.32.12-.48.14-.18.03-.35.02-.5,0-.13-.03-.25-.07-.33-.13l-.61-.53Z" fill="#fff" fill-rule="evenodd" stroke-width="0"></path><path d="M8.93,8.12l.03.02c.07.06.16.12.28.16.14.05.32.08.5.08.16,0,.33-.03.5-.07l-.34-.37-.41-.49c-.17-.2-.33-.38-.5-.53l-.35-.24-.33-.13-.18-.04-.02.58.3.39.52.62h0ZM11.69,6.62c.23.18.45.41.67.65l.43.45.31.29c.08.07.18.12.32.16l.16.03h.05s-.07-.92-.07-.92l-.05-.05-.24-.23-.21-.17-.37-.2-.34-.1c-.14-.03-.27-.04-.41-.04l-.35.06h.02s.09.08.09.08h0ZM13.03,6.54l-.09-.06h-.02s.35-.08.35-.08h.22s.04.58.04.58l-.05-.05-.08-.08-.37-.32h0ZM8.34,8.36l-.29-.03.04-.93.26.33.45.55.03.03c-.17.04-.34.05-.5.05h0ZM9.59,7.34c-.21-.25-.41-.49-.63-.69l-.1-.08.35-.03c.25,0,.5.08.73.18l.36.22c.26.21.5.5.76.8l.52.55c-.17.05-.33.08-.49.08-.18,0-.35-.02-.5-.07-.13-.04-.24-.1-.31-.17l-.29-.31-.4-.48h0ZM11.11,7.5c-.27-.31-.52-.61-.81-.84l-.11-.08.35-.05c.25,0,.5.06.74.16l.36.21c.18.14.35.31.53.5l.43.46.36.35c-.17.05-.33.09-.49.09-.18,0-.35,0-.5-.05-.13-.04-.24-.09-.31-.16l-.56-.59Z" fill="#fff" fill-rule="evenodd" stroke-width="0"></path><path d="M3.39,7.47v.02c-.06.04.06.15.12.21.22.13.46.21.6.23.16.03.33.04.51.02l-.27-.43-.31-.54c-.13-.24-.13-.44-.35-.66-.05-.1-.57-.38-1.07.15-.35.71-.19.59-.25.86,0,.09,0,.19,0,.17l.58-.06c.11-.08.2-.26.33-.35.29-.14.07-.23.11.39h0ZM6.34,6.5c.2.22.38.48.57.74l.37.5.27.33c.07.08.17.14.3.2l.16.05h.05s.04-.92.04-.92l-.04-.05-.21-.26-.19-.2-.34-.25-.32-.14-.39-.09h-.35s.01.02.01.02l.08.08h0ZM7.66,6.6l-.08-.07h-.02s.35-.03.35-.03l.22.03-.02.58-.04-.05-.07-.09-.33-.36h0ZM4.14,7.06c0,.05,0,.04.01.25l-.93.1c.08-.1.18-.22.28-.3.37-.1-.26-.12-.1.03v.2c.07-.38-.05-.3.05-.31.24.02.91.03.69.03h0ZM4.17,6.88c-.21-.29-.07-.54-.48-.85-.06-.04-.14-.08-.24-.12.31,0,.56.08.63.12.1.05.31.14.54.29l.31.29c.21.26.41.58.62.91l.43.62c-.17.02-.35.02-.51,0-.18-.02-.35-.06-.49-.14-.12-.06-.22-.14-.28-.23l-.23-.36-.31-.54h0ZM5.64,7.29c-.22-.34-.42-.67-.65-.96l-.09-.1.34.02c.24.05.48.12.7.26l.32.27c.15.16.3.36.45.57l.37.51.31.4c-.17.03-.34.04-.5.03-.18-.01-.35-.05-.49-.12-.13-.06-.22-.13-.29-.21l-.47-.67Z" fill="#fff" fill-rule="evenodd" stroke-width="0"></path></g></g></g></g><g><polygon points="36.05 31.58 36.05 34.52 33.99 34.52 33.99 31.58 32.73 31.58 32.73 37.09 33.99 37.09 33.99 35.63 36.05 35.63 36.05 37.09 37.31 37.09 37.31 31.58 36.05 31.58" fill="#fff" fill-rule="evenodd" stroke-width="0"></polygon><path d="M31.11,34.26h-.01c.03-.06.56-.24.56-1.19,0-1.04-.84-1.47-1.47-1.47h-2.94v5.44h3.08c.63,0,1.46-.57,1.46-1.61,0-.67-.58-1.16-.67-1.17h0ZM28.41,32.68h1.6c.29,0,.53.24.53.53s-.24.53-.53.53h-1.6v-1.06h0ZM30.06,35.96h-1.67v-1.12h1.67c.31,0,.55.25.55.56s-.25.56-.55.56Z" fill="#fff" fill-rule="evenodd" stroke-width="0"></path><path d="M18.17,31.47c-1.54,0-2.8,1.19-2.8,2.66v2.95h1.45v-1.29h1.79v-.92h-1.79v-.74c0-.67.61-1.21,1.35-1.21s1.34.54,1.34,1.21v2.95h1.45v-2.95c0-1.47-1.25-2.66-2.79-2.66Z" fill="#fff" fill-rule="evenodd" stroke-width="0"></path><path d="M24.66,33.69h-.97c-.27,0-.49-.19-.49-.43s.22-.45.49-.45h2.16v-1.25h-2.16c-.63.01-1.73.45-1.71,1.69.01,1.17,1.08,1.6,1.36,1.66.24.05,1.3.02,1.3.02.27,0,.49.2.49.45s-.22.45-.49.45h-2.49v1.22s2.4.05,2.82,0c.25-.03,1.38-.4,1.38-1.67s-1.06-1.68-1.69-1.68Z" fill="#fff" fill-rule="evenodd" stroke-width="0"></path></g><g><path d="M21.36,12.23c2.26-.12,4,.59,5.5,1.54,2.65,1.68,4.49,4.06,4.32,8.34-.08,1.91-.62,3.63-1.47,4.79,2.74-1.74,4.76-5.92,3.15-9.98-.64-1.61-1.89-2.98-3.41-3.89-1.3-.78-3.31-1.42-5.23-1.42-1.01,0-2,.18-2.85.61Z" fill="#fff" fill-rule="evenodd" stroke-width="0"></path><path d="M29.1,12.03c2.29.35,4.06,1.5,5.19,3.12,1.06,1.52,1.31,4.78.45,6.76,1.01-1.4,2.13-2.9,1.96-5.13-.17-2.28-1.83-3.27-3.68-4.08-.93-.41-2.25-.7-3.34-.7-.2,0-.4.01-.58.03Z" fill="#fff" fill-rule="evenodd" stroke-width="0"></path><path d="M15.96,14.44h0c3.96-.2,6.96,2.14,8.44,4.56,1.45,2.37,1.74,7.45-.1,9.78,1.13-.54,1.93-1.62,2.59-2.73.66-1.1,1.13-2.3,1.22-3.8.17-3.14-1.16-5.15-2.91-6.56-1.45-1.17-3.47-2.13-5.88-2.13-.16,0-.32,0-.48.01-1.13.06-2.08.4-2.88.87Z" fill="#fff" fill-rule="evenodd" stroke-width="0"></path><path d="M19.62,29.22h0c1.55-1.36,2.72-3.42,2.85-5.77.19-3.39-2.19-5.24-4.26-6.06-.76-.3-1.88-.61-2.89-.61-.62,0-1.2.11-1.63.4,1.38.05,2.6.59,3.59,1.24.95.62,1.85,1.42,2.48,2.38,1.21,1.85,1.55,5.71.27,7.84-.11.18-.45.46-.4.57Z" fill="#fff" fill-rule="evenodd" stroke-width="0"></path></g><polygon points="10.2 12.64 8.53 12.68 7.97 11.1 7.49 12.7 5.82 12.73 7.19 13.7 6.71 15.3 8.05 14.28 9.42 15.24 8.87 13.65 10.2 12.64" fill="#fff" fill-rule="evenodd" stroke-width="0"></polygon><polygon points="42.59 12.64 44.26 12.68 44.82 11.1 45.3 12.7 46.98 12.73 45.6 13.7 46.08 15.3 44.75 14.28 43.37 15.24 43.92 13.65 42.59 12.64" fill="#fff" fill-rule="evenodd" stroke-width="0"></polygon><polygon points="24.14 57.39 25.81 57.43 26.36 55.85 26.85 57.45 28.52 57.49 27.15 58.45 27.63 60.05 26.29 59.04 24.91 59.99 25.47 58.41 24.14 57.39" fill="#fff" fill-rule="evenodd" stroke-width="0"></polygon><polygon points="10.46 22.25 8.79 22.29 8.23 20.71 7.75 22.31 6.08 22.35 7.45 23.31 6.97 24.91 8.31 23.89 9.69 24.85 9.13 23.27 10.46 22.25" fill="#fff" fill-rule="evenodd" stroke-width="0"></polygon><polygon points="42.33 22.25 44 22.29 44.56 20.71 45.04 22.31 46.72 22.35 45.34 23.31 45.82 24.91 44.48 23.89 43.11 24.85 43.66 23.27 42.33 22.25" fill="#fff" fill-rule="evenodd" stroke-width="0"></polygon><polygon points="11.15 31.93 9.47 31.97 8.92 30.39 8.44 31.99 6.76 32.02 8.14 32.99 7.66 34.58 8.99 33.57 10.37 34.52 9.81 32.94 11.15 31.93" fill="#fff" fill-rule="evenodd" stroke-width="0"></polygon><polygon points="41.64 31.93 43.32 31.97 43.87 30.39 44.35 31.99 46.03 32.02 44.65 32.99 45.13 34.58 43.8 33.57 42.42 34.52 42.98 32.94 41.64 31.93" fill="#fff" fill-rule="evenodd" stroke-width="0"></polygon><polygon points="13.75 41.56 12.07 41.6 11.52 40.02 11.04 41.62 9.36 41.66 10.74 42.62 10.26 44.22 11.59 43.2 12.97 44.16 12.41 42.58 13.75 41.56" fill="#fff" fill-rule="evenodd" stroke-width="0"></polygon><polygon points="39.04 41.56 40.72 41.6 41.27 40.02 41.75 41.62 43.43 41.66 42.05 42.62 42.53 44.22 41.2 43.2 39.82 44.16 40.38 42.58 39.04 41.56" fill="#fff" fill-rule="evenodd" stroke-width="0"></polygon><polygon points="21.06 49.94 19.39 49.98 18.83 48.4 18.35 50 16.67 50.03 18.05 51 17.57 52.6 18.9 51.58 20.28 52.54 19.73 50.96 21.06 49.94" fill="#fff" fill-rule="evenodd" stroke-width="0"></polygon><polygon points="31.73 49.94 33.4 49.98 33.96 48.4 34.44 50 36.12 50.03 34.74 51 35.22 52.6 33.89 51.58 32.51 52.54 33.06 50.96 31.73 49.94" fill="#fff" fill-rule="evenodd" stroke-width="0"></polygon><path d="M18.14,40.6v3.21s.02.05.05.05h.58s.05-.02.05-.05v-1.13s.02-.05.05-.05h.56c.13.02.22.11.26.29l.29.81s.02.05.04.08c.02.03.04.05.06.05h.64s.03,0,.03-.02c0,0,0-.02-.03-.04-.02-.02-.03-.04-.03-.07l-.25-.78c-.02-.07-.05-.14-.08-.21-.03-.07-.08-.15-.15-.24,0,0,0-.01,0-.02,0,0,0-.02,0-.02,0,0,0-.01.01-.01.08-.04.14-.09.19-.14.05-.05.09-.11.13-.17.06-.12.1-.32.1-.59v-.11c0-.29-.08-.51-.22-.65-.08-.08-.16-.14-.24-.17-.08-.03-.17-.05-.25-.05h-1.71s-.05.02-.05.05h0ZM19.75,41.15c.07,0,.13.06.17.17.02.03.03.06.03.1,0,.04,0,.07,0,.12,0,.09-.01.16-.03.23-.02.07-.06.12-.1.16-.05.04-.1.06-.14.06h-.83s-.05-.02-.05-.05v-.75s.02-.05.05-.05h.9ZM23.27,40.6v2.24s0,.08-.03.13c-.02.05-.04.09-.07.13-.03.04-.07.08-.11.11-.04.03-.09.04-.14.04h-.48c-.06,0-.1-.01-.15-.04-.04-.03-.08-.06-.1-.11-.03-.04-.05-.09-.06-.13-.01-.05-.02-.09-.02-.13v-2.25s-.02-.05-.05-.05h-.58s-.05.02-.05.05v2.37c0,.09.01.17.03.24.02.08.05.15.09.21.04.06.09.12.15.18.05.05.1.09.17.13.06.04.14.07.22.09s.18.03.28.03h.54c.08,0,.15,0,.22-.02.07-.01.13-.03.18-.05.06-.02.11-.05.18-.08.06-.03.12-.07.16-.12.04-.05.08-.1.12-.15.04-.05.06-.11.08-.15.02-.05.04-.12.05-.2.01-.08.02-.18.02-.29v-2.19s-.02-.05-.05-.05h-.58s-.05.02-.05.05h0ZM26.6,40.55h-.95c-.12,0-.23.03-.33.09-.1.06-.19.13-.27.23-.08.09-.14.19-.18.3-.04.11-.07.22-.07.32v1.31c0,.12.02.24.06.36.04.12.1.24.18.34.08.1.17.19.29.26.11.07.24.1.39.1h.8c.18,0,.33-.03.45-.1.12-.07.22-.15.29-.24.07-.09.13-.19.16-.29.03-.1.05-.19.05-.26v-1.04s-.02-.05-.05-.05h-1.43s-.05.02-.05.05v.51s.02.05.05.05h.75s.05.02.05.05v.43s0,.06-.02.09c-.01.04-.04.07-.06.1-.03.03-.07.06-.11.08-.04.02-.1.03-.15.03h-.56c-.12,0-.22-.05-.29-.16-.08-.1-.12-.24-.12-.41v-1.2s.01-.06.03-.1c.02-.04.05-.08.08-.11.03-.04.07-.06.1-.09.04-.02.07-.03.1-.03h1.41s.05-.02.05-.05v-.51s-.02-.05-.05-.05h-.6ZM28.34,40.6s.02-.05.05-.05h1.66c.11,0,.21.02.31.06s.17.09.24.16c.07.07.12.15.16.25.04.1.06.21.06.33,0,.17-.01.3-.04.39s-.06.17-.09.22c-.04.05-.07.08-.09.1-.03.02-.04.03-.04.04,0,.02.02.05.07.1.05.05.1.11.16.17.02.03.04.06.06.1.02.04.03.07.04.11.01.04.02.08.03.12,0,.04,0,.07,0,.1,0,.15-.01.29-.04.41-.03.13-.08.24-.14.34-.07.1-.16.17-.27.23-.11.06-.26.08-.43.08h-1.63s-.05-.02-.05-.05v-3.21h0ZM29.01,43.21s.02.05.05.05h.97c.05,0,.1-.01.13-.04.03-.03.06-.06.08-.1.02-.04.04-.09.04-.13,0-.05.01-.09.01-.12,0-.07,0-.13-.03-.18-.02-.05-.04-.09-.06-.11-.03-.03-.06-.05-.09-.06-.03-.01-.06-.02-.09-.02h-.97s-.05.02-.05.05v.67h0ZM29.01,41.83s.02.05.05.05h.8c.12,0,.21-.03.26-.08.05-.05.08-.15.08-.29,0-.13-.03-.22-.1-.27-.07-.05-.15-.08-.24-.08h-.8s-.05.02-.05.05v.63h0ZM33.43,43.85s.06-.04.06-.12v-1.03s.07-.03.11-.06c.04-.03.08-.07.12-.13l.86-1.91s0-.03,0-.04c0-.01-.02-.02-.04-.02h-.62s-.06.02-.08.06l-.63,1.41s-.02.03-.03.03c0,0-.02.01-.04.01-.03,0-.06-.02-.07-.05l-.65-1.42s-.04-.06-.08-.06h-.64s-.05.02-.02.07l.88,1.91c.03.06.07.1.12.13.05.03.09.05.12.06v1.03c0,.08.02.12.07.12h.56Z" fill="#fff" fill-rule="evenodd" stroke-width="0"></path></svg>