<?xml version="1.0" encoding="UTF-8" standalone="no"?>
<svg
   xmlns:dc="http://purl.org/dc/elements/1.1/"
   xmlns:cc="http://creativecommons.org/ns#"
   xmlns:rdf="http://www.w3.org/1999/02/22-rdf-syntax-ns#"
   xmlns:svg="http://www.w3.org/2000/svg"
   xmlns="http://www.w3.org/2000/svg"
   xmlns:sodipodi="http://sodipodi.sourceforge.net/DTD/sodipodi-0.dtd"
   xmlns:inkscape="http://www.inkscape.org/namespaces/inkscape"
   inkscape:version="1.0 (4035a4f, 2020-05-01)"
   sodipodi:docname="Logo Biarritz Olympique Pays Basque - 2016.svg"
   version="1.1"
   id="svg833"
   xml:space="preserve"
   width="600"
   height="491.79987"
   viewBox="0 0 600.00002 491.79987"><sodipodi:namedview
     inkscape:current-layer="svg833"
     inkscape:window-maximized="0"
     inkscape:window-y="0"
     inkscape:window-x="0"
     inkscape:cy="245.89993"
     inkscape:cx="300"
     inkscape:zoom="1.2139084"
     showgrid="false"
     id="namedview881"
     inkscape:window-height="900"
     inkscape:window-width="1440"
     inkscape:pageshadow="2"
     inkscape:pageopacity="0"
     guidetolerance="10"
     gridtolerance="10"
     objecttolerance="10"
     borderopacity="1"
     bordercolor="#666666"
     pagecolor="#ffffff" /><metadata
     id="metadata839"><rdf:RDF><cc:Work
         rdf:about=""><dc:format>image/svg+xml</dc:format><dc:type
           rdf:resource="http://purl.org/dc/dcmitype/StillImage" /><dc:title /></cc:Work></rdf:RDF></metadata><defs
     id="defs837" /><g
     transform="matrix(3.0745486,0,0,-3.0745486,-249.06395,868.76904)"
     id="g2309"><path
       d="m 142.8447,189.7796 12.405,20.064 h 46.668 l 12.405,-20.051 -35.691,-67.183 z"
       style="fill:#ee2722;fill-opacity:1;fill-rule:nonzero;stroke:none"
       id="path2009" /><path
       d="m 199.9097,206.2479 h -42.653 l -10.258,-16.587 0.597,-1.096 28.311,-53.279 2.694,-5.017 1.891,3.585 28.844,54.278 0.83,1.537 z"
       style="fill:#ffffff;fill-opacity:1;fill-rule:nonzero;stroke:none"
       id="path2011" /><g
       id="g2295"><path
         id="path2013"
         style="fill:#ee2722;fill-opacity:1;fill-rule:nonzero;stroke:none"
         d="m 160.218,197.965 h 9.859 v 5.251 h -9.859 z" /><path
         id="path2015"
         style="fill:#ee2722;fill-opacity:1;fill-rule:nonzero;stroke:none"
         d="m 173.653,197.965 h 9.857 v 5.251 h -9.857 z" /><path
         id="path2017"
         style="fill:#ee2722;fill-opacity:1;fill-rule:nonzero;stroke:none"
         d="m 187.086,197.965 h 9.867 v 5.251 h -9.867 z" /><path
         id="path2019"
         style="fill:#ee2722;fill-opacity:1;fill-rule:nonzero;stroke:none"
         d="m 183.5125,146.0017 v 29.055 h -9.858 v -29.055 l 4.928,-9.281 z" /><path
         id="path2021"
         style="fill:#ee2722;fill-opacity:1;fill-rule:nonzero;stroke:none"
         d="m 196.9523,175.0575 h -9.867 v -22.33 l 9.867,18.562 z" /><path
         id="path2023"
         style="fill:#ee2722;fill-opacity:1;fill-rule:nonzero;stroke:none"
         d="m 160.2181,175.0575 h 9.859 v -22.33 l -9.859,18.562 z" /></g><g
       id="g2287"><path
         id="path2033"
         style="fill:#ee2722;fill-opacity:1;fill-rule:nonzero;stroke:none"
         d="m 166.0075,185.0374 v -3.276 h 2.539 c 1.427,0 2.514,0.295 2.514,1.629 0,1.55 -1.355,1.647 -3.202,1.647 z m 0,6.187 v -2.958 h 2.415 c 1.157,0 1.996,0.518 1.996,1.551 0,1.383 -1.133,1.407 -2.367,1.407 z m -5.814,-13.602 v 17.739 h 8.475 c 3.992,0 7.171,-0.935 7.171,-4.459 0,-1.823 -1.185,-3.153 -2.316,-3.868 1.922,-0.493 2.954,-2.144 2.954,-4.064 0,-3.967 -3.029,-5.348 -7.636,-5.348 z" /><path
         id="path2035"
         style="fill:#ee2722;fill-opacity:1;fill-rule:nonzero;stroke:none"
         d="m 184.7188,186.59 c 0,-2.266 0.689,-5.1 3.476,-5.1 2.511,0 3.497,2.171 3.497,5.1 0,2.415 -0.986,4.977 -3.549,4.904 -2.634,0 -3.424,-2.661 -3.424,-4.904 m 12.788,0 c 0,-6.035 -4.066,-9.435 -9.312,-9.435 -5.569,0 -9.291,3.447 -9.291,9.485 0,5.567 3.768,9.19 9.291,9.19 6.33,0 9.312,-4.56 9.312,-9.24" /></g></g><g
     transform="matrix(3.0745486,0,0,-3.0745486,-249.06395,868.76904)"
     id="g2283"><g
       id="g2252"><path
         id="path2037"
         style="fill:#ee2722;fill-opacity:1;fill-rule:nonzero;stroke:none"
         d="m 92.3013,265.9937 h -4.547 v -4.818 h 4.547 c 1.851,0 2.467,1.272 2.467,2.426 0,1.159 -0.616,2.392 -2.467,2.392 m -0.349,10.524 h -4.198 v -4.472 h 4.198 c 1.851,0 2.432,1.155 2.432,2.236 0,1.08 -0.581,2.236 -2.432,2.236 m 1.003,-21.394 h -11.947 v 27.443 h 11.372 c 5.703,0 8.749,-3.199 8.749,-7.939 0,-3.124 -2.161,-4.858 -3.009,-5.436 1.118,-0.694 3.394,-2.12 3.394,-5.973 0,-5.243 -3.663,-8.095 -8.559,-8.095" /><path
         id="path2039"
         style="fill:#ee2722;fill-opacity:1;fill-rule:nonzero;stroke:none"
         d="m 110.494,255.124 h 6.746 v 27.444 h -6.746 z" /><path
         id="path2041"
         style="fill:#ee2722;fill-opacity:1;fill-rule:nonzero;stroke:none"
         d="m 137.1275,272.1604 -2.469,-7.324 h 4.782 z m 5.358,-17.037 -1.271,4.088 h -8.441 l -1.351,-4.088 h -7.054 l 9.985,27.443 h 5.202 l 9.983,-27.443 z" /><path
         id="path2043"
         style="fill:#ee2722;fill-opacity:1;fill-rule:nonzero;stroke:none"
         d="m 167.2315,276.5168 h -3.815 v -5.553 h 3.815 c 1.85,0 2.931,1.352 2.931,2.777 0,1.427 -1.081,2.776 -2.931,2.776 m 3.315,-21.394 -4.855,10.213 h -2.275 v -10.213 h -6.746 v 27.444 h 10.87 c 6.089,0 9.368,-4.315 9.368,-8.826 0,-3.739 -2.312,-6.089 -4.471,-7.169 l 5.934,-11.449 z" /><path
         id="path2045"
         style="fill:#ee2722;fill-opacity:1;fill-rule:nonzero;stroke:none"
         d="m 196.7176,276.5168 h -3.815 v -5.553 h 3.815 c 1.851,0 2.93,1.352 2.93,2.777 0,1.427 -1.079,2.776 -2.93,2.776 m 3.316,-21.394 -4.858,10.213 h -2.273 v -10.213 h -6.747 v 27.444 h 10.871 c 6.089,0 9.368,-4.315 9.368,-8.826 0,-3.739 -2.314,-6.089 -4.474,-7.169 l 5.937,-11.449 z" /><path
         id="path2047"
         style="fill:#ee2722;fill-opacity:1;fill-rule:nonzero;stroke:none"
         d="m 215.604,255.124 h 6.746 v 27.444 h -6.746 z" /><path
         id="path2049"
         style="fill:#ee2722;fill-opacity:1;fill-rule:nonzero;stroke:none"
         d="m 244.1291,276.5558 v -21.432 h -6.748 v 21.432 h -6.745 v 6.012 h 20.238 v -6.012 z" /><path
         id="path2051"
         style="fill:#ee2722;fill-opacity:1;fill-rule:nonzero;stroke:none"
         d="m 257.5399,255.1234 v 5.241 l 10.523,16.191 h -10.06 v 6.011 h 18.156 v -5.24 l -10.563,-16.192 h 10.563 v -6.011 z" /></g><g
       id="g2242"
       style="fill:#ee2722;fill-opacity:1"><path
         id="path2053"
         style="fill:#ee2722;fill-opacity:1;fill-rule:nonzero;stroke:none"
         d="m 99.7204,235.0276 c 0,-0.465 0.13,-0.809 0.388,-1.03 0.257,-0.217 0.561,-0.329 0.917,-0.329 0.35,0 0.655,0.112 0.914,0.329 0.258,0.221 0.387,0.565 0.387,1.03 v 7.101 c 0,0.463 -0.129,0.807 -0.387,1.028 -0.259,0.22 -0.564,0.331 -0.914,0.331 -0.356,0 -0.66,-0.111 -0.917,-0.331 -0.258,-0.221 -0.388,-0.565 -0.388,-1.028 z m -1.925,7.101 c 0,0.54 0.095,1.018 0.284,1.435 0.189,0.415 0.437,0.756 0.743,1.028 0.309,0.268 0.657,0.474 1.039,0.616 0.386,0.136 0.772,0.203 1.164,0.203 0.389,0 0.776,-0.067 1.157,-0.203 0.386,-0.142 0.732,-0.348 1.04,-0.616 0.308,-0.272 0.557,-0.613 0.747,-1.028 0.188,-0.417 0.281,-0.895 0.281,-1.435 v -7.101 c 0,-0.555 -0.093,-1.038 -0.281,-1.443 -0.19,-0.411 -0.439,-0.749 -0.747,-1.021 -0.308,-0.271 -0.654,-0.477 -1.04,-0.615 -0.381,-0.137 -0.768,-0.205 -1.157,-0.205 -0.392,0 -0.778,0.068 -1.164,0.205 -0.382,0.138 -0.73,0.344 -1.039,0.615 -0.306,0.272 -0.554,0.61 -0.743,1.021 -0.189,0.405 -0.284,0.888 -0.284,1.443 z" /><path
         id="path2055"
         style="fill:#ee2722;fill-opacity:1;fill-rule:nonzero;stroke:none"
         d="m 106.7061,245.2985 h 1.926 v -11.518 h 3.813 v -1.925 h -5.739 z" /><path
         id="path2057"
         style="fill:#ee2722;fill-opacity:1;fill-rule:nonzero;stroke:none"
         d="m 114.5041,237.5389 -2.644,7.76 h 2.04 l 1.55,-5.344 h 0.037 l 1.548,5.344 h 2.039 l -2.644,-7.76 v -5.681 h -1.926 z" /><path
         id="path2059"
         style="fill:#ee2722;fill-opacity:1;fill-rule:nonzero;stroke:none"
         d="m 120.7908,245.2985 h 1.851 l 2.473,-7.119 h 0.037 l 2.454,7.119 h 1.871 v -13.443 h -1.927 v 8.176 h -0.037 l -1.908,-5.778 h -0.964 l -1.886,5.778 h -0.038 v -8.176 h -1.926 z" /><path
         id="path2061"
         style="fill:#ee2722;fill-opacity:1;fill-rule:nonzero;stroke:none"
         d="m 133.97,238.9167 h 0.926 c 0.389,0 0.691,0.058 0.904,0.171 0.216,0.111 0.371,0.266 0.474,0.461 0.1,0.199 0.158,0.431 0.179,0.709 0.018,0.276 0.027,0.585 0.027,0.924 0,0.315 -0.009,0.614 -0.027,0.898 -0.021,0.283 -0.077,0.53 -0.171,0.737 -0.092,0.208 -0.242,0.37 -0.443,0.493 -0.202,0.116 -0.491,0.178 -0.869,0.178 h -1 z m -1.927,6.384 h 2.889 c 0.53,0 0.995,-0.071 1.396,-0.208 0.405,-0.141 0.768,-0.386 1.096,-0.739 0.329,-0.353 0.554,-0.765 0.681,-1.236 0.126,-0.472 0.189,-1.108 0.189,-1.914 0,-0.595 -0.034,-1.101 -0.105,-1.521 -0.07,-0.422 -0.218,-0.815 -0.444,-1.181 -0.265,-0.441 -0.616,-0.784 -1.057,-1.026 -0.44,-0.247 -1.019,-0.371 -1.736,-0.371 h -0.982 v -5.247 h -1.927 z" /><path
         id="path2063"
         style="fill:#ee2722;fill-opacity:1;fill-rule:nonzero;stroke:none"
         d="m 140.539,231.856 h 1.928 v 13.445 h -1.928 z" /><path
         id="path2065"
         style="fill:#ee2722;fill-opacity:1;fill-rule:nonzero;stroke:none"
         d="m 146.9013,235.0276 c 0,-0.465 0.132,-0.809 0.388,-1.03 0.257,-0.217 0.562,-0.329 0.917,-0.329 0.164,0 0.299,0.028 0.416,0.075 l -0.87,0.695 0.983,1.177 0.774,-0.626 v 0.038 7.101 c 0,0.463 -0.13,0.807 -0.386,1.028 -0.26,0.22 -0.566,0.331 -0.917,0.331 -0.355,0 -0.66,-0.111 -0.917,-0.331 -0.256,-0.221 -0.388,-0.565 -0.388,-1.028 z m -1.925,7.101 c 0,0.54 0.095,1.018 0.286,1.435 0.187,0.415 0.435,0.756 0.743,1.028 0.309,0.268 0.656,0.474 1.038,0.616 0.385,0.136 0.772,0.203 1.163,0.203 0.388,0 0.776,-0.067 1.159,-0.203 0.384,-0.142 0.73,-0.348 1.038,-0.616 0.309,-0.272 0.558,-0.613 0.747,-1.028 0.188,-0.417 0.281,-0.895 0.281,-1.435 v -7.101 c 0,-0.529 -0.093,-0.987 -0.281,-1.378 l 1.188,-0.963 -0.98,-1.169 -1.132,0.926 c -0.289,-0.243 -0.608,-0.417 -0.955,-0.53 -0.345,-0.115 -0.702,-0.17 -1.065,-0.17 -0.391,0 -0.778,0.068 -1.163,0.205 -0.382,0.138 -0.729,0.344 -1.038,0.615 -0.308,0.272 -0.556,0.61 -0.743,1.021 -0.191,0.405 -0.286,0.888 -0.286,1.443 z" /><path
         id="path2067"
         style="fill:#ee2722;fill-opacity:1;fill-rule:nonzero;stroke:none"
         d="m 160.1167,234.877 c 0,-0.442 -0.081,-0.849 -0.243,-1.228 -0.165,-0.378 -0.388,-0.708 -0.671,-0.993 -0.281,-0.28 -0.615,-0.505 -0.991,-0.667 -0.379,-0.165 -0.781,-0.246 -1.209,-0.246 -0.429,0 -0.831,0.081 -1.209,0.246 -0.38,0.162 -0.706,0.387 -0.991,0.667 -0.283,0.285 -0.505,0.615 -0.669,0.993 -0.163,0.379 -0.247,0.786 -0.247,1.228 v 10.422 h 1.927 v -10.231 c 0,-0.483 0.113,-0.832 0.34,-1.058 0.227,-0.229 0.51,-0.341 0.849,-0.341 0.342,0 0.623,0.112 0.85,0.341 0.226,0.226 0.339,0.575 0.339,1.058 v 10.231 h 1.925 z" /><path
         id="path2069"
         style="fill:#ee2722;fill-opacity:1;fill-rule:nonzero;stroke:none"
         d="m 162.6862,245.2985 h 5.74 v -1.812 h -3.813 v -3.944 h 3.321 v -1.813 h -3.321 v -3.949 h 3.813 v -1.925 h -5.74 z" /><path
         id="path2071"
         style="fill:#ee2722;fill-opacity:1;fill-rule:nonzero;stroke:none"
         d="m 176.6196,238.9167 h 0.926 c 0.389,0 0.692,0.058 0.905,0.171 0.215,0.111 0.371,0.266 0.473,0.461 0.1,0.199 0.159,0.431 0.18,0.709 0.018,0.276 0.026,0.585 0.026,0.924 0,0.315 -0.008,0.614 -0.026,0.898 -0.021,0.283 -0.077,0.53 -0.171,0.737 -0.092,0.208 -0.242,0.37 -0.443,0.493 -0.202,0.116 -0.49,0.178 -0.869,0.178 h -1.001 z m -1.926,6.384 h 2.888 c 0.529,0 0.995,-0.071 1.396,-0.208 0.405,-0.141 0.768,-0.386 1.095,-0.739 0.33,-0.353 0.555,-0.765 0.683,-1.236 0.125,-0.472 0.188,-1.108 0.188,-1.914 0,-0.595 -0.035,-1.101 -0.103,-1.521 -0.07,-0.422 -0.219,-0.815 -0.443,-1.181 -0.267,-0.441 -0.618,-0.784 -1.061,-1.026 -0.438,-0.247 -1.016,-0.371 -1.734,-0.371 h -0.983 v -5.247 h -1.926 z" /><path
         id="path2073"
         style="fill:#ee2722;fill-opacity:1;fill-rule:nonzero;stroke:none"
         d="m 185.3807,241.4286 h -0.039 l -0.944,-4.87 h 1.927 z m -0.813,3.87 h 1.606 l 3.003,-13.441 h -1.926 l -0.568,2.887 h -2.624 l -0.567,-2.887 h -1.922 z" /><path
         id="path2075"
         style="fill:#ee2722;fill-opacity:1;fill-rule:nonzero;stroke:none"
         d="m 191.6304,237.5389 -2.644,7.76 h 2.038 l 1.548,-5.344 h 0.038 l 1.548,5.344 h 2.039 l -2.641,-7.76 v -5.681 h -1.926 z" /><path
         id="path2077"
         style="fill:#ee2722;fill-opacity:1;fill-rule:nonzero;stroke:none"
         d="m 204.147,241.4286 h -1.926 v 0.433 c 0,0.442 -0.104,0.821 -0.311,1.142 -0.209,0.323 -0.559,0.482 -1.05,0.482 -0.263,0 -0.482,-0.049 -0.653,-0.151 -0.168,-0.099 -0.3,-0.229 -0.393,-0.387 -0.097,-0.155 -0.162,-0.338 -0.199,-0.547 -0.042,-0.207 -0.057,-0.425 -0.057,-0.651 0,-0.263 0.01,-0.487 0.029,-0.67 0.018,-0.181 0.065,-0.339 0.142,-0.474 0.074,-0.128 0.185,-0.247 0.329,-0.345 0.144,-0.103 0.344,-0.204 0.593,-0.306 l 1.474,-0.581 c 0.43,-0.166 0.776,-0.357 1.039,-0.58 0.264,-0.218 0.469,-0.478 0.613,-0.769 0.145,-0.299 0.242,-0.639 0.294,-1.026 0.05,-0.381 0.076,-0.819 0.076,-1.311 0,-0.565 -0.058,-1.091 -0.171,-1.575 -0.113,-0.486 -0.299,-0.901 -0.557,-1.244 -0.256,-0.349 -0.602,-0.623 -1.027,-0.824 -0.43,-0.199 -0.951,-0.301 -1.57,-0.301 -0.464,0 -0.899,0.08 -1.301,0.244 -0.403,0.163 -0.749,0.388 -1.037,0.673 -0.292,0.28 -0.521,0.617 -0.691,1.01 -0.169,0.387 -0.255,0.812 -0.255,1.265 v 0.718 h 1.926 v -0.607 c 0,-0.352 0.104,-0.671 0.312,-0.953 0.209,-0.285 0.556,-0.423 1.046,-0.423 0.33,0 0.583,0.045 0.766,0.138 0.182,0.096 0.322,0.228 0.415,0.398 0.095,0.169 0.154,0.381 0.18,0.632 0.027,0.255 0.038,0.53 0.038,0.831 0,0.353 -0.011,0.643 -0.038,0.869 -0.026,0.223 -0.078,0.407 -0.164,0.545 -0.078,0.142 -0.193,0.253 -0.337,0.343 -0.144,0.087 -0.338,0.18 -0.576,0.282 l -1.377,0.57 c -0.832,0.336 -1.39,0.787 -1.671,1.349 -0.285,0.557 -0.426,1.259 -0.426,2.102 0,0.503 0.07,0.985 0.207,1.435 0.139,0.454 0.345,0.846 0.615,1.172 0.271,0.328 0.613,0.589 1.026,0.784 0.419,0.194 0.903,0.29 1.458,0.29 0.477,0 0.915,-0.086 1.311,-0.263 0.397,-0.173 0.735,-0.41 1.018,-0.696 0.286,-0.293 0.503,-0.616 0.655,-0.975 0.149,-0.359 0.225,-0.728 0.225,-1.101 z" /><path
         id="path2079"
         style="fill:#ee2722;fill-opacity:1;fill-rule:nonzero;stroke:none"
         d="m 212.5288,233.7805 h 0.83 c 0.392,0 0.698,0.058 0.916,0.171 0.221,0.114 0.388,0.271 0.5,0.471 0.115,0.204 0.182,0.441 0.208,0.718 0.027,0.28 0.038,0.581 0.038,0.906 0,0.34 -0.019,0.639 -0.056,0.888 -0.037,0.252 -0.118,0.463 -0.237,0.632 -0.119,0.17 -0.286,0.301 -0.501,0.389 -0.213,0.09 -0.496,0.131 -0.849,0.131 h -0.849 z m 0,6.005 h 0.868 c 0.641,0 1.072,0.161 1.294,0.482 0.219,0.32 0.33,0.792 0.33,1.407 0,0.603 -0.123,1.057 -0.369,1.359 -0.244,0.301 -0.688,0.454 -1.33,0.454 h -0.793 z m -1.926,5.515 h 2.813 c 0.616,0 1.142,-0.093 1.578,-0.284 0.432,-0.19 0.789,-0.442 1.066,-0.756 0.275,-0.314 0.474,-0.675 0.595,-1.086 0.118,-0.409 0.179,-0.831 0.179,-1.275 v -0.489 c 0,-0.364 -0.03,-0.674 -0.086,-0.926 -0.057,-0.249 -0.14,-0.472 -0.253,-0.662 -0.116,-0.188 -0.253,-0.355 -0.417,-0.5 -0.163,-0.144 -0.352,-0.28 -0.567,-0.406 0.456,-0.214 0.789,-0.531 1,-0.953 0.215,-0.425 0.323,-0.985 0.323,-1.69 v -0.757 c 0,-1.18 -0.287,-2.088 -0.859,-2.715 -0.573,-0.629 -1.489,-0.946 -2.747,-0.946 h -2.625 z" /><path
         id="path2081"
         style="fill:#ee2722;fill-opacity:1;fill-rule:nonzero;stroke:none"
         d="m 222.1193,241.4286 h -0.037 l -0.942,-4.87 h 1.924 z m -0.81,3.87 h 1.604 l 3.003,-13.441 h -1.925 l -0.568,2.887 h -2.623 l -0.567,-2.887 h -1.925 z" /><path
         id="path2083"
         style="fill:#ee2722;fill-opacity:1;fill-rule:nonzero;stroke:none"
         d="m 233.8462,241.4286 h -1.927 v 0.433 c 0,0.442 -0.103,0.821 -0.31,1.142 -0.209,0.323 -0.559,0.482 -1.05,0.482 -0.264,0 -0.481,-0.049 -0.653,-0.151 -0.168,-0.099 -0.3,-0.229 -0.394,-0.387 -0.095,-0.155 -0.162,-0.338 -0.199,-0.547 -0.041,-0.207 -0.056,-0.425 -0.056,-0.651 0,-0.263 0.01,-0.487 0.029,-0.67 0.018,-0.181 0.064,-0.339 0.142,-0.474 0.073,-0.128 0.185,-0.247 0.328,-0.345 0.145,-0.103 0.344,-0.204 0.596,-0.306 l 1.472,-0.581 c 0.431,-0.166 0.776,-0.357 1.038,-0.58 0.267,-0.218 0.47,-0.478 0.614,-0.769 0.143,-0.299 0.242,-0.639 0.293,-1.026 0.05,-0.381 0.077,-0.819 0.077,-1.311 0,-0.565 -0.058,-1.091 -0.171,-1.575 -0.113,-0.486 -0.299,-0.901 -0.557,-1.244 -0.256,-0.349 -0.602,-0.623 -1.027,-0.824 -0.431,-0.199 -0.953,-0.301 -1.57,-0.301 -0.465,0 -0.899,0.08 -1.301,0.244 -0.404,0.163 -0.75,0.388 -1.038,0.673 -0.291,0.28 -0.52,0.617 -0.692,1.01 -0.168,0.387 -0.253,0.812 -0.253,1.265 v 0.718 h 1.925 v -0.607 c 0,-0.352 0.105,-0.671 0.312,-0.953 0.209,-0.285 0.557,-0.423 1.047,-0.423 0.33,0 0.583,0.045 0.766,0.138 0.182,0.096 0.322,0.228 0.415,0.398 0.095,0.169 0.156,0.381 0.18,0.632 0.025,0.255 0.037,0.53 0.037,0.831 0,0.353 -0.012,0.643 -0.037,0.869 -0.024,0.223 -0.078,0.407 -0.163,0.545 -0.079,0.142 -0.195,0.253 -0.338,0.343 -0.143,0.087 -0.338,0.18 -0.576,0.282 l -1.377,0.57 c -0.834,0.336 -1.39,0.787 -1.672,1.349 -0.285,0.557 -0.424,1.259 -0.424,2.102 0,0.503 0.068,0.985 0.206,1.435 0.139,0.454 0.345,0.846 0.613,1.172 0.273,0.328 0.615,0.589 1.028,0.784 0.418,0.194 0.902,0.29 1.455,0.29 0.477,0 0.918,-0.086 1.315,-0.263 0.396,-0.173 0.735,-0.41 1.017,-0.696 0.285,-0.293 0.502,-0.616 0.653,-0.975 0.15,-0.359 0.227,-0.728 0.227,-1.101 z" /><path
         id="path2085"
         style="fill:#ee2722;fill-opacity:1;fill-rule:nonzero;stroke:none"
         d="m 237.8474,235.0276 c 0,-0.465 0.127,-0.809 0.385,-1.03 0.258,-0.217 0.566,-0.329 0.917,-0.329 0.164,0 0.304,0.028 0.416,0.075 l -0.869,0.695 0.981,1.177 0.776,-0.626 v 0.038 7.101 c 0,0.463 -0.131,0.807 -0.384,1.028 -0.261,0.22 -0.569,0.331 -0.92,0.331 -0.351,0 -0.659,-0.111 -0.917,-0.331 -0.258,-0.221 -0.385,-0.565 -0.385,-1.028 z m -1.925,7.101 c 0,0.54 0.093,1.018 0.282,1.435 0.19,0.415 0.438,0.756 0.745,1.028 0.308,0.268 0.654,0.474 1.038,0.616 0.385,0.136 0.771,0.203 1.162,0.203 0.389,0 0.776,-0.067 1.161,-0.203 0.384,-0.142 0.73,-0.348 1.037,-0.616 0.311,-0.272 0.56,-0.613 0.748,-1.028 0.19,-0.417 0.282,-0.895 0.282,-1.435 v -7.101 c 0,-0.529 -0.092,-0.987 -0.282,-1.378 l 1.19,-0.963 -0.985,-1.169 -1.13,0.926 c -0.292,-0.243 -0.608,-0.417 -0.953,-0.53 -0.347,-0.115 -0.704,-0.17 -1.068,-0.17 -0.391,0 -0.777,0.068 -1.162,0.205 -0.384,0.138 -0.73,0.344 -1.038,0.615 -0.307,0.272 -0.555,0.61 -0.745,1.021 -0.189,0.405 -0.282,0.888 -0.282,1.443 z" /><path
         id="path2087"
         style="fill:#ee2722;fill-opacity:1;fill-rule:nonzero;stroke:none"
         d="m 251.0649,234.877 c 0,-0.442 -0.082,-0.849 -0.246,-1.228 -0.163,-0.378 -0.386,-0.708 -0.67,-0.993 -0.283,-0.28 -0.615,-0.505 -0.992,-0.667 -0.376,-0.165 -0.78,-0.246 -1.208,-0.246 -0.428,0 -0.83,0.081 -1.208,0.246 -0.379,0.162 -0.707,0.387 -0.99,0.667 -0.284,0.285 -0.509,0.615 -0.672,0.993 -0.164,0.379 -0.245,0.786 -0.245,1.228 v 10.422 h 1.925 v -10.231 c 0,-0.483 0.113,-0.832 0.342,-1.058 0.225,-0.229 0.509,-0.341 0.848,-0.341 0.339,0 0.624,0.112 0.848,0.341 0.229,0.226 0.342,0.575 0.342,1.058 v 10.231 h 1.926 z" /><path
         id="path2089"
         style="fill:#ee2722;fill-opacity:1;fill-rule:nonzero;stroke:none"
         d="m 253.6317,245.2985 h 5.739 v -1.812 h -3.812 v -3.944 h 3.322 v -1.813 h -3.322 v -3.949 h 3.812 v -1.925 h -5.739 z" /></g></g></svg>
