<?xml version="1.0" encoding="UTF-8" standalone="no"?>
<svg xmlns="http://www.w3.org/2000/svg" version="1.1" viewBox="0 0 410 491.81" height="491.81" width="410">
 <defs>
  <clipPath id="clipPath47822">
   <path d="m 145.13,255.35 174.83,0 0,210.58 -174.83,0 0,-210.58 z"/>
  </clipPath>
 </defs>
 <g transform="translate(-1085.7,-128.65)">
  <g transform="matrix(2.288,0,0,-2.288,758.63,1199.7)">
   <g>
    <g style="clip-path:url(#clipPath47822)">
     <g transform="translate(79.088,797.56)">
      <path d="m 98.935,-331.87 c -11.008,-18.96 -21.884,-38.04 -32.888,-57 l 0,-0.24 c 29.108,-50.99 58.073,-102.1 87.173,-153.11 29.23,51.06 58.49,102.07 87.65,153.19 -11.08,19.18 -22.28,38.24 -33.37,57.4 l -108.405,0 c -0.1,0 -0.164,-0.1 -0.16,-0.24" style="fill:#ffffff;fill-rule:evenodd"/>
     </g>
    </g>
   </g>
   <g>
    <g style="clip-path:url(#clipPath47822)">
     <g transform="translate(71.225,783.27)">
      <path d="m 75.346,-374.74 c 28.684,-50.11 57.064,-100.52 85.814,-150.55 28.6,50.29 57.53,100.27 86.05,150.63 -10.15,17.52 -20.34,34.85 -30.57,52.53 -0.34,0.59 -1.69,3.43 -2.31,3.43 l -106.65,0 c -10.854,-18.61 -21.554,-37.36 -32.334,-56.04 m 31.614,57.4 108.41,0 c 11.08,-19.17 22.28,-38.23 33.36,-57.4 -29.16,-51.12 -58.42,-102.13 -87.65,-153.19 -29.09,51 -58.06,102.12 -87.17,153.11 l 0,0.24 c 11.008,18.96 21.88,38.04 32.89,57 0,0.13 0.1,0.21 0.16,0.24" style="fill-rule:evenodd"/>
     </g>
    </g>
   </g>
   <g transform="translate(88.129,762.34)">
    <path d="m 126.06,-437.54 c 0,0.16 -0.24,0 -0.24,-0.1 l 0,-24.75 c 0,-1.25 -0.2,-2.66 0,-3.59 0.1,-0.51 0.72,-1.32 1.12,-1.99 5.75,-9.97 11.6,-19.91 17.24,-29.62 5.29,8.96 10.69,18.25 16.04,27.38 0.55,0.94 2.06,2.94 2.24,3.99 0.36,2.16 0,4.79 0,7.11 l 0,21.55 c -11.43,0 -25.03,0 -36.4,0 m 62.9,56.91 c 0.11,-12.45 -0.21,-25.29 0.16,-37.43 1.28,-0.8 1.6,0.66 2,1.35 6.81,11.78 13.54,23.59 20.35,35.21 0.19,0.31 0.65,0.67 0.48,1.11 l -22.91,0 c -0.1,0 -0.1,-0.12 -0.1,-0.24 m -63.22,0 0,-34.56 36.8,0 c 0,11.57 0.1,23.36 -0.1,34.8 l -36.64,0 c -0.1,0 -0.1,-0.12 -0.1,-0.24 m -23.31,0 0,-37.99 c 0,-1.83 -0.33,-4.02 0,-5.51 0.12,-0.56 0.74,-1.43 1.19,-2.24 5.98,-10.64 11.8,-20.7 17.65,-31.37 0.43,-0.78 0.61,-2 1.68,-1.51 0.56,0.26 0.43,0.35 0.47,1.03 0.45,7.9 -0.4,15.56 0.1,23.15 13.33,-0.18 27.7,0 41.43,-0.1 0.13,-6.23 0.1,-12.26 0.1,-18.6 0,-1.29 -0.3,-4.24 0,-5.5 0.1,-0.4 0,-0.17 0.4,-0.41 0.37,-0.23 0.75,-0.28 1.12,0.17 0.23,0.27 0.49,0.84 0.64,1.12 6.16,10.97 11.93,21.18 18.12,31.92 0.5,0.87 1.16,1.74 1.27,2.32 0.3,1.54 0,3.57 0,5.43 l 0,38.31 -21.71,0 c -0.1,-12.4 0.1,-24.59 0.1,-36.96 -13.81,0.1 -27.83,-0.1 -41.51,0.1 l 0,36.64 c -6.92,0.13 -13.93,0.18 -20.91,0.24 -0.1,0 -0.1,-0.12 -0.1,-0.24 m -25.545,0.24 c -0.128,0 -0.06,-0.17 0,-0.24 6.868,-11.99 14.3,-24.74 21.312,-36.88 0.508,-0.88 0.436,-1.23 1.516,-0.79 0.437,0.57 0.24,1.41 0.24,2.07 l 0,35.84 -23.068,0 z m -14.612,26.59 c 4.052,-7.38 7.784,-14.33 11.896,-21.71 0.416,-0.75 1.288,-2.77 1.916,-2.96 0.912,-0.28 2.776,0 4.232,0 9.644,0 18.996,0.1 29.213,0.1 34.43,0 69.33,0 103.14,0 1.37,1.9 2.37,4.01 3.51,6.07 3.45,6.18 7.13,12.22 10.46,18.44 -3.99,6.89 -7.92,13.73 -11.9,20.67 -0.43,0.76 -1.3,2.62 -1.91,2.8 -0.91,0.27 -2.79,0 -4.23,0 -44.19,0 -89.24,0 -132.915,0 -4.508,-7.76 -8.98,-15.56 -13.412,-23.39 m 126.687,52.53 0,-27.46 23.07,0 c -2.5,4.6 -5.17,9.27 -7.9,13.88 -2.74,4.63 -5.28,9.37 -8.14,13.82 l -6.95,0 c -0.1,0 -0.1,-0.13 -0.1,-0.24 m -24.03,0 0,-27.46 c 6.58,-0.14 14.82,-0.14 21.4,0 l 0,27.7 -21.32,0 c -0.1,0 -0.1,-0.13 -0.1,-0.24 m -39.11,0 0,-27.46 36.64,0 c -0.1,9.2 0.1,18.62 -0.1,27.7 l -36.48,0 c -0.1,0 -0.1,-0.13 -0.1,-0.24 m -23.55,0 c 0,-8.41 0,-19.15 0,-27.46 6.86,-0.14 14.29,-0.14 21.15,0 l 0,27.7 -21.07,0 c -0.1,0 -0.1,-0.13 -0.1,-0.24 m -13.893,-6.87 c -3.66,-6.29 -7.28,-12.77 -10.856,-19 -0.328,-0.57 -0.856,-1.09 -0.8,-1.59 l 23.232,0 0,27.61 c -2.316,0.19 -4.976,0 -7.424,0.1 -1.448,-2.24 -2.756,-4.72 -4.152,-7.11 m 2.396,10.38 106.657,0 c 0.62,0 1.97,-2.84 2.31,-3.43 10.23,-17.68 20.41,-35.02 30.57,-52.53 -28.53,-50.37 -57.46,-100.35 -86.05,-150.64 -28.76,50.03 -57.139,100.45 -85.819,150.56 10.78,18.68 21.48,37.43 32.332,56.04" style="fill:#ffffff;fill-rule:evenodd"/>
   </g>
   <g transform="translate(78.989,794.51)">
    <path d="m 98.636,-341.03 c -3.188,-5.72 -6.684,-11.52 -9.9,-17.08 -0.308,-0.54 -0.672,-1.14 -0.636,-1.52 l 19.64,0 0,25.07 -5.35,0 c -1.33,-2.01 -2.538,-4.28 -3.754,-6.47 m 3.034,7.82 c 2.45,-0.1 5.11,0.11 7.42,-0.1 l 0,-27.62 -23.226,0 c -0.06,0.51 0.468,1.03 0.796,1.6 3.576,6.23 7.196,12.71 10.86,19 1.392,2.39 2.7,4.87 4.15,7.1" style="fill-rule:evenodd"/>
   </g>
   <g transform="translate(82.202,796.46)">
    <path d="m 108.27,-335.16 21.08,0 0,-27.7 c -6.87,-0.13 -14.29,-0.13 -21.16,0 0,8.32 0,19.06 0,27.46 0,0.11 0,0.22 0.1,0.24" style="fill-rule:evenodd"/>
   </g>
   <g transform="translate(88.388,796.06)">
    <path d="m 126.83,-336.36 0,-24.83 34.09,0 0,25.07 -34,0 c -0.1,0 -0.1,-0.13 -0.1,-0.24 m -1.19,1.6 36.48,0 c 0.18,-9.08 0,-18.5 0.1,-27.7 l -36.64,0 0,27.46 c 0,0.11 0,0.22 0.1,0.24" style="fill-rule:evenodd"/>
   </g>
   <g transform="translate(97.868,796.46)">
    <path d="m 155.27,-335.16 21.32,0 0,-27.7 c -6.58,-0.13 -14.82,-0.13 -21.4,0 l 0,27.46 c 0,0.11 0,0.22 0.1,0.24" style="fill-rule:evenodd"/>
   </g>
   <g transform="translate(104.17,796.06)">
    <path d="m 174.19,-336.36 0,-24.83 19.64,0 c -2.29,4.25 -4.88,8.35 -7.27,12.54 -2.4,4.23 -4.69,8.49 -7.34,12.53 l -4.95,0 c -0.1,0 -0.1,-0.13 -0.1,-0.24 m -1.19,1.6 6.94,0 c 2.87,-4.45 5.4,-9.19 8.15,-13.81 2.73,-4.61 5.4,-9.29 7.9,-13.89 l -23.07,0 0,27.46 c 0,0.11 0,0.22 0.1,0.24" style="fill-rule:evenodd"/>
   </g>
   <g transform="translate(100.16,781.7)">
    <path d="m 162.16,-379.47 c 0,0.19 -0.22,0 -0.16,-0.16 l 0,-10.77 7.1,0 0,2.63 -3.99,0 c 0.1,0.56 -0.1,1.33 0.1,1.75 l 3.6,0 0,2.64 -3.68,0 c 0,0.43 -0.1,1.06 0.1,1.36 l 3.91,0 0,2.55 c -1.84,0.13 -4.84,0.14 -6.94,0 m -9.1,-0.1 0,-2.47 3.59,0 c -0.97,-1.62 -2.08,-3.67 -3.12,-5.43 -0.59,-1.01 -1.42,-1.81 -0.71,-2.95 l 7.82,0 c 0.1,0.33 0,1.91 0,2.63 -1.22,0 -2.66,-0.11 -3.75,0.1 0.89,1.53 2.04,3.62 3.03,5.35 0.59,1.02 1.55,1.89 0.56,2.95 -2.42,-0.1 -5.26,0.21 -7.42,-0.16 m -8.15,0.16 0,-11.01 7.11,0 0,2.63 -3.99,0 c 0.1,0.56 -0.11,1.33 0.1,1.75 l 3.59,0 0,2.56 c -1.07,0.18 -2.47,0 -3.67,0.1 0.1,0.43 -0.11,1.06 0.1,1.36 l 3.91,0 0,2.55 c -1.62,0.18 -5.09,0 -7.11,0.1 m -1.51,-3.51 c 0.26,3.89 -4.33,3.51 -7.99,3.51 -0.18,-3.51 0,-7.37 -0.1,-11.01 l 3.11,0 0,3.59 c 0.41,-0.5 0.9,-1.03 1.44,-1.76 0.38,-0.51 0.82,-1.63 1.43,-1.83 0.64,-0.21 1.37,0.14 2.32,0 0.1,0.48 0.23,0.82 0.32,1.27 -0.89,1.25 -1.93,2.33 -2.72,3.67 1.35,0.31 2.07,1.22 2.16,2.56 m -10.86,2.79 c -1.72,1.06 -4.43,0.53 -6.7,0.72 -0.37,-3.35 -0.1,-7.39 -0.16,-11.01 l 3.11,0 0,3.67 c 0.39,-0.53 0.88,-1.1 1.44,-1.84 0.37,-0.5 0.84,-1.64 1.44,-1.83 0.64,-0.22 1.36,0.15 2.31,0 0.1,0.48 0.29,0.77 0.32,1.27 -0.8,1.25 -2.08,2.44 -2.63,3.67 2.43,0.34 2.71,4.22 0.87,5.35 m -21.55,-6.54 c 1.69,-4.45 9.2,-5.01 11.89,-1.04 0.33,0.49 0.7,1.29 0.8,1.99 0.59,4.24 -3.52,6.7 -7.42,6.23 -3.31,-0.39 -6.71,-3.39 -5.27,-7.18 m -12.931,4.71 c -1.6,-1.85 -1.212,-4.83 0.396,-6.31 2.095,-1.93 6.725,-2.67 10.295,-1.75 l 0,2.87 c -2.74,-0.92 -7.67,-0.39 -7.5,2.47 0.15,2.56 5.04,3.44 7.5,2.24 l 0,2.71 c -4.22,0.77 -8.7,0.1 -10.691,-2.23 m 21.471,10.46 c -0.1,-1.99 3.1,-2.15 3.59,-0.56 0.43,1.38 -0.86,2.29 -2.23,1.99 -0.96,-0.21 -1.34,-0.8 -1.36,-1.43 m -19.08,-1.6 c 1.84,0.54 1.26,3.7 -1.195,3.03 -2.336,-0.67 -0.92,-3.66 1.195,-3.03 m 72.24,13.49 c -0.18,-4.26 0,-8.86 -0.1,-13.25 l 8.95,0 0,2.47 c -1.87,0.1 -3.94,-0.1 -5.67,0.1 l 0,3.11 5.67,0 0,2.48 c -1.87,0.1 -3.94,-0.11 -5.67,0.1 0.1,0.86 -0.1,1.91 0.1,2.64 1.68,-0.19 3.7,0 5.51,-0.1 0.18,0.67 0,1.67 0.1,2.47 l -8.87,0 z m -10.45,-13.25 3.19,0 c 1.81,4.47 3.76,8.8 5.59,13.25 l -3.59,0 c -1.19,-3.5 -2.68,-6.69 -3.59,-10.46 -0.9,3.76 -2.35,6.97 -3.52,10.46 l -3.59,0 c 1.75,-4.5 3.74,-8.76 5.51,-13.25 m -10.46,0 3.28,0 0,13.25 -3.2,0 c -0.19,-4.26 0,-8.86 -0.1,-13.25 m -2.71,8.78 c 0.83,5.05 -5.29,4.55 -10.14,4.47 l 0,-13.25 3.27,0 0,5.98 c 1.37,-1.92 2.59,-4 3.91,-5.98 l 3.76,0 c -1.24,2.04 -2.94,4.03 -4,5.98 1.69,0.47 2.94,1.24 3.2,2.8 m -22.84,4.23 0,-12.93 c 2.89,0 6.74,-0.5 8.79,0.88 1.58,1.06 2.15,3.85 0.39,5.18 -0.63,0.48 -1.41,0.54 -2.31,0.88 2.01,0.1 3.47,1.9 2.71,3.92 -1.03,2.74 -5.76,2.32 -9.42,2.31 -0.1,0 -0.16,-0.1 -0.16,-0.24 m -17.48,0.24 c -2.04,-4.31 -3.89,-8.83 -5.82,-13.25 l 3.51,0 c 0.4,0.9 0.65,1.95 1.11,2.79 l 5.75,0 c 0.39,-0.94 0.83,-1.83 1.2,-2.79 l 3.75,0 c -1.92,4.44 -3.88,8.84 -5.82,13.25 l -3.68,0 z m -19.075,0.32 c -3.868,-0.3 -6.932,-2.58 -7.264,-6.15 -0.432,-4.62 3.152,-7.82 8.22,-7.82 1.892,0 3.188,0.41 4.632,1.12 l 0,2.87 c -3.232,-2.52 -9.808,-1.97 -9.5,3.35 0.216,3.69 4.592,5.34 8.064,3.76 0.624,-0.29 0.98,-0.84 1.436,-0.8 0.164,0.79 0,1.91 0.16,2.71 -1.616,0.7 -3.412,1.14 -5.748,0.96 m -26.024,9.5 c 43.669,0 88.719,0 132.919,0 1.44,0 3.32,0.27 4.22,0 0.61,-0.18 1.48,-2.03 1.92,-2.79 3.98,-6.95 7.91,-13.78 11.9,-20.68 -3.34,-6.22 -7.02,-12.26 -10.46,-18.44 -1.15,-2.06 -2.14,-4.17 -3.52,-6.07 -33.8,0 -68.7,0 -103.131,0 -10.22,0 -19.572,-0.1 -29.216,-0.1 -1.456,0 -3.32,-0.27 -4.232,0 -0.628,0.19 -1.5,2.21 -1.916,2.95 -4.112,7.39 -7.844,14.34 -11.896,21.72 4.432,7.83 8.904,15.63 13.412,23.39" style="fill-rule:evenodd"/>
   </g>
   <g transform="translate(92.021,785.35)">
    <path d="m 137.73,-368.51 0,3.03 c 1.9,0.45 4.32,-0.69 3.11,-2.39 -0.5,-0.72 -1.99,-0.6 -3.11,-0.64" style="fill-rule:evenodd"/>
   </g>
   <g transform="translate(95.174,785.27)">
    <path d="m 147.19,-368.75 0,3.35 c 2.22,0.47 4.63,-0.79 3.43,-2.71 -0.5,-0.81 -2.05,-0.56 -3.43,-0.64" style="fill-rule:evenodd"/>
   </g>
   <g transform="translate(87.231,786.05)">
    <path d="m 123.36,-366.42 c 0.53,-2.02 1.33,-3.77 2.08,-5.58 -1.2,-0.19 -2.74,0 -4.07,-0.1 0.68,1.86 1.54,3.56 1.99,5.66" style="fill-rule:evenodd"/>
   </g>
   <g transform="translate(92.021,783.91)">
    <path d="m 137.73,-372.82 0,3.51 c 2.33,0.46 4.63,-0.86 3.43,-2.71 -0.54,-0.85 -1.91,-0.79 -3.43,-0.8" style="fill-rule:evenodd"/>
   </g>
   <g transform="translate(91.821,781.06)">
    <path d="m 137.13,-381.38 c 0.7,0 1.37,0 1.76,-0.32 0.36,-1.06 -0.72,-1.29 -1.76,-1.2 l 0,1.52 z" style="fill-rule:evenodd"/>
   </g>
   <g transform="translate(94.236,781.06)">
    <path d="m 144.38,-381.38 c 0.71,0 1.36,0 1.75,-0.32 0.11,-0.34 0,-0.4 0,-0.8 -0.38,-0.34 -0.98,-0.45 -1.75,-0.4 l 0,1.52 z" style="fill-rule:evenodd"/>
   </g>
   <g transform="translate(88.808,781)">
    <path d="m 128.09,-381.56 c 1.93,0.26 4.1,-0.87 3.67,-3.19 -0.5,-2.71 -5.97,-3.07 -6.38,0.16 -0.23,1.79 0.96,2.79 2.71,3.03" style="fill-rule:evenodd"/>
   </g>
   <g transform="translate(76.414,776.31)">
    <path d="m 90.912,-395.63 c -0.164,-0.1 -0.168,-0.13 -0.08,-0.24 6.548,-11.23 12.908,-22.65 19.558,-33.77 l 0,33.93 c -6.33,0.18 -13.01,0 -19.478,0.1 m 20.758,1.27 0,-35.84 c 0,-0.66 0.2,-1.5 -0.24,-2.07 -1.09,-0.44 -1.01,-0.1 -1.52,0.79 -7.01,12.13 -14.446,24.89 -21.314,36.88 -0.06,0.1 -0.124,0.22 0,0.24 l 23.074,0 z" style="fill-rule:evenodd"/>
   </g>
   <g transform="translate(99.884,766.61)">
    <path d="m 161.32,-424.73 -2.72,0 0,-11.1 2.8,0 0,6.55 c 1.13,-1.47 2.57,-3.31 3.83,-4.95 0.35,-0.45 0.91,-1.46 1.36,-1.6 0.85,-0.26 1.65,0.2 2.55,0 l 0,11.1 -2.79,0 0,-6.46 c -1.71,2.12 -3.24,4.42 -5.03,6.46 m -7.26,0 c -0.19,-3.54 0,-7.43 -0.1,-11.1 l 2.87,0 0,11.1 -2.79,0 z m -19.64,-0.24 c 0.2,-4.02 -0.84,-8.86 1.67,-10.46 1.66,-1.04 4.6,-0.95 6.15,-0.1 2.78,1.58 1.58,6.71 1.84,10.78 l -2.88,0 c -0.5,-2.64 1,-7.28 -0.8,-8.46 -0.97,-0.64 -2.28,-0.36 -2.79,0.4 -1.12,1.66 0.25,6.25 -0.4,8.06 l -2.71,0 c -0.1,0 -0.24,-0.26 -0.1,-0.24 m -24.91,0.24 c -0.51,-3.75 -1.09,-7.43 -1.67,-11.1 l 2.79,0 c 0.35,2.1 0.42,4.48 0.88,6.47 0.64,-2.2 1.38,-4.31 2.07,-6.47 l 1.76,0 c 0.72,2.15 1.38,4.38 2.16,6.47 0.27,-2.15 0.49,-4.34 0.79,-6.47 0.91,0.1 2.02,-0.1 2.8,0.1 -0.61,3.63 -1.18,7.29 -1.68,11.02 l -2.87,0 c -0.69,-2.06 -1.33,-4.16 -2.08,-6.14 -0.77,1.96 -1.33,4.14 -2.08,6.14 l -2.87,0 z m -5.26,0 c -0.19,-3.54 0,-7.43 -0.1,-11.1 l 2.96,0 c 0,3.65 0,7.72 0,11.1 l -2.87,0 z m -7.269,0 c -0.188,-3.54 -0.03,-7.43 -0.08,-11.1 l 6.459,0 0,2.56 c -1.14,0 -2.5,-0.11 -3.507,0.1 -0.06,2.48 0.108,5.84 -0.08,8.46 l -2.792,0 z m 48.209,-2.95 c -0.1,-1.98 1.4,-2.75 2.72,-3.44 0.71,-0.36 2.05,-0.89 2.08,-1.59 0,-0.88 -1.43,-1.23 -2.32,-0.8 -0.58,0.28 -0.68,0.73 -0.88,1.28 -0.67,-0.59 -1.27,-1.24 -1.75,-2 0.81,-1.43 2.28,-1.99 3.99,-1.92 3.06,0.14 4.98,3.49 2.87,5.75 -0.88,0.95 -3.95,1.67 -3.83,2.8 0.14,1.35 2.82,0.56 2.55,-0.32 0.67,0.53 1.34,1.05 1.84,1.75 -1.58,2.84 -7.18,1.92 -7.27,-1.51 m -23.71,-1.36 c -0.74,-3.66 1.85,-7.14 5.83,-7.11 1.76,0 3.56,0.9 4.56,2.08 3.32,3.94 0,10.08 -5.2,9.5 -2.65,-0.3 -4.7,-2.08 -5.19,-4.47 m -30.727,44.38 c 6.984,-0.1 13.987,-0.11 20.917,-0.23 l 0,-36.65 c 13.67,-0.18 27.7,0 41.51,-0.1 0,12.37 -0.14,24.56 -0.1,36.96 l 21.71,0 0,-38.31 c 0,-1.86 0.29,-3.89 0,-5.43 -0.11,-0.59 -0.78,-1.45 -1.28,-2.32 -6.19,-10.74 -11.95,-20.95 -18.12,-31.93 -0.15,-0.27 -0.41,-0.84 -0.64,-1.12 -0.37,-0.44 -0.74,-0.39 -1.11,-0.16 -0.38,0.24 -0.31,0 -0.4,0.4 -0.3,1.26 0,4.22 0,5.51 0,6.33 0.1,12.37 -0.1,18.6 -13.73,0.1 -28.1,-0.11 -41.43,0.1 -0.49,-7.59 0.37,-15.25 -0.1,-23.15 0,-0.69 0.1,-0.78 -0.48,-1.04 -1.06,-0.48 -1.25,0.74 -1.68,1.52 -5.85,10.67 -11.665,20.73 -17.641,31.37 -0.448,0.81 -1.076,1.68 -1.196,2.24 -0.324,1.49 0,3.67 0,5.51 l 0,38 c 0,0.11 -0.01,0.22 0.08,0.23" style="fill-rule:evenodd"/>
   </g>
   <g transform="translate(88.368,776.25)">
    <path d="m 126.77,-395.81 0,-32.01 34.25,0 c 0,11.12 0,21.44 -0.1,32.25 l -34.09,0 c -0.1,0 -0.1,-0.13 -0.1,-0.24 m -1.19,1.51 36.64,0 c 0.19,-11.44 0,-23.22 0.1,-34.8 l -36.8,0 0,34.56 c 0,0.12 0,0.23 0.1,0.24" style="fill-rule:evenodd"/>
   </g>
   <g transform="translate(104.19,776.25)">
    <path d="m 174.25,-395.81 0,-33.45 c 6.53,10.94 13.12,22.47 19.48,33.69 l -19.4,0 c -0.1,0 -0.1,-0.13 -0.1,-0.24 m -1.27,1.51 22.91,0 c 0.16,-0.44 -0.3,-0.8 -0.48,-1.11 -6.81,-11.62 -13.55,-23.43 -20.36,-35.21 -0.4,-0.69 -0.72,-2.15 -1.99,-1.35 -0.38,12.14 -0.1,24.98 -0.16,37.43 0,0.12 0,0.23 0.1,0.24" style="fill-rule:evenodd"/>
   </g>
   <g transform="translate(91.242,765.99)">
    <path d="m 135.4,-426.59 c 5,0.81 4.25,-7.82 -0.56,-6.14 -2.72,0.94 -2.43,5.66 0.56,6.14" style="fill-rule:evenodd"/>
   </g>
   <g transform="translate(88.388,761.96)">
    <path d="m 126.83,-438.68 0,-23.23 c 0,-1.15 -0.19,-2.47 0,-3.35 0.1,-0.44 0.69,-1.24 1.04,-1.84 5.36,-9.26 10.84,-18.45 15.97,-27.54 5.07,8.2 9.92,16.88 14.93,25.38 0.52,0.9 1.97,2.73 2.15,3.68 0.19,0.94 0,2.2 0,3.35 l 0,23.79 -34,0 c -0.1,0 -0.1,-0.13 -0.1,-0.24 m 35.37,1.52 0,-21.56 c 0,-2.31 0.36,-4.94 0,-7.1 -0.17,-1.05 -1.69,-3.06 -2.24,-3.99 -5.35,-9.13 -10.75,-18.42 -16.04,-27.39 -5.64,9.72 -11.49,19.66 -17.25,29.62 -0.38,0.68 -1,1.49 -1.11,2 -0.2,0.93 0,2.34 0,3.59 l 0,24.75 c 0,0.1 0.26,0.24 0.24,0.1 11.36,0 24.97,0 36.4,0" style="fill-rule:evenodd"/>
   </g>
   <g transform="translate(96.744,773.19)">
    <path d="m 151.9,-404.98 -10.18,-7.4 3.91,-12.02 -10.2,7.42 -10.22,-7.42 3.91,12.02 -10.16,7.4 12.55,0 3.92,11.96 3.89,-11.96 12.58,0 z" style="fill:#ab8930"/>
   </g>
  </g>
 </g>
</svg>
